<?xml version="1.0" encoding="UTF-8" standalone="no"?>
<!DOCTYPE svg PUBLIC "-//W3C//DTD SVG 1.0//EN" "http://www.w3.org/TR/2001/REC-SVG-20010904/DTD/svg10.dtd">
<!-- Generated by Microsoft Visio 11.0, SVG Export, v1.0 knowledge-attribution-by-services.svg knowledge-attribution-by-services -->
<svg xmlns="http://www.w3.org/2000/svg" xmlns:xlink="http://www.w3.org/1999/xlink" xmlns:ev="http://www.w3.org/2001/xml-events"
		xmlns:v="http://schemas.microsoft.com/visio/2003/SVGExtensions/" width="8.10942in" height="2.25003in"
		viewBox="0 0 583.878 162.002" xml:space="preserve" color-interpolation-filters="sRGB" class="st20">
	<v:documentProperties v:langID="1033" v:metric="true" v:viewMarkup="false">
		<v:userDefs>
			<v:ud v:nameU="msvNoAutoConnect" v:val="VT0(1):26"/>
		</v:userDefs>
	</v:documentProperties>

	<style type="text/css">
	<![CDATA[
		.st1 {fill:none;stroke:none;stroke-linecap:round;stroke-linejoin:round;stroke-width:0.75}
		.st2 {fill:#000000;font-family:Georgia;font-size:0.666664em}
		.st3 {font-size:1em}
		.st4 {fill:#f7f6f3;stroke:#000000;stroke-dasharray:5.25,3.75;stroke-linecap:round;stroke-linejoin:round;stroke-width:0.75}
		.st5 {stroke:#a5a5a5;stroke-dasharray:0,2.25;stroke-linecap:round;stroke-linejoin:round;stroke-width:0.75}
		.st6 {fill:#ffffff;stroke:none;stroke-linecap:round;stroke-linejoin:round;stroke-width:0.75}
		.st7 {fill:url(#grad31-32);stroke:none;stroke-linecap:butt;stroke-width:0.75}
		.st8 {fill:url(#grad31-38);stroke:none;stroke-linecap:butt;stroke-width:0.75}
		.st9 {fill:#a57a2c;stroke:none;stroke-linecap:butt;stroke-width:0.75}
		.st10 {fill:#ffffff;stroke:none;stroke-linecap:butt;stroke-width:0.75}
		.st11 {fill:none;stroke:#7f7f7f;stroke-linecap:round;stroke-linejoin:round;stroke-width:0.5}
		.st12 {fill:#ffffff;stroke:#8db1e2;stroke-linecap:round;stroke-linejoin:round;stroke-width:0.75}
		.st13 {stroke:#3f3f3f;stroke-linecap:round;stroke-linejoin:round;stroke-width:0.75}
		.st14 {fill:#3366ff;font-family:Segoe UI;font-size:0.666664em}
		.st15 {font-size:1em;text-decoration:underline}
		.st16 {fill:#3366ff;font-family:Segoe UI;font-size:0.666664em;font-weight:bold}
		.st17 {fill:url(#grad31-159);stroke:none;stroke-linecap:butt;stroke-width:0.75}
		.st18 {fill:#39749f;stroke:none;stroke-linecap:butt;stroke-width:0.75}
		.st19 {fill:url(#grad28-171);stroke:none;stroke-linecap:butt;stroke-width:0.75}
		.st20 {fill:none;fill-rule:evenodd;font-size:12px;overflow:visible;stroke-linecap:square;stroke-miterlimit:3}
	]]>
	</style>

	<defs id="Patterns_And_Gradients">
		<pattern id="grad31-32" v:fillPattern="31" v:foreground="#fbd952" v:background="#d3b348" x="0" y="0" width="1" height="1"
				patternContentUnits="objectBoundingBox">
			<path d="M 0 0 L 0 1 L 1 1 z" style="fill:url(#grad28-33)"/>
			<path d="M 0 0 L 1 0 L 1 1 z" style="fill:url(#grad25-34)"/>
		</pattern>
		<linearGradient id="grad28-33" v:fillPattern="31" v:foreground="#fbd952" v:background="#d3b348" x1="0" y1="0" x2="0" y2="1">
			<stop offset="0" style="stop-color:#fbd952;stop-opacity:1"/>
			<stop offset="1" style="stop-color:#d3b348;stop-opacity:1"/>
		</linearGradient>
		<linearGradient id="grad25-34" v:fillPattern="31" v:foreground="#fbd952" v:background="#d3b348" x1="0" y1="0" x2="1" y2="0">
			<stop offset="0" style="stop-color:#fbd952;stop-opacity:1"/>
			<stop offset="1" style="stop-color:#d3b348;stop-opacity:1"/>
		</linearGradient>
		<pattern id="grad31-38" v:fillPattern="31" v:foreground="#f0ecc0" v:background="#d3b348" x="0" y="0" width="1" height="1"
				patternContentUnits="objectBoundingBox">
			<path d="M 0 0 L 0 1 L 1 1 z" style="fill:url(#grad28-39)"/>
			<path d="M 0 0 L 1 0 L 1 1 z" style="fill:url(#grad25-40)"/>
		</pattern>
		<linearGradient id="grad28-39" v:fillPattern="31" v:foreground="#f0ecc0" v:background="#d3b348" x1="0" y1="0" x2="0" y2="1">
			<stop offset="0" style="stop-color:#f0ecc0;stop-opacity:1"/>
			<stop offset="1" style="stop-color:#d3b348;stop-opacity:1"/>
		</linearGradient>
		<linearGradient id="grad25-40" v:fillPattern="31" v:foreground="#f0ecc0" v:background="#d3b348" x1="0" y1="0" x2="1" y2="0">
			<stop offset="0" style="stop-color:#f0ecc0;stop-opacity:1"/>
			<stop offset="1" style="stop-color:#d3b348;stop-opacity:1"/>
		</linearGradient>
		<pattern id="grad31-159" v:fillPattern="31" v:foreground="#ffffff" v:background="#9ecded" x="0" y="0" width="1" height="1"
				patternContentUnits="objectBoundingBox">
			<path d="M 0 0 L 0 1 L 1 1 z" style="fill:url(#grad28-160)"/>
			<path d="M 0 0 L 1 0 L 1 1 z" style="fill:url(#grad25-161)"/>
		</pattern>
		<linearGradient id="grad28-160" v:fillPattern="31" v:foreground="#ffffff" v:background="#9ecded" x1="0" y1="0" x2="0"
				y2="1">
			<stop offset="0" style="stop-color:#ffffff;stop-opacity:1"/>
			<stop offset="1" style="stop-color:#9ecded;stop-opacity:1"/>
		</linearGradient>
		<linearGradient id="grad25-161" v:fillPattern="31" v:foreground="#ffffff" v:background="#9ecded" x1="0" y1="0" x2="1"
				y2="0">
			<stop offset="0" style="stop-color:#ffffff;stop-opacity:1"/>
			<stop offset="1" style="stop-color:#9ecded;stop-opacity:1"/>
		</linearGradient>
		<linearGradient id="grad28-171" v:fillPattern="28" v:foreground="#9fdef2" v:background="#146bc2" x1="0" y1="0" x2="0"
				y2="1">
			<stop offset="0" style="stop-color:#9fdef2;stop-opacity:1"/>
			<stop offset="1" style="stop-color:#146bc2;stop-opacity:1"/>
		</linearGradient>
	</defs>
	<g v:mID="17" v:index="15" v:groupContext="foregroundPage">
		<title>knowledge-attribution-by-services</title>
		<v:pageProperties v:drawingScale="0.0393701" v:pageScale="0.0393701" v:drawingUnits="24" v:shadowOffsetX="8.50394"
				v:shadowOffsetY="-8.50394"/>
		<g id="shape72-1" v:mID="72" v:groupContext="shape" transform="translate(25.128,-134.835)">
			<title>Sheet.72</title>
			<desc>Service A -&#62; User A</desc>
			<v:textBlock v:margins="rect(4,4,4,4)" v:tabSpace="42.5197"/>
			<v:textRect cx="73.7008" cy="157.793" width="147.41" height="8.41732"/>
			<rect x="0" y="153.585" width="147.402" height="8.41732" class="st1"/>
			<text x="39.36" y="160.19" class="st2" v:langID="2070"><v:paragraph v:horizAlign="1"/><v:tabList/>Servi<tspan
						class="st3" v:langID="1033">ce</tspan> A -&#62; U<tspan class="st3" v:langID="1033">ser</tspan> A</text>		</g>
		<g id="shape124-6" v:mID="124" v:groupContext="shape" transform="translate(182.136,-134.835)">
			<title>Sheet.124</title>
			<desc>Service B -&#62; User A</desc>
			<v:textBlock v:margins="rect(4,4,4,4)" v:tabSpace="42.5197"/>
			<v:textRect cx="102.047" cy="157.793" width="204.1" height="8.41732"/>
			<rect x="0" y="153.585" width="204.094" height="8.41732" class="st1"/>
			<text x="67.77" y="160.19" class="st2" v:langID="2070"><v:paragraph v:horizAlign="1"/><v:tabList/>Servi<tspan
						class="st3" v:langID="1033">ce</tspan> B -&#62; U<tspan class="st3" v:langID="1033">ser</tspan> A</text>		</g>
		<g id="shape176-11" v:mID="176" v:groupContext="shape" transform="translate(390.356,-134.835)">
			<title>Sheet.176</title>
			<desc>Service C -&#62; User A</desc>
			<v:textBlock v:margins="rect(4,4,4,4)" v:tabSpace="42.5197"/>
			<v:textRect cx="86.189" cy="157.793" width="172.38" height="8.41732"/>
			<rect x="0" y="153.585" width="172.378" height="8.41732" class="st1"/>
			<text x="51.96" y="160.19" class="st2" v:langID="2070"><v:paragraph v:horizAlign="1"/><v:tabList/>Servi<tspan
						class="st3" v:langID="1033">ce</tspan> C -&#62; U<tspan class="st3" v:langID="1033">ser</tspan> A</text>		</g>
		<g id="group233-16" transform="translate(387.963,-18.75)" v:mID="233" v:groupContext="group">
			<title>Sheet.233</title>
			<g id="shape229-17" v:mID="229" v:groupContext="shape">
				<title>Sheet.229</title>
				<rect x="0" y="48.6161" width="177.165" height="113.386" rx="2.83465" ry="2.83465" class="st4"/>
			</g>
			<g id="group230-19" transform="translate(7.08661,-36.2356)" v:mID="230" v:groupContext="group">
				<title>Sheet.230</title>
				<g id="shape453-20" v:mID="453" v:groupContext="shape" transform="translate(178.536,100.961) rotate(90)">
					<title>Sheet.453</title>
					<path d="M0 162 L11.34 162" class="st5"/>
				</g>
				<g id="shape454-23" v:mID="454" v:groupContext="shape" transform="translate(1.44685,-64.0924)">
					<title>Sheet.454</title>
					<path d="M0 162 L9.64 162" class="st5"/>
				</g>
				<g id="group455-26" transform="translate(10.6594,-60.3889)" v:mID="455" v:groupContext="group">
					<title>Sheet.455</title>
					<g id="shape456-27" v:mID="456" v:groupContext="shape" transform="translate(-2.9976E-015,-0.00718152)">
						<title>Sheet.456</title>
						<path d="M11.73 156.07 a0.517446 0.517446 -180 0 0 -0.5178 -0.51795 L6.4 155.55 A2.39972 2.39972 -180 0 0
									 6.22 155.07 a0.684201 0.684201 -180 0 0 -0.433988 -0.463969 L3.26 154.6 a0.671094 0.671094 -180
									 0 0 -0.437212 0.43125 A3.14901 3.14901 -180 0 0 2.64 155.46 A10.4434 10.4434 -180 0 0 2.54 156.07
									 L2.54 156.8 L0.2 156.8 a0.175537 0.175537 -180 0 0 -0.1719 0.2712 L2.23 161.73 a0.5185 0.5185
									 -180 0 0 0.42825 0.2712 L11.38 162 a0.379891 0.379891 -180 0 0 0.3123 -0.14205 A4923.22 4923.22
									 -180 0 0 11.73 156.07 Z" class="st6"/>
					</g>
					<g id="shape457-29" v:mID="457" v:groupContext="shape" transform="translate(2.54014,-0.291596)">
						<title>Sheet.457</title>
						<path d="M9.19 156.35 a0.517446 0.517446 -180 0 0 -0.5178 -0.51795 L3.86 155.84 A2.39972 2.39972 -180 0 0
									 3.68 155.35 a0.684201 0.684201 -180 0 0 -0.433988 -0.463969 L0.72 154.89 a0.671094 0.671094
									 -180 0 0 -0.437213 0.43125 A3.14901 3.14901 -180 0 0 0.1 155.75 A10.4434 10.4434 -180 0 0 0
									 156.35 L0 157.09 L6.53 157.09 L9.12 162 a0.511935 0.511935 -180 0 0 0.0693 -0.25455 L9.19 156.35
									 Z" class="st7"/>
					</g>
					<g id="shape458-35" v:mID="458" v:groupContext="shape" transform="translate(0.000253651,2.84217E-014)">
						<title>Sheet.458</title>
						<path d="M11.68 161.75 A11.6149 11.6149 0 0 1 11.39 161.92 a0.437107 0.437107 -180 0 0 0.12885 -0.47505 L9.21
									 157.06 a0.547699 0.547699 -180 0 0 -0.4398 -0.2655 L0.2 156.79 a0.175537 0.175537 -180 0 0 -0.1719
									 0.2712 L2.23 161.72 a0.5185 0.5185 -180 0 0 0.42825 0.2712 L11.38 161.99 a0.332841 0.332841
									 -180 0 0 0.297 -0.0825 A1.07388 1.07388 -180 0 0 11.68 161.75 Z" class="st8"/>
					</g>
					<g id="shape459-41" v:mID="459" v:groupContext="shape" transform="translate(0.0625871,-0.144596)">
						<title>Sheet.459</title>
						<path d="M8.77 156.85 L0.2 156.85 a0.173618 0.173618 -180 0 0 -0.19545 0.14655 A313.406 313.406 0 0 1 8.93
									 157.01 A137.265 137.265 0 0 1 11.55 161.92 a0.46976 0.46976 -180 0 0 -0.0117 0.07575 L11.56
									 162 a0.232831 0.232831 -180 0 0 0.1245 -0.0987 a0.365189 0.365189 -180 0 0 -0.03285 -0.11925
									 L9.15 157.03 a0.554407 0.554407 -180 0 0 -0.3858 -0.18945 Z" class="st9"/>
					</g>
					<g id="shape460-43" v:mID="460" v:groupContext="shape" transform="translate(0.00633715,-0.0506961)">
						<title>Sheet.460</title>
						<path d="M8.77 156.85 L0.2 156.85 a0.173618 0.173618 -180 0 0 -0.19545 0.14655 L8.96 156.99 L11.55 161.92
									 a0.453709 0.453709 -180 0 0 -0.0117 0.07575 L11.56 162 a0.233503 0.233503 -180 0 0 0.1245 -0.0987
									 a0.369262 0.369262 -180 0 0 -0.03285 -0.11925 L9.15 157.03 a0.41511 0.41511 -180 0 0 -0.38565
									 -0.18945 Z" class="st10"/>
					</g>
					<g id="shape461-45" v:mID="461" v:groupContext="shape" transform="translate(0.000253651,-0.00701692)">
						<title>Sheet.461</title>
						<path d="M11.73 156.07 a0.517446 0.517446 -180 0 0 -0.5178 -0.51795 L6.4 155.55 A2.39972 2.39972 -180 0 0
									 6.22 155.07 a0.684201 0.684201 -180 0 0 -0.433988 -0.463969 L3.26 154.6 a0.671094 0.671094 -180
									 0 0 -0.437212 0.43125 A3.14901 3.14901 -180 0 0 2.64 155.46 A10.4434 10.4434 -180 0 0 2.54 156.07
									 L2.54 156.8 L0.2 156.8 a0.175537 0.175537 -180 0 0 -0.1719 0.2712 L2.23 161.73 a0.5185 0.5185
									 -180 0 0 0.42825 0.2712 L11.38 162 a0.379891 0.379891 -180 0 0 0.3123 -0.14205 A4923.22 4923.22
									 -180 0 0 11.73 156.07 Z" class="st11"/>
					</g>
				</g>
				<g id="group462-47" transform="translate(1.7486E-014,-61.4933)" v:mID="462" v:groupContext="group">
					<title>Sheet.462</title>
					<g id="shape463-48" v:mID="463" v:groupContext="shape">
						<title>Sheet.463</title>
						<rect x="0" y="156.804" width="4.99016" height="5.19808" rx="0.708661" ry="0.708661" class="st12"/>
					</g>
					<g id="shape464-50" v:mID="464" v:groupContext="shape" transform="translate(1.03962,-2.59904)">
						<title>Sheet.464</title>
						<path d="M0 162 L2.91 162" class="st13"/>
					</g>
				</g>
				<g id="shape465-53" v:mID="465" v:groupContext="shape" transform="translate(21.4311,-59.8589)">
					<title>Sheet.465</title>
					<desc>Folder A</desc>
					<v:textBlock v:margins="rect(4,4,4,4)" v:tabSpace="42.5197"/>
					<v:textRect cx="18.9921" cy="156.9" width="37.99" height="10.2047"/>
					<rect x="0" y="151.797" width="37.9843" height="10.2047" class="st1"/>
					<text x="4" y="160.5" class="st14" v:langID="1033"><v:paragraph/><v:tabList/><tspan class="st15">Folder</tspan><tspan
								class="st15" v:langID="2070"> </tspan><tspan class="st15" v:langID="2070">A</tspan></text>				</g>
				<g id="group466-59" transform="translate(14.0391,-47.103)" v:mID="466" v:groupContext="group">
					<title>Sheet.466</title>
					<g id="shape467-60" v:mID="467" v:groupContext="shape">
						<title>Sheet.467</title>
						<rect x="0" y="156.804" width="4.99016" height="5.19808" rx="0.708661" ry="0.708661" class="st12"/>
					</g>
					<g id="shape468-62" v:mID="468" v:groupContext="shape" transform="translate(1.03962,-2.59904)">
						<title>Sheet.468</title>
						<path d="M0 162 L2.91 162" class="st13"/>
					</g>
				</g>
				<g id="shape469-65" v:mID="469" v:groupContext="shape" transform="translate(18.8799,-49.6357)">
					<title>Sheet.469</title>
					<path d="M0 162 L9.64 162" class="st5"/>
				</g>
				<g id="group470-68" transform="translate(28.0925,-45.9322)" v:mID="470" v:groupContext="group">
					<title>Sheet.470</title>
					<g id="shape471-69" v:mID="471" v:groupContext="shape" transform="translate(-2.9976E-015,-0.00718152)">
						<title>Sheet.471</title>
						<path d="M11.73 156.07 a0.517446 0.517446 -180 0 0 -0.5178 -0.51795 L6.4 155.55 A2.39972 2.39972 -180 0 0
									 6.22 155.07 a0.684201 0.684201 -180 0 0 -0.433988 -0.463969 L3.26 154.6 a0.671094 0.671094 -180
									 0 0 -0.437212 0.43125 A3.14901 3.14901 -180 0 0 2.64 155.46 A10.4434 10.4434 -180 0 0 2.54 156.07
									 L2.54 156.8 L0.2 156.8 a0.175537 0.175537 -180 0 0 -0.1719 0.2712 L2.23 161.73 a0.5185 0.5185
									 -180 0 0 0.42825 0.2712 L11.38 162 a0.379891 0.379891 -180 0 0 0.3123 -0.14205 A4923.22 4923.22
									 -180 0 0 11.73 156.07 Z" class="st6"/>
					</g>
					<g id="shape472-71" v:mID="472" v:groupContext="shape" transform="translate(2.54014,-0.291596)">
						<title>Sheet.472</title>
						<path d="M9.19 156.35 a0.517446 0.517446 -180 0 0 -0.5178 -0.51795 L3.86 155.84 A2.39972 2.39972 -180 0 0
									 3.68 155.35 a0.684201 0.684201 -180 0 0 -0.433988 -0.463969 L0.72 154.89 a0.671094 0.671094
									 -180 0 0 -0.437213 0.43125 A3.14901 3.14901 -180 0 0 0.1 155.75 A10.4434 10.4434 -180 0 0 0
									 156.35 L0 157.09 L6.53 157.09 L9.12 162 a0.511935 0.511935 -180 0 0 0.0693 -0.25455 L9.19 156.35
									 Z" class="st7"/>
					</g>
					<g id="shape473-74" v:mID="473" v:groupContext="shape" transform="translate(0.000253651,2.84217E-014)">
						<title>Sheet.473</title>
						<path d="M11.68 161.75 A11.6149 11.6149 0 0 1 11.39 161.92 a0.437107 0.437107 -180 0 0 0.12885 -0.47505 L9.21
									 157.06 a0.547699 0.547699 -180 0 0 -0.4398 -0.2655 L0.2 156.79 a0.175537 0.175537 -180 0 0 -0.1719
									 0.2712 L2.23 161.72 a0.5185 0.5185 -180 0 0 0.42825 0.2712 L11.38 161.99 a0.332841 0.332841
									 -180 0 0 0.297 -0.0825 A1.07388 1.07388 -180 0 0 11.68 161.75 Z" class="st8"/>
					</g>
					<g id="shape474-77" v:mID="474" v:groupContext="shape" transform="translate(0.0625871,-0.144596)">
						<title>Sheet.474</title>
						<path d="M8.77 156.85 L0.2 156.85 a0.173618 0.173618 -180 0 0 -0.19545 0.14655 A313.406 313.406 0 0 1 8.93
									 157.01 A137.265 137.265 0 0 1 11.55 161.92 a0.46976 0.46976 -180 0 0 -0.0117 0.07575 L11.56
									 162 a0.232831 0.232831 -180 0 0 0.1245 -0.0987 a0.365189 0.365189 -180 0 0 -0.03285 -0.11925
									 L9.15 157.03 a0.554407 0.554407 -180 0 0 -0.3858 -0.18945 Z" class="st9"/>
					</g>
					<g id="shape475-79" v:mID="475" v:groupContext="shape" transform="translate(0.00633715,-0.0506961)">
						<title>Sheet.475</title>
						<path d="M8.77 156.85 L0.2 156.85 a0.173618 0.173618 -180 0 0 -0.19545 0.14655 L8.96 156.99 L11.55 161.92
									 a0.453709 0.453709 -180 0 0 -0.0117 0.07575 L11.56 162 a0.233503 0.233503 -180 0 0 0.1245 -0.0987
									 a0.369262 0.369262 -180 0 0 -0.03285 -0.11925 L9.15 157.03 a0.41511 0.41511 -180 0 0 -0.38565
									 -0.18945 Z" class="st10"/>
					</g>
					<g id="shape476-81" v:mID="476" v:groupContext="shape" transform="translate(0.000253651,-0.00701692)">
						<title>Sheet.476</title>
						<path d="M11.73 156.07 a0.517446 0.517446 -180 0 0 -0.5178 -0.51795 L6.4 155.55 A2.39972 2.39972 -180 0 0
									 6.22 155.07 a0.684201 0.684201 -180 0 0 -0.433988 -0.463969 L3.26 154.6 a0.671094 0.671094 -180
									 0 0 -0.437212 0.43125 A3.14901 3.14901 -180 0 0 2.64 155.46 A10.4434 10.4434 -180 0 0 2.54 156.07
									 L2.54 156.8 L0.2 156.8 a0.175537 0.175537 -180 0 0 -0.1719 0.2712 L2.23 161.73 a0.5185 0.5185
									 -180 0 0 0.42825 0.2712 L11.38 162 a0.379891 0.379891 -180 0 0 0.3123 -0.14205 A4923.22 4923.22
									 -180 0 0 11.73 156.07 Z" class="st11"/>
					</g>
				</g>
				<g id="shape477-83" v:mID="477" v:groupContext="shape" transform="translate(38.8642,-45.4022)">
					<title>Sheet.477</title>
					<desc>Folder B</desc>
					<v:textBlock v:margins="rect(4,4,4,4)" v:tabSpace="42.5197"/>
					<v:textRect cx="18.9921" cy="156.9" width="37.99" height="10.2047"/>
					<rect x="0" y="151.797" width="37.9843" height="10.2047" class="st1"/>
					<text x="4" y="160.5" class="st14" v:langID="1033"><v:paragraph/><v:tabList/><tspan class="st15">Folder</tspan><tspan
								class="st15" v:langID="2070"> </tspan><tspan class="st15">B</tspan></text>				</g>
				<g id="shape478-89" v:mID="478" v:groupContext="shape" transform="translate(195.835,116.552) rotate(90)">
					<title>Sheet.478</title>
					<path d="M0 162 L11.34 162" class="st5"/>
				</g>
				<g id="shape479-92" v:mID="479" v:groupContext="shape" transform="translate(36.1784,-34.0451)">
					<title>Sheet.479</title>
					<path d="M0 162 L9.64 162" class="st5"/>
				</g>
				<g id="group480-95" transform="translate(45.391,-30.3416)" v:mID="480" v:groupContext="group">
					<title>Sheet.480</title>
					<g id="shape481-96" v:mID="481" v:groupContext="shape" transform="translate(-2.9976E-015,-0.00718152)">
						<title>Sheet.481</title>
						<path d="M11.73 156.07 a0.517446 0.517446 -180 0 0 -0.5178 -0.51795 L6.4 155.55 A2.39972 2.39972 -180 0 0
									 6.22 155.07 a0.684201 0.684201 -180 0 0 -0.433988 -0.463969 L3.26 154.6 a0.671094 0.671094 -180
									 0 0 -0.437212 0.43125 A3.14901 3.14901 -180 0 0 2.64 155.46 A10.4434 10.4434 -180 0 0 2.54 156.07
									 L2.54 156.8 L0.2 156.8 a0.175537 0.175537 -180 0 0 -0.1719 0.2712 L2.23 161.73 a0.5185 0.5185
									 -180 0 0 0.42825 0.2712 L11.38 162 a0.379891 0.379891 -180 0 0 0.3123 -0.14205 A4923.22 4923.22
									 -180 0 0 11.73 156.07 Z" class="st6"/>
					</g>
					<g id="shape482-98" v:mID="482" v:groupContext="shape" transform="translate(2.54014,-0.291596)">
						<title>Sheet.482</title>
						<path d="M9.19 156.35 a0.517446 0.517446 -180 0 0 -0.5178 -0.51795 L3.86 155.84 A2.39972 2.39972 -180 0 0
									 3.68 155.35 a0.684201 0.684201 -180 0 0 -0.433988 -0.463969 L0.72 154.89 a0.671094 0.671094
									 -180 0 0 -0.437213 0.43125 A3.14901 3.14901 -180 0 0 0.1 155.75 A10.4434 10.4434 -180 0 0 0
									 156.35 L0 157.09 L6.53 157.09 L9.12 162 a0.511935 0.511935 -180 0 0 0.0693 -0.25455 L9.19 156.35
									 Z" class="st7"/>
					</g>
					<g id="shape483-101" v:mID="483" v:groupContext="shape" transform="translate(0.000253651,2.84217E-014)">
						<title>Sheet.483</title>
						<path d="M11.68 161.75 A11.6149 11.6149 0 0 1 11.39 161.92 a0.437107 0.437107 -180 0 0 0.12885 -0.47505 L9.21
									 157.06 a0.547699 0.547699 -180 0 0 -0.4398 -0.2655 L0.2 156.79 a0.175537 0.175537 -180 0 0 -0.1719
									 0.2712 L2.23 161.72 a0.5185 0.5185 -180 0 0 0.42825 0.2712 L11.38 161.99 a0.332841 0.332841
									 -180 0 0 0.297 -0.0825 A1.07388 1.07388 -180 0 0 11.68 161.75 Z" class="st8"/>
					</g>
					<g id="shape484-104" v:mID="484" v:groupContext="shape" transform="translate(0.0625871,-0.144596)">
						<title>Sheet.484</title>
						<path d="M8.77 156.85 L0.2 156.85 a0.173618 0.173618 -180 0 0 -0.19545 0.14655 A313.406 313.406 0 0 1 8.93
									 157.01 A137.265 137.265 0 0 1 11.55 161.92 a0.46976 0.46976 -180 0 0 -0.0117 0.07575 L11.56
									 162 a0.232831 0.232831 -180 0 0 0.1245 -0.0987 a0.365189 0.365189 -180 0 0 -0.03285 -0.11925
									 L9.15 157.03 a0.554407 0.554407 -180 0 0 -0.3858 -0.18945 Z" class="st9"/>
					</g>
					<g id="shape485-106" v:mID="485" v:groupContext="shape" transform="translate(0.00633715,-0.0506961)">
						<title>Sheet.485</title>
						<path d="M8.77 156.85 L0.2 156.85 a0.173618 0.173618 -180 0 0 -0.19545 0.14655 L8.96 156.99 L11.55 161.92
									 a0.453709 0.453709 -180 0 0 -0.0117 0.07575 L11.56 162 a0.233503 0.233503 -180 0 0 0.1245 -0.0987
									 a0.369262 0.369262 -180 0 0 -0.03285 -0.11925 L9.15 157.03 a0.41511 0.41511 -180 0 0 -0.38565
									 -0.18945 Z" class="st10"/>
					</g>
					<g id="shape486-108" v:mID="486" v:groupContext="shape" transform="translate(0.000253651,-0.00701692)">
						<title>Sheet.486</title>
						<path d="M11.73 156.07 a0.517446 0.517446 -180 0 0 -0.5178 -0.51795 L6.4 155.55 A2.39972 2.39972 -180 0 0
									 6.22 155.07 a0.684201 0.684201 -180 0 0 -0.433988 -0.463969 L3.26 154.6 a0.671094 0.671094 -180
									 0 0 -0.437212 0.43125 A3.14901 3.14901 -180 0 0 2.64 155.46 A10.4434 10.4434 -180 0 0 2.54 156.07
									 L2.54 156.8 L0.2 156.8 a0.175537 0.175537 -180 0 0 -0.1719 0.2712 L2.23 161.73 a0.5185 0.5185
									 -180 0 0 0.42825 0.2712 L11.38 162 a0.379891 0.379891 -180 0 0 0.3123 -0.14205 A4923.22 4923.22
									 -180 0 0 11.73 156.07 Z" class="st11"/>
					</g>
				</g>
				<g id="shape487-110" v:mID="487" v:groupContext="shape" transform="translate(56.1626,-29.8116)">
					<title>Sheet.487</title>
					<desc>Folder F</desc>
					<v:textBlock v:margins="rect(4,4,4,4)" v:tabSpace="42.5197"/>
					<v:textRect cx="18.9921" cy="156.9" width="37.99" height="10.2047"/>
					<rect x="0" y="151.797" width="37.9843" height="10.2047" class="st1"/>
					<text x="4" y="160.5" class="st14" v:langID="1033"><v:paragraph/><v:tabList/><tspan class="st15">Folder</tspan><tspan
								class="st15" v:langID="2070"> </tspan><tspan class="st15">F</tspan></text>				</g>
				<g id="shape488-116" v:mID="488" v:groupContext="shape" transform="translate(214.036,132.19) rotate(90)">
					<title>Sheet.488</title>
					<path d="M0 162 L11.34 162" class="st5"/>
				</g>
				<g id="shape489-119" v:mID="489" v:groupContext="shape" transform="translate(54.38,-18.4067)">
					<title>Sheet.489</title>
					<path d="M0 162 L9.64 162" class="st5"/>
				</g>
				<g id="shape490-122" v:mID="490" v:groupContext="shape" transform="translate(72.3501,-14.1732)">
					<title>Sheet.490</title>
					<desc>Folder H (Mandatory)</desc>
					<v:textBlock v:margins="rect(4,4,4,4)" v:tabSpace="42.5197"/>
					<v:textRect cx="46.4231" cy="156.9" width="92.85" height="10.2047"/>
					<rect x="0" y="151.797" width="92.8463" height="10.2047" class="st1"/>
					<text x="4" y="160.5" class="st16" v:langID="1033"><v:paragraph/><v:tabList/><tspan class="st15">Folder</tspan><tspan
								class="st15" v:langID="2070"> </tspan><tspan class="st15">H </tspan><tspan class="st15">(</tspan><tspan
								class="st15">Mandatory</tspan><tspan class="st15">)</tspan></text>				</g>
				<g id="shape491-131" v:mID="491" v:groupContext="shape" transform="translate(232.238,146.364) rotate(90)">
					<title>Sheet.491</title>
					<path d="M0 162 L11.34 162" class="st5"/>
				</g>
				<g id="shape492-134" v:mID="492" v:groupContext="shape" transform="translate(72.5817,-4.2335)">
					<title>Sheet.492</title>
					<path d="M0 162 L9.64 162" class="st5"/>
				</g>
				<g id="shape493-137" v:mID="493" v:groupContext="shape" transform="translate(92.5659,2.84217E-014)">
					<title>Sheet.493</title>
					<desc>Document C</desc>
					<v:textBlock v:margins="rect(4,4,4,4)" v:tabSpace="42.5197"/>
					<v:textRect cx="29.622" cy="156.9" width="59.25" height="10.2047"/>
					<rect x="0" y="151.797" width="59.2441" height="10.2047" class="st1"/>
					<text x="4" y="160.5" class="st14" v:langID="1033"><v:paragraph/><v:tabList/><tspan class="st15">Document C</tspan></text>				</g>
				<g id="group552-141" transform="translate(49.5393,-15.874)" v:mID="552" v:groupContext="group">
					<title>Sheet.552</title>
					<g id="shape553-142" v:mID="553" v:groupContext="shape">
						<title>Sheet.553</title>
						<rect x="0" y="156.804" width="4.99016" height="5.19808" rx="0.708661" ry="0.708661" class="st12"/>
					</g>
					<g id="shape554-144" v:mID="554" v:groupContext="shape" transform="translate(1.03962,-2.59904)">
						<title>Sheet.554</title>
						<path d="M0 162 L2.91 162" class="st13"/>
					</g>
				</g>
				<g id="group555-147" transform="translate(31.3376,-31.5124)" v:mID="555" v:groupContext="group">
					<title>Sheet.555</title>
					<g id="shape556-148" v:mID="556" v:groupContext="shape">
						<title>Sheet.556</title>
						<rect x="0" y="156.804" width="4.99016" height="5.19808" rx="0.708661" ry="0.708661" class="st12"/>
					</g>
					<g id="shape557-150" v:mID="557" v:groupContext="shape" transform="translate(1.03962,-2.59904)">
						<title>Sheet.557</title>
						<path d="M0 162 L2.91 162" class="st13"/>
					</g>
				</g>
				<g id="group571-153" transform="translate(83.9197,-0.175417)" v:mID="571" v:groupContext="group">
					<title>Sheet.571</title>
					<g id="shape572-154" v:mID="572" v:groupContext="shape" transform="translate(-5.4956E-015,-0.00334063)">
						<title>Sheet.572</title>
						<path d="M7.91 154.6 L5.89 152.62 L0 152.63 L0 162 L7.91 162 L7.91 154.9 L7.91 154.9 L7.91 154.6 Z"
								class="st10"/>
					</g>
					<g id="shape573-156" v:mID="573" v:groupContext="shape" transform="translate(0.00792,2.84217E-014)">
						<title>Sheet.573</title>
						<path d="M5.88 152.63 L0 152.63 L0 162 L7.89 162 L7.89 154.6 L5.88 152.63 Z" class="st17"/>
					</g>
					<g id="shape574-162" v:mID="574" v:groupContext="shape" transform="translate(5.7534,-7.3374)">
						<title>Sheet.574</title>
						<path d="M2.15 161.94 L0.13 159.97 L0 159.97 L0 162 L2.15 162 L2.15 161.94 Z" class="st18"/>
					</g>
					<g id="shape575-164" v:mID="575" v:groupContext="shape" transform="translate(5.86752,-7.4514)">
						<title>Sheet.575</title>
						<path d="M0 162 L1.91 162 L0 160.15 L0 162 Z" class="st10"/>
					</g>
					<g id="shape576-166" v:mID="576" v:groupContext="shape" transform="translate(-5.4956E-015,-0.00396)">
						<title>Sheet.576</title>
						<path d="M7.91 154.6 L5.89 152.62 L0 152.63 L0 162 L7.91 162 L7.91 154.9 L7.91 154.9 L7.91 154.6 Z"
								class="st11"/>
					</g>
					<g id="shape577-168" v:mID="577" v:groupContext="shape" transform="translate(0.79104,-7.09656)">
						<title>Sheet.577</title>
						<rect x="0" y="161.916" width="3.66204" height="0.08556" class="st19"/>
					</g>
					<g id="shape578-172" v:mID="578" v:groupContext="shape" transform="translate(0.79104,-6.10356)">
						<title>Sheet.578</title>
						<rect x="0" y="161.916" width="6.02064" height="0.08556" class="st19"/>
					</g>
					<g id="shape579-175" v:mID="579" v:groupContext="shape" transform="translate(0.79104,-5.17248)">
						<title>Sheet.579</title>
						<rect x="0" y="161.916" width="6.02064" height="0.08544" class="st19"/>
					</g>
					<g id="shape580-178" v:mID="580" v:groupContext="shape" transform="translate(0.79104,-4.2414)">
						<title>Sheet.580</title>
						<rect x="0" y="161.916" width="6.02064" height="0.08556" class="st19"/>
					</g>
					<g id="shape581-181" v:mID="581" v:groupContext="shape" transform="translate(0.79104,-3.31032)">
						<title>Sheet.581</title>
						<rect x="0" y="161.916" width="6.02064" height="0.08556" class="st19"/>
					</g>
					<g id="shape582-184" v:mID="582" v:groupContext="shape" transform="translate(0.79104,-2.37936)">
						<title>Sheet.582</title>
						<rect x="0" y="161.916" width="6.02064" height="0.08556" class="st19"/>
					</g>
					<g id="shape583-187" v:mID="583" v:groupContext="shape" transform="translate(0.79104,-1.4484)">
						<title>Sheet.583</title>
						<rect x="0" y="161.916" width="6.02064" height="0.08544" class="st19"/>
					</g>
				</g>
				<g id="group584-190" transform="translate(63.5926,-14.4676)" v:mID="584" v:groupContext="group">
					<title>Sheet.584</title>
					<g id="shape585-191" v:mID="585" v:groupContext="shape" transform="translate(-2.9976E-015,-0.00718152)">
						<title>Sheet.585</title>
						<path d="M11.73 156.07 a0.517446 0.517446 -180 0 0 -0.5178 -0.51795 L6.4 155.55 A2.39972 2.39972 -180 0 0
									 6.22 155.07 a0.684201 0.684201 -180 0 0 -0.433988 -0.463969 L3.26 154.6 a0.671094 0.671094 -180
									 0 0 -0.437212 0.43125 A3.14901 3.14901 -180 0 0 2.64 155.46 A10.4434 10.4434 -180 0 0 2.54 156.07
									 L2.54 156.8 L0.2 156.8 a0.175537 0.175537 -180 0 0 -0.1719 0.2712 L2.23 161.73 a0.5185 0.5185
									 -180 0 0 0.42825 0.2712 L11.38 162 a0.379891 0.379891 -180 0 0 0.3123 -0.14205 A4923.22 4923.22
									 -180 0 0 11.73 156.07 Z" class="st6"/>
					</g>
					<g id="shape586-193" v:mID="586" v:groupContext="shape" transform="translate(2.54014,-0.291596)">
						<title>Sheet.586</title>
						<path d="M9.19 156.35 a0.517446 0.517446 -180 0 0 -0.5178 -0.51795 L3.86 155.84 A2.39972 2.39972 -180 0 0
									 3.68 155.35 a0.684201 0.684201 -180 0 0 -0.433988 -0.463969 L0.72 154.89 a0.671094 0.671094
									 -180 0 0 -0.437213 0.43125 A3.14901 3.14901 -180 0 0 0.1 155.75 A10.4434 10.4434 -180 0 0 0
									 156.35 L0 157.09 L6.53 157.09 L9.12 162 a0.511935 0.511935 -180 0 0 0.0693 -0.25455 L9.19 156.35
									 Z" class="st7"/>
					</g>
					<g id="shape587-196" v:mID="587" v:groupContext="shape" transform="translate(0.000253651,2.84217E-014)">
						<title>Sheet.587</title>
						<path d="M11.68 161.75 A11.6149 11.6149 0 0 1 11.39 161.92 a0.437107 0.437107 -180 0 0 0.12885 -0.47505 L9.21
									 157.06 a0.547699 0.547699 -180 0 0 -0.4398 -0.2655 L0.2 156.79 a0.175537 0.175537 -180 0 0 -0.1719
									 0.2712 L2.23 161.72 a0.5185 0.5185 -180 0 0 0.42825 0.2712 L11.38 161.99 a0.332841 0.332841
									 -180 0 0 0.297 -0.0825 A1.07388 1.07388 -180 0 0 11.68 161.75 Z" class="st8"/>
					</g>
					<g id="shape588-199" v:mID="588" v:groupContext="shape" transform="translate(0.0625871,-0.144596)">
						<title>Sheet.588</title>
						<path d="M8.77 156.85 L0.2 156.85 a0.173618 0.173618 -180 0 0 -0.19545 0.14655 A313.406 313.406 0 0 1 8.93
									 157.01 A137.265 137.265 0 0 1 11.55 161.92 a0.46976 0.46976 -180 0 0 -0.0117 0.07575 L11.56
									 162 a0.232831 0.232831 -180 0 0 0.1245 -0.0987 a0.365189 0.365189 -180 0 0 -0.03285 -0.11925
									 L9.15 157.03 a0.554407 0.554407 -180 0 0 -0.3858 -0.18945 Z" class="st9"/>
					</g>
					<g id="shape589-201" v:mID="589" v:groupContext="shape" transform="translate(0.00633715,-0.0506961)">
						<title>Sheet.589</title>
						<path d="M8.77 156.85 L0.2 156.85 a0.173618 0.173618 -180 0 0 -0.19545 0.14655 L8.96 156.99 L11.55 161.92
									 a0.453709 0.453709 -180 0 0 -0.0117 0.07575 L11.56 162 a0.233503 0.233503 -180 0 0 0.1245 -0.0987
									 a0.369262 0.369262 -180 0 0 -0.03285 -0.11925 L9.15 157.03 a0.41511 0.41511 -180 0 0 -0.38565
									 -0.18945 Z" class="st10"/>
					</g>
					<g id="shape590-203" v:mID="590" v:groupContext="shape" transform="translate(0.000253651,-0.00701692)">
						<title>Sheet.590</title>
						<path d="M11.73 156.07 a0.517446 0.517446 -180 0 0 -0.5178 -0.51795 L6.4 155.55 A2.39972 2.39972 -180 0 0
									 6.22 155.07 a0.684201 0.684201 -180 0 0 -0.433988 -0.463969 L3.26 154.6 a0.671094 0.671094 -180
									 0 0 -0.437212 0.43125 A3.14901 3.14901 -180 0 0 2.64 155.46 A10.4434 10.4434 -180 0 0 2.54 156.07
									 L2.54 156.8 L0.2 156.8 a0.175537 0.175537 -180 0 0 -0.1719 0.2712 L2.23 161.73 a0.5185 0.5185
									 -180 0 0 0.42825 0.2712 L11.38 162 a0.379891 0.379891 -180 0 0 0.3123 -0.14205 A4923.22 4923.22
									 -180 0 0 11.73 156.07 Z" class="st11"/>
					</g>
				</g>
			</g>
		</g>
		<g id="group234-205" transform="translate(178.907,-18.75)" v:mID="234" v:groupContext="group">
			<title>Sheet.234</title>
			<g id="shape228-206" v:mID="228" v:groupContext="shape">
				<title>Sheet.228</title>
				<rect x="0" y="48.6161" width="205.512" height="113.386" rx="2.83465" ry="2.83465" class="st4"/>
			</g>
			<g id="group231-208" transform="translate(7.08661,-36.2356)" v:mID="231" v:groupContext="group">
				<title>Sheet.231</title>
				<g id="shape177-209" v:mID="177" v:groupContext="shape" transform="translate(178.536,100.961) rotate(90)">
					<title>Sheet.177</title>
					<path d="M0 162 L11.34 162" class="st5"/>
				</g>
				<g id="shape178-212" v:mID="178" v:groupContext="shape" transform="translate(1.44685,-64.0924)">
					<title>Sheet.178</title>
					<path d="M0 162 L9.64 162" class="st5"/>
				</g>
				<g id="group179-215" transform="translate(10.6594,-60.3889)" v:mID="179" v:groupContext="group">
					<title>Sheet.179</title>
					<g id="shape180-216" v:mID="180" v:groupContext="shape" transform="translate(-2.9976E-015,-0.00718152)">
						<title>Sheet.180</title>
						<path d="M11.73 156.07 a0.517446 0.517446 -180 0 0 -0.5178 -0.51795 L6.4 155.55 A2.39972 2.39972 -180 0 0
									 6.22 155.07 a0.684201 0.684201 -180 0 0 -0.433988 -0.463969 L3.26 154.6 a0.671094 0.671094 -180
									 0 0 -0.437212 0.43125 A3.14901 3.14901 -180 0 0 2.64 155.46 A10.4434 10.4434 -180 0 0 2.54 156.07
									 L2.54 156.8 L0.2 156.8 a0.175537 0.175537 -180 0 0 -0.1719 0.2712 L2.23 161.73 a0.5185 0.5185
									 -180 0 0 0.42825 0.2712 L11.38 162 a0.379891 0.379891 -180 0 0 0.3123 -0.14205 A4923.22 4923.22
									 -180 0 0 11.73 156.07 Z" class="st6"/>
					</g>
					<g id="shape181-218" v:mID="181" v:groupContext="shape" transform="translate(2.54014,-0.291596)">
						<title>Sheet.181</title>
						<path d="M9.19 156.35 a0.517446 0.517446 -180 0 0 -0.5178 -0.51795 L3.86 155.84 A2.39972 2.39972 -180 0 0
									 3.68 155.35 a0.684201 0.684201 -180 0 0 -0.433988 -0.463969 L0.72 154.89 a0.671094 0.671094
									 -180 0 0 -0.437213 0.43125 A3.14901 3.14901 -180 0 0 0.1 155.75 A10.4434 10.4434 -180 0 0 0
									 156.35 L0 157.09 L6.53 157.09 L9.12 162 a0.511935 0.511935 -180 0 0 0.0693 -0.25455 L9.19 156.35
									 Z" class="st7"/>
					</g>
					<g id="shape182-221" v:mID="182" v:groupContext="shape" transform="translate(0.000253651,2.84217E-014)">
						<title>Sheet.182</title>
						<path d="M11.68 161.75 A11.6149 11.6149 0 0 1 11.39 161.92 a0.437107 0.437107 -180 0 0 0.12885 -0.47505 L9.21
									 157.06 a0.547699 0.547699 -180 0 0 -0.4398 -0.2655 L0.2 156.79 a0.175537 0.175537 -180 0 0 -0.1719
									 0.2712 L2.23 161.72 a0.5185 0.5185 -180 0 0 0.42825 0.2712 L11.38 161.99 a0.332841 0.332841
									 -180 0 0 0.297 -0.0825 A1.07388 1.07388 -180 0 0 11.68 161.75 Z" class="st8"/>
					</g>
					<g id="shape183-224" v:mID="183" v:groupContext="shape" transform="translate(0.0625871,-0.144596)">
						<title>Sheet.183</title>
						<path d="M8.77 156.85 L0.2 156.85 a0.173618 0.173618 -180 0 0 -0.19545 0.14655 A313.406 313.406 0 0 1 8.93
									 157.01 A137.265 137.265 0 0 1 11.55 161.92 a0.46976 0.46976 -180 0 0 -0.0117 0.07575 L11.56
									 162 a0.232831 0.232831 -180 0 0 0.1245 -0.0987 a0.365189 0.365189 -180 0 0 -0.03285 -0.11925
									 L9.15 157.03 a0.554407 0.554407 -180 0 0 -0.3858 -0.18945 Z" class="st9"/>
					</g>
					<g id="shape184-226" v:mID="184" v:groupContext="shape" transform="translate(0.00633715,-0.0506961)">
						<title>Sheet.184</title>
						<path d="M8.77 156.85 L0.2 156.85 a0.173618 0.173618 -180 0 0 -0.19545 0.14655 L8.96 156.99 L11.55 161.92
									 a0.453709 0.453709 -180 0 0 -0.0117 0.07575 L11.56 162 a0.233503 0.233503 -180 0 0 0.1245 -0.0987
									 a0.369262 0.369262 -180 0 0 -0.03285 -0.11925 L9.15 157.03 a0.41511 0.41511 -180 0 0 -0.38565
									 -0.18945 Z" class="st10"/>
					</g>
					<g id="shape185-228" v:mID="185" v:groupContext="shape" transform="translate(0.000253651,-0.00701692)">
						<title>Sheet.185</title>
						<path d="M11.73 156.07 a0.517446 0.517446 -180 0 0 -0.5178 -0.51795 L6.4 155.55 A2.39972 2.39972 -180 0 0
									 6.22 155.07 a0.684201 0.684201 -180 0 0 -0.433988 -0.463969 L3.26 154.6 a0.671094 0.671094 -180
									 0 0 -0.437212 0.43125 A3.14901 3.14901 -180 0 0 2.64 155.46 A10.4434 10.4434 -180 0 0 2.54 156.07
									 L2.54 156.8 L0.2 156.8 a0.175537 0.175537 -180 0 0 -0.1719 0.2712 L2.23 161.73 a0.5185 0.5185
									 -180 0 0 0.42825 0.2712 L11.38 162 a0.379891 0.379891 -180 0 0 0.3123 -0.14205 A4923.22 4923.22
									 -180 0 0 11.73 156.07 Z" class="st11"/>
					</g>
				</g>
				<g id="group186-230" transform="translate(-1.44884E-014,-61.4933)" v:mID="186" v:groupContext="group">
					<title>Sheet.186</title>
					<g id="shape187-231" v:mID="187" v:groupContext="shape">
						<title>Sheet.187</title>
						<rect x="0" y="156.804" width="4.99016" height="5.19808" rx="0.708661" ry="0.708661" class="st12"/>
					</g>
					<g id="shape188-233" v:mID="188" v:groupContext="shape" transform="translate(1.03962,-2.59904)">
						<title>Sheet.188</title>
						<path d="M0 162 L2.91 162" class="st13"/>
					</g>
				</g>
				<g id="shape189-236" v:mID="189" v:groupContext="shape" transform="translate(21.4311,-59.8589)">
					<title>Sheet.189</title>
					<desc>Folder A</desc>
					<v:textBlock v:margins="rect(4,4,4,4)" v:tabSpace="42.5197"/>
					<v:textRect cx="18.9921" cy="156.9" width="37.99" height="10.2047"/>
					<rect x="0" y="151.797" width="37.9843" height="10.2047" class="st1"/>
					<text x="4" y="160.5" class="st14" v:langID="1033"><v:paragraph/><v:tabList/><tspan class="st15">Folder</tspan><tspan
								class="st15" v:langID="2070"> </tspan><tspan class="st15" v:langID="2070">A</tspan></text>				</g>
				<g id="group190-242" transform="translate(14.0391,-47.103)" v:mID="190" v:groupContext="group">
					<title>Sheet.190</title>
					<g id="shape191-243" v:mID="191" v:groupContext="shape">
						<title>Sheet.191</title>
						<rect x="0" y="156.804" width="4.99016" height="5.19808" rx="0.708661" ry="0.708661" class="st12"/>
					</g>
					<g id="shape192-245" v:mID="192" v:groupContext="shape" transform="translate(1.03962,-2.59904)">
						<title>Sheet.192</title>
						<path d="M0 162 L2.91 162" class="st13"/>
					</g>
				</g>
				<g id="shape193-248" v:mID="193" v:groupContext="shape" transform="translate(18.8799,-49.6357)">
					<title>Sheet.193</title>
					<path d="M0 162 L9.64 162" class="st5"/>
				</g>
				<g id="group194-251" transform="translate(28.0925,-45.9322)" v:mID="194" v:groupContext="group">
					<title>Sheet.194</title>
					<g id="shape195-252" v:mID="195" v:groupContext="shape" transform="translate(-2.9976E-015,-0.00718152)">
						<title>Sheet.195</title>
						<path d="M11.73 156.07 a0.517446 0.517446 -180 0 0 -0.5178 -0.51795 L6.4 155.55 A2.39972 2.39972 -180 0 0
									 6.22 155.07 a0.684201 0.684201 -180 0 0 -0.433988 -0.463969 L3.26 154.6 a0.671094 0.671094 -180
									 0 0 -0.437212 0.43125 A3.14901 3.14901 -180 0 0 2.64 155.46 A10.4434 10.4434 -180 0 0 2.54 156.07
									 L2.54 156.8 L0.2 156.8 a0.175537 0.175537 -180 0 0 -0.1719 0.2712 L2.23 161.73 a0.5185 0.5185
									 -180 0 0 0.42825 0.2712 L11.38 162 a0.379891 0.379891 -180 0 0 0.3123 -0.14205 A4923.22 4923.22
									 -180 0 0 11.73 156.07 Z" class="st6"/>
					</g>
					<g id="shape196-254" v:mID="196" v:groupContext="shape" transform="translate(2.54014,-0.291596)">
						<title>Sheet.196</title>
						<path d="M9.19 156.35 a0.517446 0.517446 -180 0 0 -0.5178 -0.51795 L3.86 155.84 A2.39972 2.39972 -180 0 0
									 3.68 155.35 a0.684201 0.684201 -180 0 0 -0.433988 -0.463969 L0.72 154.89 a0.671094 0.671094
									 -180 0 0 -0.437213 0.43125 A3.14901 3.14901 -180 0 0 0.1 155.75 A10.4434 10.4434 -180 0 0 0
									 156.35 L0 157.09 L6.53 157.09 L9.12 162 a0.511935 0.511935 -180 0 0 0.0693 -0.25455 L9.19 156.35
									 Z" class="st7"/>
					</g>
					<g id="shape197-257" v:mID="197" v:groupContext="shape" transform="translate(0.000253651,2.84217E-014)">
						<title>Sheet.197</title>
						<path d="M11.68 161.75 A11.6149 11.6149 0 0 1 11.39 161.92 a0.437107 0.437107 -180 0 0 0.12885 -0.47505 L9.21
									 157.06 a0.547699 0.547699 -180 0 0 -0.4398 -0.2655 L0.2 156.79 a0.175537 0.175537 -180 0 0 -0.1719
									 0.2712 L2.23 161.72 a0.5185 0.5185 -180 0 0 0.42825 0.2712 L11.38 161.99 a0.332841 0.332841
									 -180 0 0 0.297 -0.0825 A1.07388 1.07388 -180 0 0 11.68 161.75 Z" class="st8"/>
					</g>
					<g id="shape198-260" v:mID="198" v:groupContext="shape" transform="translate(0.0625871,-0.144596)">
						<title>Sheet.198</title>
						<path d="M8.77 156.85 L0.2 156.85 a0.173618 0.173618 -180 0 0 -0.19545 0.14655 A313.406 313.406 0 0 1 8.93
									 157.01 A137.265 137.265 0 0 1 11.55 161.92 a0.46976 0.46976 -180 0 0 -0.0117 0.07575 L11.56
									 162 a0.232831 0.232831 -180 0 0 0.1245 -0.0987 a0.365189 0.365189 -180 0 0 -0.03285 -0.11925
									 L9.15 157.03 a0.554407 0.554407 -180 0 0 -0.3858 -0.18945 Z" class="st9"/>
					</g>
					<g id="shape199-262" v:mID="199" v:groupContext="shape" transform="translate(0.00633715,-0.0506961)">
						<title>Sheet.199</title>
						<path d="M8.77 156.85 L0.2 156.85 a0.173618 0.173618 -180 0 0 -0.19545 0.14655 L8.96 156.99 L11.55 161.92
									 a0.453709 0.453709 -180 0 0 -0.0117 0.07575 L11.56 162 a0.233503 0.233503 -180 0 0 0.1245 -0.0987
									 a0.369262 0.369262 -180 0 0 -0.03285 -0.11925 L9.15 157.03 a0.41511 0.41511 -180 0 0 -0.38565
									 -0.18945 Z" class="st10"/>
					</g>
					<g id="shape200-264" v:mID="200" v:groupContext="shape" transform="translate(0.000253651,-0.00701692)">
						<title>Sheet.200</title>
						<path d="M11.73 156.07 a0.517446 0.517446 -180 0 0 -0.5178 -0.51795 L6.4 155.55 A2.39972 2.39972 -180 0 0
									 6.22 155.07 a0.684201 0.684201 -180 0 0 -0.433988 -0.463969 L3.26 154.6 a0.671094 0.671094 -180
									 0 0 -0.437212 0.43125 A3.14901 3.14901 -180 0 0 2.64 155.46 A10.4434 10.4434 -180 0 0 2.54 156.07
									 L2.54 156.8 L0.2 156.8 a0.175537 0.175537 -180 0 0 -0.1719 0.2712 L2.23 161.73 a0.5185 0.5185
									 -180 0 0 0.42825 0.2712 L11.38 162 a0.379891 0.379891 -180 0 0 0.3123 -0.14205 A4923.22 4923.22
									 -180 0 0 11.73 156.07 Z" class="st11"/>
					</g>
				</g>
				<g id="shape201-266" v:mID="201" v:groupContext="shape" transform="translate(38.8642,-45.4022)">
					<title>Sheet.201</title>
					<desc>Folder B</desc>
					<v:textBlock v:margins="rect(4,4,4,4)" v:tabSpace="42.5197"/>
					<v:textRect cx="18.9921" cy="156.9" width="37.99" height="10.2047"/>
					<rect x="0" y="151.797" width="37.9843" height="10.2047" class="st1"/>
					<text x="4" y="160.5" class="st14" v:langID="1033"><v:paragraph/><v:tabList/><tspan class="st15">Folder</tspan><tspan
								class="st15" v:langID="2070"> </tspan><tspan class="st15">B</tspan></text>				</g>
				<g id="shape211-272" v:mID="211" v:groupContext="shape" transform="translate(195.835,116.552) rotate(90)">
					<title>Sheet.211</title>
					<path d="M0 162 L11.34 162" class="st5"/>
				</g>
				<g id="shape212-275" v:mID="212" v:groupContext="shape" transform="translate(36.1784,-34.0451)">
					<title>Sheet.212</title>
					<path d="M0 162 L9.64 162" class="st5"/>
				</g>
				<g id="group213-278" transform="translate(45.391,-30.3416)" v:mID="213" v:groupContext="group">
					<title>Sheet.213</title>
					<g id="shape214-279" v:mID="214" v:groupContext="shape" transform="translate(-2.9976E-015,-0.00718152)">
						<title>Sheet.214</title>
						<path d="M11.73 156.07 a0.517446 0.517446 -180 0 0 -0.5178 -0.51795 L6.4 155.55 A2.39972 2.39972 -180 0 0
									 6.22 155.07 a0.684201 0.684201 -180 0 0 -0.433988 -0.463969 L3.26 154.6 a0.671094 0.671094 -180
									 0 0 -0.437212 0.43125 A3.14901 3.14901 -180 0 0 2.64 155.46 A10.4434 10.4434 -180 0 0 2.54 156.07
									 L2.54 156.8 L0.2 156.8 a0.175537 0.175537 -180 0 0 -0.1719 0.2712 L2.23 161.73 a0.5185 0.5185
									 -180 0 0 0.42825 0.2712 L11.38 162 a0.379891 0.379891 -180 0 0 0.3123 -0.14205 A4923.22 4923.22
									 -180 0 0 11.73 156.07 Z" class="st6"/>
					</g>
					<g id="shape215-281" v:mID="215" v:groupContext="shape" transform="translate(2.54014,-0.291596)">
						<title>Sheet.215</title>
						<path d="M9.19 156.35 a0.517446 0.517446 -180 0 0 -0.5178 -0.51795 L3.86 155.84 A2.39972 2.39972 -180 0 0
									 3.68 155.35 a0.684201 0.684201 -180 0 0 -0.433988 -0.463969 L0.72 154.89 a0.671094 0.671094
									 -180 0 0 -0.437213 0.43125 A3.14901 3.14901 -180 0 0 0.1 155.75 A10.4434 10.4434 -180 0 0 0
									 156.35 L0 157.09 L6.53 157.09 L9.12 162 a0.511935 0.511935 -180 0 0 0.0693 -0.25455 L9.19 156.35
									 Z" class="st7"/>
					</g>
					<g id="shape216-284" v:mID="216" v:groupContext="shape" transform="translate(0.000253651,2.84217E-014)">
						<title>Sheet.216</title>
						<path d="M11.68 161.75 A11.6149 11.6149 0 0 1 11.39 161.92 a0.437107 0.437107 -180 0 0 0.12885 -0.47505 L9.21
									 157.06 a0.547699 0.547699 -180 0 0 -0.4398 -0.2655 L0.2 156.79 a0.175537 0.175537 -180 0 0 -0.1719
									 0.2712 L2.23 161.72 a0.5185 0.5185 -180 0 0 0.42825 0.2712 L11.38 161.99 a0.332841 0.332841
									 -180 0 0 0.297 -0.0825 A1.07388 1.07388 -180 0 0 11.68 161.75 Z" class="st8"/>
					</g>
					<g id="shape217-287" v:mID="217" v:groupContext="shape" transform="translate(0.0625871,-0.144596)">
						<title>Sheet.217</title>
						<path d="M8.77 156.85 L0.2 156.85 a0.173618 0.173618 -180 0 0 -0.19545 0.14655 A313.406 313.406 0 0 1 8.93
									 157.01 A137.265 137.265 0 0 1 11.55 161.92 a0.46976 0.46976 -180 0 0 -0.0117 0.07575 L11.56
									 162 a0.232831 0.232831 -180 0 0 0.1245 -0.0987 a0.365189 0.365189 -180 0 0 -0.03285 -0.11925
									 L9.15 157.03 a0.554407 0.554407 -180 0 0 -0.3858 -0.18945 Z" class="st9"/>
					</g>
					<g id="shape218-289" v:mID="218" v:groupContext="shape" transform="translate(0.00633715,-0.0506961)">
						<title>Sheet.218</title>
						<path d="M8.77 156.85 L0.2 156.85 a0.173618 0.173618 -180 0 0 -0.19545 0.14655 L8.96 156.99 L11.55 161.92
									 a0.453709 0.453709 -180 0 0 -0.0117 0.07575 L11.56 162 a0.233503 0.233503 -180 0 0 0.1245 -0.0987
									 a0.369262 0.369262 -180 0 0 -0.03285 -0.11925 L9.15 157.03 a0.41511 0.41511 -180 0 0 -0.38565
									 -0.18945 Z" class="st10"/>
					</g>
					<g id="shape219-291" v:mID="219" v:groupContext="shape" transform="translate(0.000253651,-0.00701692)">
						<title>Sheet.219</title>
						<path d="M11.73 156.07 a0.517446 0.517446 -180 0 0 -0.5178 -0.51795 L6.4 155.55 A2.39972 2.39972 -180 0 0
									 6.22 155.07 a0.684201 0.684201 -180 0 0 -0.433988 -0.463969 L3.26 154.6 a0.671094 0.671094 -180
									 0 0 -0.437212 0.43125 A3.14901 3.14901 -180 0 0 2.64 155.46 A10.4434 10.4434 -180 0 0 2.54 156.07
									 L2.54 156.8 L0.2 156.8 a0.175537 0.175537 -180 0 0 -0.1719 0.2712 L2.23 161.73 a0.5185 0.5185
									 -180 0 0 0.42825 0.2712 L11.38 162 a0.379891 0.379891 -180 0 0 0.3123 -0.14205 A4923.22 4923.22
									 -180 0 0 11.73 156.07 Z" class="st11"/>
					</g>
				</g>
				<g id="shape220-293" v:mID="220" v:groupContext="shape" transform="translate(56.1626,-29.8116)">
					<title>Sheet.220</title>
					<desc>Folder C</desc>
					<v:textBlock v:margins="rect(4,4,4,4)" v:tabSpace="42.5197"/>
					<v:textRect cx="18.9921" cy="156.9" width="37.99" height="10.2047"/>
					<rect x="0" y="151.797" width="37.9843" height="10.2047" class="st1"/>
					<text x="4" y="160.5" class="st14" v:langID="1033"><v:paragraph/><v:tabList/><tspan class="st15">Folder</tspan><tspan
								class="st15" v:langID="2070"> </tspan><tspan class="st15">C</tspan></text>				</g>
				<g id="shape221-299" v:mID="221" v:groupContext="shape" transform="translate(214.036,132.19) rotate(90)">
					<title>Sheet.221</title>
					<path d="M0 162 L11.34 162" class="st5"/>
				</g>
				<g id="shape222-302" v:mID="222" v:groupContext="shape" transform="translate(54.38,-18.4067)">
					<title>Sheet.222</title>
					<path d="M0 162 L9.64 162" class="st5"/>
				</g>
				<g id="shape223-305" v:mID="223" v:groupContext="shape" transform="translate(72.3501,-14.1732)">
					<title>Sheet.223</title>
					<desc>Folder E</desc>
					<v:textBlock v:margins="rect(4,4,4,4)" v:tabSpace="42.5197"/>
					<v:textRect cx="21.0063" cy="156.9" width="42.02" height="10.2047"/>
					<rect x="0" y="151.797" width="42.0127" height="10.2047" class="st1"/>
					<text x="4" y="160.5" class="st14" v:langID="1033"><v:paragraph/><v:tabList/><tspan class="st15">Folder</tspan><tspan
								class="st15" v:langID="2070"> </tspan><tspan class="st15">E</tspan></text>				</g>
				<g id="shape224-311" v:mID="224" v:groupContext="shape" transform="translate(232.238,146.364) rotate(90)">
					<title>Sheet.224</title>
					<path d="M0 162 L11.34 162" class="st5"/>
				</g>
				<g id="shape225-314" v:mID="225" v:groupContext="shape" transform="translate(72.5817,-4.2335)">
					<title>Sheet.225</title>
					<path d="M0 162 L9.64 162" class="st5"/>
				</g>
				<g id="shape226-317" v:mID="226" v:groupContext="shape" transform="translate(92.5659,2.84217E-014)">
					<title>Sheet.226</title>
					<desc>Document B (Mandatory)</desc>
					<v:textBlock v:margins="rect(4,4,4,4)" v:tabSpace="42.5197"/>
					<v:textRect cx="55.4491" cy="156.9" width="110.9" height="10.2047"/>
					<rect x="0" y="151.797" width="110.898" height="10.2047" class="st1"/>
					<text x="4" y="160.5" class="st16" v:langID="1033"><v:paragraph/><v:tabList/><tspan class="st15">Document B </tspan><tspan
								class="st15">(</tspan><tspan class="st15">Mandatory</tspan><tspan class="st15">)</tspan></text>				</g>
				<g id="group315-324" transform="translate(49.5393,-15.874)" v:mID="315" v:groupContext="group">
					<title>Sheet.315</title>
					<g id="shape316-325" v:mID="316" v:groupContext="shape">
						<title>Sheet.316</title>
						<rect x="0" y="156.804" width="4.99016" height="5.19808" rx="0.708661" ry="0.708661" class="st12"/>
					</g>
					<g id="shape317-327" v:mID="317" v:groupContext="shape" transform="translate(1.03962,-2.59904)">
						<title>Sheet.317</title>
						<path d="M0 162 L2.91 162" class="st13"/>
					</g>
				</g>
				<g id="group334-330" transform="translate(31.3376,-31.5124)" v:mID="334" v:groupContext="group">
					<title>Sheet.334</title>
					<g id="shape335-331" v:mID="335" v:groupContext="shape">
						<title>Sheet.335</title>
						<rect x="0" y="156.804" width="4.99016" height="5.19808" rx="0.708661" ry="0.708661" class="st12"/>
					</g>
					<g id="shape336-333" v:mID="336" v:groupContext="shape" transform="translate(1.03962,-2.59904)">
						<title>Sheet.336</title>
						<path d="M0 162 L2.91 162" class="st13"/>
					</g>
				</g>
				<g id="group272-336" transform="translate(83.9197,-0.175417)" v:mID="272" v:groupContext="group">
					<title>Sheet.272</title>
					<g id="shape273-337" v:mID="273" v:groupContext="shape" transform="translate(-5.4956E-015,-0.00334063)">
						<title>Sheet.273</title>
						<path d="M7.91 154.6 L5.89 152.62 L0 152.63 L0 162 L7.91 162 L7.91 154.9 L7.91 154.9 L7.91 154.6 Z"
								class="st10"/>
					</g>
					<g id="shape274-339" v:mID="274" v:groupContext="shape" transform="translate(0.00792,2.84217E-014)">
						<title>Sheet.274</title>
						<path d="M5.88 152.63 L0 152.63 L0 162 L7.89 162 L7.89 154.6 L5.88 152.63 Z" class="st17"/>
					</g>
					<g id="shape275-342" v:mID="275" v:groupContext="shape" transform="translate(5.7534,-7.3374)">
						<title>Sheet.275</title>
						<path d="M2.15 161.94 L0.13 159.97 L0 159.97 L0 162 L2.15 162 L2.15 161.94 Z" class="st18"/>
					</g>
					<g id="shape276-344" v:mID="276" v:groupContext="shape" transform="translate(5.86752,-7.4514)">
						<title>Sheet.276</title>
						<path d="M0 162 L1.91 162 L0 160.15 L0 162 Z" class="st10"/>
					</g>
					<g id="shape277-346" v:mID="277" v:groupContext="shape" transform="translate(-5.4956E-015,-0.00396)">
						<title>Sheet.277</title>
						<path d="M7.91 154.6 L5.89 152.62 L0 152.63 L0 162 L7.91 162 L7.91 154.9 L7.91 154.9 L7.91 154.6 Z"
								class="st11"/>
					</g>
					<g id="shape278-348" v:mID="278" v:groupContext="shape" transform="translate(0.79104,-7.09656)">
						<title>Sheet.278</title>
						<rect x="0" y="161.916" width="3.66204" height="0.08556" class="st19"/>
					</g>
					<g id="shape279-351" v:mID="279" v:groupContext="shape" transform="translate(0.79104,-6.10356)">
						<title>Sheet.279</title>
						<rect x="0" y="161.916" width="6.02064" height="0.08556" class="st19"/>
					</g>
					<g id="shape280-354" v:mID="280" v:groupContext="shape" transform="translate(0.79104,-5.17248)">
						<title>Sheet.280</title>
						<rect x="0" y="161.916" width="6.02064" height="0.08544" class="st19"/>
					</g>
					<g id="shape281-357" v:mID="281" v:groupContext="shape" transform="translate(0.79104,-4.2414)">
						<title>Sheet.281</title>
						<rect x="0" y="161.916" width="6.02064" height="0.08556" class="st19"/>
					</g>
					<g id="shape282-360" v:mID="282" v:groupContext="shape" transform="translate(0.79104,-3.31032)">
						<title>Sheet.282</title>
						<rect x="0" y="161.916" width="6.02064" height="0.08556" class="st19"/>
					</g>
					<g id="shape283-363" v:mID="283" v:groupContext="shape" transform="translate(0.79104,-2.37936)">
						<title>Sheet.283</title>
						<rect x="0" y="161.916" width="6.02064" height="0.08556" class="st19"/>
					</g>
					<g id="shape284-366" v:mID="284" v:groupContext="shape" transform="translate(0.79104,-1.4484)">
						<title>Sheet.284</title>
						<rect x="0" y="161.916" width="6.02064" height="0.08544" class="st19"/>
					</g>
				</g>
				<g id="group202-369" transform="translate(63.5926,-14.4676)" v:mID="202" v:groupContext="group">
					<title>Sheet.202</title>
					<g id="shape203-370" v:mID="203" v:groupContext="shape" transform="translate(-2.9976E-015,-0.00718152)">
						<title>Sheet.203</title>
						<path d="M11.73 156.07 a0.517446 0.517446 -180 0 0 -0.5178 -0.51795 L6.4 155.55 A2.39972 2.39972 -180 0 0
									 6.22 155.07 a0.684201 0.684201 -180 0 0 -0.433988 -0.463969 L3.26 154.6 a0.671094 0.671094 -180
									 0 0 -0.437212 0.43125 A3.14901 3.14901 -180 0 0 2.64 155.46 A10.4434 10.4434 -180 0 0 2.54 156.07
									 L2.54 156.8 L0.2 156.8 a0.175537 0.175537 -180 0 0 -0.1719 0.2712 L2.23 161.73 a0.5185 0.5185
									 -180 0 0 0.42825 0.2712 L11.38 162 a0.379891 0.379891 -180 0 0 0.3123 -0.14205 A4923.22 4923.22
									 -180 0 0 11.73 156.07 Z" class="st6"/>
					</g>
					<g id="shape204-372" v:mID="204" v:groupContext="shape" transform="translate(2.54014,-0.291596)">
						<title>Sheet.204</title>
						<path d="M9.19 156.35 a0.517446 0.517446 -180 0 0 -0.5178 -0.51795 L3.86 155.84 A2.39972 2.39972 -180 0 0
									 3.68 155.35 a0.684201 0.684201 -180 0 0 -0.433988 -0.463969 L0.72 154.89 a0.671094 0.671094
									 -180 0 0 -0.437213 0.43125 A3.14901 3.14901 -180 0 0 0.1 155.75 A10.4434 10.4434 -180 0 0 0
									 156.35 L0 157.09 L6.53 157.09 L9.12 162 a0.511935 0.511935 -180 0 0 0.0693 -0.25455 L9.19 156.35
									 Z" class="st7"/>
					</g>
					<g id="shape205-375" v:mID="205" v:groupContext="shape" transform="translate(0.000253651,2.84217E-014)">
						<title>Sheet.205</title>
						<path d="M11.68 161.75 A11.6149 11.6149 0 0 1 11.39 161.92 a0.437107 0.437107 -180 0 0 0.12885 -0.47505 L9.21
									 157.06 a0.547699 0.547699 -180 0 0 -0.4398 -0.2655 L0.2 156.79 a0.175537 0.175537 -180 0 0 -0.1719
									 0.2712 L2.23 161.72 a0.5185 0.5185 -180 0 0 0.42825 0.2712 L11.38 161.99 a0.332841 0.332841
									 -180 0 0 0.297 -0.0825 A1.07388 1.07388 -180 0 0 11.68 161.75 Z" class="st8"/>
					</g>
					<g id="shape206-378" v:mID="206" v:groupContext="shape" transform="translate(0.0625871,-0.144596)">
						<title>Sheet.206</title>
						<path d="M8.77 156.85 L0.2 156.85 a0.173618 0.173618 -180 0 0 -0.19545 0.14655 A313.406 313.406 0 0 1 8.93
									 157.01 A137.265 137.265 0 0 1 11.55 161.92 a0.46976 0.46976 -180 0 0 -0.0117 0.07575 L11.56
									 162 a0.232831 0.232831 -180 0 0 0.1245 -0.0987 a0.365189 0.365189 -180 0 0 -0.03285 -0.11925
									 L9.15 157.03 a0.554407 0.554407 -180 0 0 -0.3858 -0.18945 Z" class="st9"/>
					</g>
					<g id="shape207-380" v:mID="207" v:groupContext="shape" transform="translate(0.00633715,-0.0506961)">
						<title>Sheet.207</title>
						<path d="M8.77 156.85 L0.2 156.85 a0.173618 0.173618 -180 0 0 -0.19545 0.14655 L8.96 156.99 L11.55 161.92
									 a0.453709 0.453709 -180 0 0 -0.0117 0.07575 L11.56 162 a0.233503 0.233503 -180 0 0 0.1245 -0.0987
									 a0.369262 0.369262 -180 0 0 -0.03285 -0.11925 L9.15 157.03 a0.41511 0.41511 -180 0 0 -0.38565
									 -0.18945 Z" class="st10"/>
					</g>
					<g id="shape208-382" v:mID="208" v:groupContext="shape" transform="translate(0.000253651,-0.00701692)">
						<title>Sheet.208</title>
						<path d="M11.73 156.07 a0.517446 0.517446 -180 0 0 -0.5178 -0.51795 L6.4 155.55 A2.39972 2.39972 -180 0 0
									 6.22 155.07 a0.684201 0.684201 -180 0 0 -0.433988 -0.463969 L3.26 154.6 a0.671094 0.671094 -180
									 0 0 -0.437212 0.43125 A3.14901 3.14901 -180 0 0 2.64 155.46 A10.4434 10.4434 -180 0 0 2.54 156.07
									 L2.54 156.8 L0.2 156.8 a0.175537 0.175537 -180 0 0 -0.1719 0.2712 L2.23 161.73 a0.5185 0.5185
									 -180 0 0 0.42825 0.2712 L11.38 162 a0.379891 0.379891 -180 0 0 0.3123 -0.14205 A4923.22 4923.22
									 -180 0 0 11.73 156.07 Z" class="st11"/>
					</g>
				</g>
			</g>
		</g>
		<g id="group235-384" transform="translate(18.75,-18.75)" v:mID="235" v:groupContext="group">
			<title>Sheet.235</title>
			<g id="shape227-385" v:mID="227" v:groupContext="shape">
				<title>Sheet.227</title>
				<rect x="0" y="48.6161" width="155.906" height="113.386" rx="2.83465" ry="2.83465" class="st4"/>
			</g>
			<g id="group232-387" transform="translate(7.08661,-5.10236)" v:mID="232" v:groupContext="group">
				<title>Sheet.232</title>
				<g id="shape209-388" v:mID="209" v:groupContext="shape" transform="translate(178.536,69.8281) rotate(90)">
					<title>Sheet.209</title>
					<path d="M0 162 L11.34 162" class="st5"/>
				</g>
				<g id="shape210-391" v:mID="210" v:groupContext="shape" transform="translate(1.44685,-95.2256)">
					<title>Sheet.210</title>
					<path d="M0 162 L9.64 162" class="st5"/>
				</g>
				<g id="group285-394" transform="translate(10.6594,-91.5221)" v:mID="285" v:groupContext="group">
					<title>Sheet.285</title>
					<g id="shape286-395" v:mID="286" v:groupContext="shape" transform="translate(-2.9976E-015,-0.00718152)">
						<title>Sheet.286</title>
						<path d="M11.73 156.07 a0.517446 0.517446 -180 0 0 -0.5178 -0.51795 L6.4 155.55 A2.39972 2.39972 -180 0 0
									 6.22 155.07 a0.684201 0.684201 -180 0 0 -0.433988 -0.463969 L3.26 154.6 a0.671094 0.671094 -180
									 0 0 -0.437212 0.43125 A3.14901 3.14901 -180 0 0 2.64 155.46 A10.4434 10.4434 -180 0 0 2.54 156.07
									 L2.54 156.8 L0.2 156.8 a0.175537 0.175537 -180 0 0 -0.1719 0.2712 L2.23 161.73 a0.5185 0.5185
									 -180 0 0 0.42825 0.2712 L11.38 162 a0.379891 0.379891 -180 0 0 0.3123 -0.14205 A4923.22 4923.22
									 -180 0 0 11.73 156.07 Z" class="st6"/>
					</g>
					<g id="shape300-397" v:mID="300" v:groupContext="shape" transform="translate(2.54014,-0.291596)">
						<title>Sheet.300</title>
						<path d="M9.19 156.35 a0.517446 0.517446 -180 0 0 -0.5178 -0.51795 L3.86 155.84 A2.39972 2.39972 -180 0 0
									 3.68 155.35 a0.684201 0.684201 -180 0 0 -0.433988 -0.463969 L0.72 154.89 a0.671094 0.671094
									 -180 0 0 -0.437213 0.43125 A3.14901 3.14901 -180 0 0 0.1 155.75 A10.4434 10.4434 -180 0 0 0
									 156.35 L0 157.09 L6.53 157.09 L9.12 162 a0.511935 0.511935 -180 0 0 0.0693 -0.25455 L9.19 156.35
									 Z" class="st7"/>
					</g>
					<g id="shape301-400" v:mID="301" v:groupContext="shape" transform="translate(0.000253651,2.84217E-014)">
						<title>Sheet.301</title>
						<path d="M11.68 161.75 A11.6149 11.6149 0 0 1 11.39 161.92 a0.437107 0.437107 -180 0 0 0.12885 -0.47505 L9.21
									 157.06 a0.547699 0.547699 -180 0 0 -0.4398 -0.2655 L0.2 156.79 a0.175537 0.175537 -180 0 0 -0.1719
									 0.2712 L2.23 161.72 a0.5185 0.5185 -180 0 0 0.42825 0.2712 L11.38 161.99 a0.332841 0.332841
									 -180 0 0 0.297 -0.0825 A1.07388 1.07388 -180 0 0 11.68 161.75 Z" class="st8"/>
					</g>
					<g id="shape318-403" v:mID="318" v:groupContext="shape" transform="translate(0.0625871,-0.144596)">
						<title>Sheet.318</title>
						<path d="M8.77 156.85 L0.2 156.85 a0.173618 0.173618 -180 0 0 -0.19545 0.14655 A313.406 313.406 0 0 1 8.93
									 157.01 A137.265 137.265 0 0 1 11.55 161.92 a0.46976 0.46976 -180 0 0 -0.0117 0.07575 L11.56
									 162 a0.232831 0.232831 -180 0 0 0.1245 -0.0987 a0.365189 0.365189 -180 0 0 -0.03285 -0.11925
									 L9.15 157.03 a0.554407 0.554407 -180 0 0 -0.3858 -0.18945 Z" class="st9"/>
					</g>
					<g id="shape319-405" v:mID="319" v:groupContext="shape" transform="translate(0.00633715,-0.0506961)">
						<title>Sheet.319</title>
						<path d="M8.77 156.85 L0.2 156.85 a0.173618 0.173618 -180 0 0 -0.19545 0.14655 L8.96 156.99 L11.55 161.92
									 a0.453709 0.453709 -180 0 0 -0.0117 0.07575 L11.56 162 a0.233503 0.233503 -180 0 0 0.1245 -0.0987
									 a0.369262 0.369262 -180 0 0 -0.03285 -0.11925 L9.15 157.03 a0.41511 0.41511 -180 0 0 -0.38565
									 -0.18945 Z" class="st10"/>
					</g>
					<g id="shape320-407" v:mID="320" v:groupContext="shape" transform="translate(0.000253651,-0.00701692)">
						<title>Sheet.320</title>
						<path d="M11.73 156.07 a0.517446 0.517446 -180 0 0 -0.5178 -0.51795 L6.4 155.55 A2.39972 2.39972 -180 0 0
									 6.22 155.07 a0.684201 0.684201 -180 0 0 -0.433988 -0.463969 L3.26 154.6 a0.671094 0.671094 -180
									 0 0 -0.437212 0.43125 A3.14901 3.14901 -180 0 0 2.64 155.46 A10.4434 10.4434 -180 0 0 2.54 156.07
									 L2.54 156.8 L0.2 156.8 a0.175537 0.175537 -180 0 0 -0.1719 0.2712 L2.23 161.73 a0.5185 0.5185
									 -180 0 0 0.42825 0.2712 L11.38 162 a0.379891 0.379891 -180 0 0 0.3123 -0.14205 A4923.22 4923.22
									 -180 0 0 11.73 156.07 Z" class="st11"/>
					</g>
				</g>
				<g id="group321-409" transform="translate(1.4988E-015,-92.6266)" v:mID="321" v:groupContext="group">
					<title>Sheet.321</title>
					<g id="shape322-410" v:mID="322" v:groupContext="shape">
						<title>Sheet.322</title>
						<rect x="0" y="156.804" width="4.99016" height="5.19808" rx="0.708661" ry="0.708661" class="st12"/>
					</g>
					<g id="shape323-412" v:mID="323" v:groupContext="shape" transform="translate(1.03962,-2.59904)">
						<title>Sheet.323</title>
						<path d="M0 162 L2.91 162" class="st13"/>
					</g>
				</g>
				<g id="shape324-415" v:mID="324" v:groupContext="shape" transform="translate(21.4311,-90.9921)">
					<title>Sheet.324</title>
					<desc>Folder A</desc>
					<v:textBlock v:margins="rect(4,4,4,4)" v:tabSpace="42.5197"/>
					<v:textRect cx="18.9921" cy="156.9" width="37.99" height="10.2047"/>
					<rect x="0" y="151.797" width="37.9843" height="10.2047" class="st1"/>
					<text x="4" y="160.5" class="st14" v:langID="1033"><v:paragraph/><v:tabList/><tspan class="st15">Folder</tspan><tspan
								class="st15" v:langID="2070"> </tspan><tspan class="st15" v:langID="2070">A</tspan></text>				</g>
				<g id="group325-421" transform="translate(14.0391,-78.2362)" v:mID="325" v:groupContext="group">
					<title>Sheet.325</title>
					<g id="shape326-422" v:mID="326" v:groupContext="shape">
						<title>Sheet.326</title>
						<rect x="0" y="156.804" width="4.99016" height="5.19808" rx="0.708661" ry="0.708661" class="st12"/>
					</g>
					<g id="shape327-424" v:mID="327" v:groupContext="shape" transform="translate(1.03962,-2.59904)">
						<title>Sheet.327</title>
						<path d="M0 162 L2.91 162" class="st13"/>
					</g>
				</g>
				<g id="shape328-427" v:mID="328" v:groupContext="shape" transform="translate(18.8799,-80.7689)">
					<title>Sheet.328</title>
					<path d="M0 162 L9.64 162" class="st5"/>
				</g>
				<g id="group329-430" transform="translate(28.0925,-77.0654)" v:mID="329" v:groupContext="group">
					<title>Sheet.329</title>
					<g id="shape330-431" v:mID="330" v:groupContext="shape" transform="translate(-2.9976E-015,-0.00718152)">
						<title>Sheet.330</title>
						<path d="M11.73 156.07 a0.517446 0.517446 -180 0 0 -0.5178 -0.51795 L6.4 155.55 A2.39972 2.39972 -180 0 0
									 6.22 155.07 a0.684201 0.684201 -180 0 0 -0.433988 -0.463969 L3.26 154.6 a0.671094 0.671094 -180
									 0 0 -0.437212 0.43125 A3.14901 3.14901 -180 0 0 2.64 155.46 A10.4434 10.4434 -180 0 0 2.54 156.07
									 L2.54 156.8 L0.2 156.8 a0.175537 0.175537 -180 0 0 -0.1719 0.2712 L2.23 161.73 a0.5185 0.5185
									 -180 0 0 0.42825 0.2712 L11.38 162 a0.379891 0.379891 -180 0 0 0.3123 -0.14205 A4923.22 4923.22
									 -180 0 0 11.73 156.07 Z" class="st6"/>
					</g>
					<g id="shape331-433" v:mID="331" v:groupContext="shape" transform="translate(2.54014,-0.291596)">
						<title>Sheet.331</title>
						<path d="M9.19 156.35 a0.517446 0.517446 -180 0 0 -0.5178 -0.51795 L3.86 155.84 A2.39972 2.39972 -180 0 0
									 3.68 155.35 a0.684201 0.684201 -180 0 0 -0.433988 -0.463969 L0.72 154.89 a0.671094 0.671094
									 -180 0 0 -0.437213 0.43125 A3.14901 3.14901 -180 0 0 0.1 155.75 A10.4434 10.4434 -180 0 0 0
									 156.35 L0 157.09 L6.53 157.09 L9.12 162 a0.511935 0.511935 -180 0 0 0.0693 -0.25455 L9.19 156.35
									 Z" class="st7"/>
					</g>
					<g id="shape332-436" v:mID="332" v:groupContext="shape" transform="translate(0.000253651,2.84217E-014)">
						<title>Sheet.332</title>
						<path d="M11.68 161.75 A11.6149 11.6149 0 0 1 11.39 161.92 a0.437107 0.437107 -180 0 0 0.12885 -0.47505 L9.21
									 157.06 a0.547699 0.547699 -180 0 0 -0.4398 -0.2655 L0.2 156.79 a0.175537 0.175537 -180 0 0 -0.1719
									 0.2712 L2.23 161.72 a0.5185 0.5185 -180 0 0 0.42825 0.2712 L11.38 161.99 a0.332841 0.332841
									 -180 0 0 0.297 -0.0825 A1.07388 1.07388 -180 0 0 11.68 161.75 Z" class="st8"/>
					</g>
					<g id="shape333-439" v:mID="333" v:groupContext="shape" transform="translate(0.0625871,-0.144596)">
						<title>Sheet.333</title>
						<path d="M8.77 156.85 L0.2 156.85 a0.173618 0.173618 -180 0 0 -0.19545 0.14655 A313.406 313.406 0 0 1 8.93
									 157.01 A137.265 137.265 0 0 1 11.55 161.92 a0.46976 0.46976 -180 0 0 -0.0117 0.07575 L11.56
									 162 a0.232831 0.232831 -180 0 0 0.1245 -0.0987 a0.365189 0.365189 -180 0 0 -0.03285 -0.11925
									 L9.15 157.03 a0.554407 0.554407 -180 0 0 -0.3858 -0.18945 Z" class="st9"/>
					</g>
					<g id="shape337-441" v:mID="337" v:groupContext="shape" transform="translate(0.00633715,-0.0506961)">
						<title>Sheet.337</title>
						<path d="M8.77 156.85 L0.2 156.85 a0.173618 0.173618 -180 0 0 -0.19545 0.14655 L8.96 156.99 L11.55 161.92
									 a0.453709 0.453709 -180 0 0 -0.0117 0.07575 L11.56 162 a0.233503 0.233503 -180 0 0 0.1245 -0.0987
									 a0.369262 0.369262 -180 0 0 -0.03285 -0.11925 L9.15 157.03 a0.41511 0.41511 -180 0 0 -0.38565
									 -0.18945 Z" class="st10"/>
					</g>
					<g id="shape338-443" v:mID="338" v:groupContext="shape" transform="translate(0.000253651,-0.00701692)">
						<title>Sheet.338</title>
						<path d="M11.73 156.07 a0.517446 0.517446 -180 0 0 -0.5178 -0.51795 L6.4 155.55 A2.39972 2.39972 -180 0 0
									 6.22 155.07 a0.684201 0.684201 -180 0 0 -0.433988 -0.463969 L3.26 154.6 a0.671094 0.671094 -180
									 0 0 -0.437212 0.43125 A3.14901 3.14901 -180 0 0 2.64 155.46 A10.4434 10.4434 -180 0 0 2.54 156.07
									 L2.54 156.8 L0.2 156.8 a0.175537 0.175537 -180 0 0 -0.1719 0.2712 L2.23 161.73 a0.5185 0.5185
									 -180 0 0 0.42825 0.2712 L11.38 162 a0.379891 0.379891 -180 0 0 0.3123 -0.14205 A4923.22 4923.22
									 -180 0 0 11.73 156.07 Z" class="st11"/>
					</g>
				</g>
				<g id="shape339-445" v:mID="339" v:groupContext="shape" transform="translate(38.8642,-76.5354)">
					<title>Sheet.339</title>
					<desc>Folder B</desc>
					<v:textBlock v:margins="rect(4,4,4,4)" v:tabSpace="42.5197"/>
					<v:textRect cx="18.9921" cy="156.9" width="37.99" height="10.2047"/>
					<rect x="0" y="151.797" width="37.9843" height="10.2047" class="st1"/>
					<text x="4" y="160.5" class="st14" v:langID="1033"><v:paragraph/><v:tabList/><tspan class="st15">Folder</tspan><tspan
								class="st15" v:langID="2070"> </tspan><tspan class="st15">B</tspan></text>				</g>
				<g id="shape340-451" v:mID="340" v:groupContext="shape" transform="translate(195.835,85.4186) rotate(90)">
					<title>Sheet.340</title>
					<path d="M0 162 L11.34 162" class="st5"/>
				</g>
				<g id="shape341-454" v:mID="341" v:groupContext="shape" transform="translate(36.1784,-65.1784)">
					<title>Sheet.341</title>
					<path d="M0 162 L9.64 162" class="st5"/>
				</g>
				<g id="group342-457" transform="translate(45.391,-61.4749)" v:mID="342" v:groupContext="group">
					<title>Sheet.342</title>
					<g id="shape343-458" v:mID="343" v:groupContext="shape" transform="translate(-2.9976E-015,-0.00718152)">
						<title>Sheet.343</title>
						<path d="M11.73 156.07 a0.517446 0.517446 -180 0 0 -0.5178 -0.51795 L6.4 155.55 A2.39972 2.39972 -180 0 0
									 6.22 155.07 a0.684201 0.684201 -180 0 0 -0.433988 -0.463969 L3.26 154.6 a0.671094 0.671094 -180
									 0 0 -0.437212 0.43125 A3.14901 3.14901 -180 0 0 2.64 155.46 A10.4434 10.4434 -180 0 0 2.54 156.07
									 L2.54 156.8 L0.2 156.8 a0.175537 0.175537 -180 0 0 -0.1719 0.2712 L2.23 161.73 a0.5185 0.5185
									 -180 0 0 0.42825 0.2712 L11.38 162 a0.379891 0.379891 -180 0 0 0.3123 -0.14205 A4923.22 4923.22
									 -180 0 0 11.73 156.07 Z" class="st6"/>
					</g>
					<g id="shape344-460" v:mID="344" v:groupContext="shape" transform="translate(2.54014,-0.291596)">
						<title>Sheet.344</title>
						<path d="M9.19 156.35 a0.517446 0.517446 -180 0 0 -0.5178 -0.51795 L3.86 155.84 A2.39972 2.39972 -180 0 0
									 3.68 155.35 a0.684201 0.684201 -180 0 0 -0.433988 -0.463969 L0.72 154.89 a0.671094 0.671094
									 -180 0 0 -0.437213 0.43125 A3.14901 3.14901 -180 0 0 0.1 155.75 A10.4434 10.4434 -180 0 0 0
									 156.35 L0 157.09 L6.53 157.09 L9.12 162 a0.511935 0.511935 -180 0 0 0.0693 -0.25455 L9.19 156.35
									 Z" class="st7"/>
					</g>
					<g id="shape345-463" v:mID="345" v:groupContext="shape" transform="translate(0.000253651,2.84217E-014)">
						<title>Sheet.345</title>
						<path d="M11.68 161.75 A11.6149 11.6149 0 0 1 11.39 161.92 a0.437107 0.437107 -180 0 0 0.12885 -0.47505 L9.21
									 157.06 a0.547699 0.547699 -180 0 0 -0.4398 -0.2655 L0.2 156.79 a0.175537 0.175537 -180 0 0 -0.1719
									 0.2712 L2.23 161.72 a0.5185 0.5185 -180 0 0 0.42825 0.2712 L11.38 161.99 a0.332841 0.332841
									 -180 0 0 0.297 -0.0825 A1.07388 1.07388 -180 0 0 11.68 161.75 Z" class="st8"/>
					</g>
					<g id="shape346-466" v:mID="346" v:groupContext="shape" transform="translate(0.0625871,-0.144596)">
						<title>Sheet.346</title>
						<path d="M8.77 156.85 L0.2 156.85 a0.173618 0.173618 -180 0 0 -0.19545 0.14655 A313.406 313.406 0 0 1 8.93
									 157.01 A137.265 137.265 0 0 1 11.55 161.92 a0.46976 0.46976 -180 0 0 -0.0117 0.07575 L11.56
									 162 a0.232831 0.232831 -180 0 0 0.1245 -0.0987 a0.365189 0.365189 -180 0 0 -0.03285 -0.11925
									 L9.15 157.03 a0.554407 0.554407 -180 0 0 -0.3858 -0.18945 Z" class="st9"/>
					</g>
					<g id="shape347-468" v:mID="347" v:groupContext="shape" transform="translate(0.00633715,-0.0506961)">
						<title>Sheet.347</title>
						<path d="M8.77 156.85 L0.2 156.85 a0.173618 0.173618 -180 0 0 -0.19545 0.14655 L8.96 156.99 L11.55 161.92
									 a0.453709 0.453709 -180 0 0 -0.0117 0.07575 L11.56 162 a0.233503 0.233503 -180 0 0 0.1245 -0.0987
									 a0.369262 0.369262 -180 0 0 -0.03285 -0.11925 L9.15 157.03 a0.41511 0.41511 -180 0 0 -0.38565
									 -0.18945 Z" class="st10"/>
					</g>
					<g id="shape348-470" v:mID="348" v:groupContext="shape" transform="translate(0.000253651,-0.00701692)">
						<title>Sheet.348</title>
						<path d="M11.73 156.07 a0.517446 0.517446 -180 0 0 -0.5178 -0.51795 L6.4 155.55 A2.39972 2.39972 -180 0 0
									 6.22 155.07 a0.684201 0.684201 -180 0 0 -0.433988 -0.463969 L3.26 154.6 a0.671094 0.671094 -180
									 0 0 -0.437212 0.43125 A3.14901 3.14901 -180 0 0 2.64 155.46 A10.4434 10.4434 -180 0 0 2.54 156.07
									 L2.54 156.8 L0.2 156.8 a0.175537 0.175537 -180 0 0 -0.1719 0.2712 L2.23 161.73 a0.5185 0.5185
									 -180 0 0 0.42825 0.2712 L11.38 162 a0.379891 0.379891 -180 0 0 0.3123 -0.14205 A4923.22 4923.22
									 -180 0 0 11.73 156.07 Z" class="st11"/>
					</g>
				</g>
				<g id="shape349-472" v:mID="349" v:groupContext="shape" transform="translate(56.1626,-60.9449)">
					<title>Sheet.349</title>
					<desc>Folder C (Optional)</desc>
					<v:textBlock v:margins="rect(4,4,4,4)" v:tabSpace="42.5197"/>
					<v:textRect cx="48.4541" cy="156.9" width="96.91" height="10.2047"/>
					<rect x="0" y="151.797" width="96.9082" height="10.2047" class="st1"/>
					<text x="4" y="160.5" class="st16" v:langID="1033"><v:paragraph/><v:tabList/><tspan class="st15">Folder</tspan><tspan
								class="st15" v:langID="2070"> </tspan><tspan class="st15">C </tspan><tspan class="st15">(</tspan><tspan
								class="st15">Optional</tspan><tspan class="st15">)</tspan></text>				</g>
				<g id="shape350-481" v:mID="350" v:groupContext="shape" transform="translate(214.036,101.057) rotate(90)">
					<title>Sheet.350</title>
					<path d="M0 162 L11.34 162" class="st5"/>
				</g>
				<g id="shape351-484" v:mID="351" v:groupContext="shape" transform="translate(54.38,-49.54)">
					<title>Sheet.351</title>
					<path d="M0 162 L9.64 162" class="st5"/>
				</g>
				<g id="shape352-487" v:mID="352" v:groupContext="shape" transform="translate(72.3501,-45.3065)">
					<title>Sheet.352</title>
					<desc>Folder D</desc>
					<v:textBlock v:margins="rect(4,4,4,4)" v:tabSpace="42.5197"/>
					<v:textRect cx="21.0063" cy="156.9" width="42.02" height="10.2047"/>
					<rect x="0" y="151.797" width="42.0127" height="10.2047" class="st1"/>
					<text x="4" y="160.5" class="st14" v:langID="1033"><v:paragraph/><v:tabList/><tspan class="st15">Folder</tspan><tspan
								class="st15" v:langID="2070"> </tspan><tspan class="st15">D</tspan></text>				</g>
				<g id="shape353-493" v:mID="353" v:groupContext="shape" transform="translate(232.238,115.23) rotate(90)">
					<title>Sheet.353</title>
					<path d="M0 162 L11.34 162" class="st5"/>
				</g>
				<g id="shape354-496" v:mID="354" v:groupContext="shape" transform="translate(72.5817,-35.3667)">
					<title>Sheet.354</title>
					<path d="M0 162 L9.64 162" class="st5"/>
				</g>
				<g id="shape355-499" v:mID="355" v:groupContext="shape" transform="translate(92.5659,-31.1332)">
					<title>Sheet.355</title>
					<desc>Document A</desc>
					<v:textBlock v:margins="rect(4,4,4,4)" v:tabSpace="42.5197"/>
					<v:textRect cx="29.622" cy="156.9" width="59.25" height="10.2047"/>
					<rect x="0" y="151.797" width="59.2441" height="10.2047" class="st1"/>
					<text x="4" y="160.5" class="st14" v:langID="1033"><v:paragraph/><v:tabList/><tspan class="st15">Document A</tspan></text>				</g>
				<g id="shape356-503" v:mID="356" v:groupContext="shape" transform="translate(214.036,111.923) rotate(90)">
					<title>Sheet.356</title>
					<path d="M0 162 L31.61 162" class="st5"/>
				</g>
				<g id="group357-506" transform="translate(49.5393,-15.874)" v:mID="357" v:groupContext="group">
					<title>Sheet.357</title>
					<g id="shape358-507" v:mID="358" v:groupContext="shape">
						<title>Sheet.358</title>
						<rect x="0" y="156.804" width="4.99016" height="5.19808" rx="0.708661" ry="0.708661" class="st12"/>
					</g>
					<g id="shape359-509" v:mID="359" v:groupContext="shape" transform="translate(1.03962,-2.59904)">
						<title>Sheet.359</title>
						<path d="M0 162 L2.91 162" class="st13"/>
					</g>
				</g>
				<g id="shape360-512" v:mID="360" v:groupContext="shape" transform="translate(54.38,-18.4067)">
					<title>Sheet.360</title>
					<path d="M0 162 L9.64 162" class="st5"/>
				</g>
				<g id="group361-515" transform="translate(63.5926,-14.7032)" v:mID="361" v:groupContext="group">
					<title>Sheet.361</title>
					<g id="shape362-516" v:mID="362" v:groupContext="shape" transform="translate(-2.9976E-015,-0.00718152)">
						<title>Sheet.362</title>
						<path d="M11.73 156.07 a0.517446 0.517446 -180 0 0 -0.5178 -0.51795 L6.4 155.55 A2.39972 2.39972 -180 0 0
									 6.22 155.07 a0.684201 0.684201 -180 0 0 -0.433988 -0.463969 L3.26 154.6 a0.671094 0.671094 -180
									 0 0 -0.437212 0.43125 A3.14901 3.14901 -180 0 0 2.64 155.46 A10.4434 10.4434 -180 0 0 2.54 156.07
									 L2.54 156.8 L0.2 156.8 a0.175537 0.175537 -180 0 0 -0.1719 0.2712 L2.23 161.73 a0.5185 0.5185
									 -180 0 0 0.42825 0.2712 L11.38 162 a0.379891 0.379891 -180 0 0 0.3123 -0.14205 A4923.22 4923.22
									 -180 0 0 11.73 156.07 Z" class="st6"/>
					</g>
					<g id="shape363-518" v:mID="363" v:groupContext="shape" transform="translate(2.54014,-0.291596)">
						<title>Sheet.363</title>
						<path d="M9.19 156.35 a0.517446 0.517446 -180 0 0 -0.5178 -0.51795 L3.86 155.84 A2.39972 2.39972 -180 0 0
									 3.68 155.35 a0.684201 0.684201 -180 0 0 -0.433988 -0.463969 L0.72 154.89 a0.671094 0.671094
									 -180 0 0 -0.437213 0.43125 A3.14901 3.14901 -180 0 0 0.1 155.75 A10.4434 10.4434 -180 0 0 0
									 156.35 L0 157.09 L6.53 157.09 L9.12 162 a0.511935 0.511935 -180 0 0 0.0693 -0.25455 L9.19 156.35
									 Z" class="st7"/>
					</g>
					<g id="shape364-521" v:mID="364" v:groupContext="shape" transform="translate(0.000253651,2.84217E-014)">
						<title>Sheet.364</title>
						<path d="M11.68 161.75 A11.6149 11.6149 0 0 1 11.39 161.92 a0.437107 0.437107 -180 0 0 0.12885 -0.47505 L9.21
									 157.06 a0.547699 0.547699 -180 0 0 -0.4398 -0.2655 L0.2 156.79 a0.175537 0.175537 -180 0 0 -0.1719
									 0.2712 L2.23 161.72 a0.5185 0.5185 -180 0 0 0.42825 0.2712 L11.38 161.99 a0.332841 0.332841
									 -180 0 0 0.297 -0.0825 A1.07388 1.07388 -180 0 0 11.68 161.75 Z" class="st8"/>
					</g>
					<g id="shape365-524" v:mID="365" v:groupContext="shape" transform="translate(0.0625871,-0.144596)">
						<title>Sheet.365</title>
						<path d="M8.77 156.85 L0.2 156.85 a0.173618 0.173618 -180 0 0 -0.19545 0.14655 A313.406 313.406 0 0 1 8.93
									 157.01 A137.265 137.265 0 0 1 11.55 161.92 a0.46976 0.46976 -180 0 0 -0.0117 0.07575 L11.56
									 162 a0.232831 0.232831 -180 0 0 0.1245 -0.0987 a0.365189 0.365189 -180 0 0 -0.03285 -0.11925
									 L9.15 157.03 a0.554407 0.554407 -180 0 0 -0.3858 -0.18945 Z" class="st9"/>
					</g>
					<g id="shape366-526" v:mID="366" v:groupContext="shape" transform="translate(0.00633715,-0.0506961)">
						<title>Sheet.366</title>
						<path d="M8.77 156.85 L0.2 156.85 a0.173618 0.173618 -180 0 0 -0.19545 0.14655 L8.96 156.99 L11.55 161.92
									 a0.453709 0.453709 -180 0 0 -0.0117 0.07575 L11.56 162 a0.233503 0.233503 -180 0 0 0.1245 -0.0987
									 a0.369262 0.369262 -180 0 0 -0.03285 -0.11925 L9.15 157.03 a0.41511 0.41511 -180 0 0 -0.38565
									 -0.18945 Z" class="st10"/>
					</g>
					<g id="shape367-528" v:mID="367" v:groupContext="shape" transform="translate(0.000253651,-0.00701692)">
						<title>Sheet.367</title>
						<path d="M11.73 156.07 a0.517446 0.517446 -180 0 0 -0.5178 -0.51795 L6.4 155.55 A2.39972 2.39972 -180 0 0
									 6.22 155.07 a0.684201 0.684201 -180 0 0 -0.433988 -0.463969 L3.26 154.6 a0.671094 0.671094 -180
									 0 0 -0.437212 0.43125 A3.14901 3.14901 -180 0 0 2.64 155.46 A10.4434 10.4434 -180 0 0 2.54 156.07
									 L2.54 156.8 L0.2 156.8 a0.175537 0.175537 -180 0 0 -0.1719 0.2712 L2.23 161.73 a0.5185 0.5185
									 -180 0 0 0.42825 0.2712 L11.38 162 a0.379891 0.379891 -180 0 0 0.3123 -0.14205 A4923.22 4923.22
									 -180 0 0 11.73 156.07 Z" class="st11"/>
					</g>
				</g>
				<g id="shape368-530" v:mID="368" v:groupContext="shape" transform="translate(74.3643,-14.1732)">
					<title>Sheet.368</title>
					<desc>Folder E</desc>
					<v:textBlock v:margins="rect(4,4,4,4)" v:tabSpace="42.5197"/>
					<v:textRect cx="18.9921" cy="156.9" width="37.99" height="10.2047"/>
					<rect x="0" y="151.797" width="37.9843" height="10.2047" class="st1"/>
					<text x="4" y="160.5" class="st14" v:langID="1033"><v:paragraph/><v:tabList/><tspan class="st15">Folder</tspan><tspan
								class="st15" v:langID="2070"> </tspan><tspan class="st15">E</tspan></text>				</g>
				<g id="shape369-536" v:mID="369" v:groupContext="shape" transform="translate(231.268,146.364) rotate(90)">
					<title>Sheet.369</title>
					<path d="M0 162 L11.34 162" class="st5"/>
				</g>
				<g id="shape370-539" v:mID="370" v:groupContext="shape" transform="translate(71.6115,-4.2335)">
					<title>Sheet.370</title>
					<path d="M0 162 L9.64 162" class="st5"/>
				</g>
				<g id="shape371-542" v:mID="371" v:groupContext="shape" transform="translate(92.5659,2.84217E-014)">
					<title>Sheet.371</title>
					<desc>Document B</desc>
					<v:textBlock v:margins="rect(4,4,4,4)" v:tabSpace="42.5197"/>
					<v:textRect cx="26.5639" cy="156.9" width="53.13" height="10.2047"/>
					<rect x="0" y="151.797" width="53.1277" height="10.2047" class="st1"/>
					<text x="4" y="160.5" class="st14" v:langID="1033"><v:paragraph/><v:tabList/><tspan class="st15">Document B</tspan></text>				</g>
				<g id="group401-546" transform="translate(83.9197,-0.127558)" v:mID="401" v:groupContext="group">
					<title>Sheet.401</title>
					<g id="shape402-547" v:mID="402" v:groupContext="shape" transform="translate(-5.4956E-015,-0.00334063)">
						<title>Sheet.402</title>
						<path d="M7.91 154.6 L5.89 152.62 L0 152.63 L0 162 L7.91 162 L7.91 154.9 L7.91 154.9 L7.91 154.6 Z"
								class="st10"/>
					</g>
					<g id="shape403-549" v:mID="403" v:groupContext="shape" transform="translate(0.00792,2.84217E-014)">
						<title>Sheet.403</title>
						<path d="M5.88 152.63 L0 152.63 L0 162 L7.89 162 L7.89 154.6 L5.88 152.63 Z" class="st17"/>
					</g>
					<g id="shape404-552" v:mID="404" v:groupContext="shape" transform="translate(5.7534,-7.3374)">
						<title>Sheet.404</title>
						<path d="M2.15 161.94 L0.13 159.97 L0 159.97 L0 162 L2.15 162 L2.15 161.94 Z" class="st18"/>
					</g>
					<g id="shape405-554" v:mID="405" v:groupContext="shape" transform="translate(5.86752,-7.4514)">
						<title>Sheet.405</title>
						<path d="M0 162 L1.91 162 L0 160.15 L0 162 Z" class="st10"/>
					</g>
					<g id="shape406-556" v:mID="406" v:groupContext="shape" transform="translate(-5.4956E-015,-0.00396)">
						<title>Sheet.406</title>
						<path d="M7.91 154.6 L5.89 152.62 L0 152.63 L0 162 L7.91 162 L7.91 154.9 L7.91 154.9 L7.91 154.6 Z"
								class="st11"/>
					</g>
					<g id="shape407-558" v:mID="407" v:groupContext="shape" transform="translate(0.79104,-7.09656)">
						<title>Sheet.407</title>
						<rect x="0" y="161.916" width="3.66204" height="0.08556" class="st19"/>
					</g>
					<g id="shape408-561" v:mID="408" v:groupContext="shape" transform="translate(0.79104,-6.10356)">
						<title>Sheet.408</title>
						<rect x="0" y="161.916" width="6.02064" height="0.08556" class="st19"/>
					</g>
					<g id="shape409-564" v:mID="409" v:groupContext="shape" transform="translate(0.79104,-5.17248)">
						<title>Sheet.409</title>
						<rect x="0" y="161.916" width="6.02064" height="0.08544" class="st19"/>
					</g>
					<g id="shape410-567" v:mID="410" v:groupContext="shape" transform="translate(0.79104,-4.2414)">
						<title>Sheet.410</title>
						<rect x="0" y="161.916" width="6.02064" height="0.08556" class="st19"/>
					</g>
					<g id="shape411-570" v:mID="411" v:groupContext="shape" transform="translate(0.79104,-3.31032)">
						<title>Sheet.411</title>
						<rect x="0" y="161.916" width="6.02064" height="0.08556" class="st19"/>
					</g>
					<g id="shape412-573" v:mID="412" v:groupContext="shape" transform="translate(0.79104,-2.37936)">
						<title>Sheet.412</title>
						<rect x="0" y="161.916" width="6.02064" height="0.08556" class="st19"/>
					</g>
					<g id="shape413-576" v:mID="413" v:groupContext="shape" transform="translate(0.79104,-1.4484)">
						<title>Sheet.413</title>
						<rect x="0" y="161.916" width="6.02064" height="0.08544" class="st19"/>
					</g>
				</g>
				<g id="group414-579" transform="translate(49.5393,-47.0073)" v:mID="414" v:groupContext="group">
					<title>Sheet.414</title>
					<g id="shape415-580" v:mID="415" v:groupContext="shape">
						<title>Sheet.415</title>
						<rect x="0" y="156.804" width="4.99016" height="5.19808" rx="0.708661" ry="0.708661" class="st12"/>
					</g>
					<g id="shape416-582" v:mID="416" v:groupContext="shape" transform="translate(1.03962,-2.59904)">
						<title>Sheet.416</title>
						<path d="M0 162 L2.91 162" class="st13"/>
					</g>
				</g>
				<g id="group417-585" transform="translate(31.3376,-62.6457)" v:mID="417" v:groupContext="group">
					<title>Sheet.417</title>
					<g id="shape418-586" v:mID="418" v:groupContext="shape">
						<title>Sheet.418</title>
						<rect x="0" y="156.804" width="4.99016" height="5.19808" rx="0.708661" ry="0.708661" class="st12"/>
					</g>
					<g id="shape419-588" v:mID="419" v:groupContext="shape" transform="translate(1.03962,-2.59904)">
						<title>Sheet.419</title>
						<path d="M0 162 L2.91 162" class="st13"/>
					</g>
				</g>
				<g id="group433-591" transform="translate(83.9197,-31.3087)" v:mID="433" v:groupContext="group">
					<title>Sheet.433</title>
					<g id="shape434-592" v:mID="434" v:groupContext="shape" transform="translate(-5.4956E-015,-0.00334063)">
						<title>Sheet.434</title>
						<path d="M7.91 154.6 L5.89 152.62 L0 152.63 L0 162 L7.91 162 L7.91 154.9 L7.91 154.9 L7.91 154.6 Z"
								class="st10"/>
					</g>
					<g id="shape435-594" v:mID="435" v:groupContext="shape" transform="translate(0.00792,2.84217E-014)">
						<title>Sheet.435</title>
						<path d="M5.88 152.63 L0 152.63 L0 162 L7.89 162 L7.89 154.6 L5.88 152.63 Z" class="st17"/>
					</g>
					<g id="shape436-597" v:mID="436" v:groupContext="shape" transform="translate(5.7534,-7.3374)">
						<title>Sheet.436</title>
						<path d="M2.15 161.94 L0.13 159.97 L0 159.97 L0 162 L2.15 162 L2.15 161.94 Z" class="st18"/>
					</g>
					<g id="shape437-599" v:mID="437" v:groupContext="shape" transform="translate(5.86752,-7.4514)">
						<title>Sheet.437</title>
						<path d="M0 162 L1.91 162 L0 160.15 L0 162 Z" class="st10"/>
					</g>
					<g id="shape438-601" v:mID="438" v:groupContext="shape" transform="translate(-5.4956E-015,-0.00396)">
						<title>Sheet.438</title>
						<path d="M7.91 154.6 L5.89 152.62 L0 152.63 L0 162 L7.91 162 L7.91 154.9 L7.91 154.9 L7.91 154.6 Z"
								class="st11"/>
					</g>
					<g id="shape439-603" v:mID="439" v:groupContext="shape" transform="translate(0.79104,-7.09656)">
						<title>Sheet.439</title>
						<rect x="0" y="161.916" width="3.66204" height="0.08556" class="st19"/>
					</g>
					<g id="shape440-606" v:mID="440" v:groupContext="shape" transform="translate(0.79104,-6.10356)">
						<title>Sheet.440</title>
						<rect x="0" y="161.916" width="6.02064" height="0.08556" class="st19"/>
					</g>
					<g id="shape441-609" v:mID="441" v:groupContext="shape" transform="translate(0.79104,-5.17248)">
						<title>Sheet.441</title>
						<rect x="0" y="161.916" width="6.02064" height="0.08544" class="st19"/>
					</g>
					<g id="shape442-612" v:mID="442" v:groupContext="shape" transform="translate(0.79104,-4.2414)">
						<title>Sheet.442</title>
						<rect x="0" y="161.916" width="6.02064" height="0.08556" class="st19"/>
					</g>
					<g id="shape443-615" v:mID="443" v:groupContext="shape" transform="translate(0.79104,-3.31032)">
						<title>Sheet.443</title>
						<rect x="0" y="161.916" width="6.02064" height="0.08556" class="st19"/>
					</g>
					<g id="shape444-618" v:mID="444" v:groupContext="shape" transform="translate(0.79104,-2.37936)">
						<title>Sheet.444</title>
						<rect x="0" y="161.916" width="6.02064" height="0.08556" class="st19"/>
					</g>
					<g id="shape445-621" v:mID="445" v:groupContext="shape" transform="translate(0.79104,-1.4484)">
						<title>Sheet.445</title>
						<rect x="0" y="161.916" width="6.02064" height="0.08544" class="st19"/>
					</g>
				</g>
				<g id="group446-624" transform="translate(63.5926,-45.6009)" v:mID="446" v:groupContext="group">
					<title>Sheet.446</title>
					<g id="shape447-625" v:mID="447" v:groupContext="shape" transform="translate(-2.9976E-015,-0.00718152)">
						<title>Sheet.447</title>
						<path d="M11.73 156.07 a0.517446 0.517446 -180 0 0 -0.5178 -0.51795 L6.4 155.55 A2.39972 2.39972 -180 0 0
									 6.22 155.07 a0.684201 0.684201 -180 0 0 -0.433988 -0.463969 L3.26 154.6 a0.671094 0.671094 -180
									 0 0 -0.437212 0.43125 A3.14901 3.14901 -180 0 0 2.64 155.46 A10.4434 10.4434 -180 0 0 2.54 156.07
									 L2.54 156.8 L0.2 156.8 a0.175537 0.175537 -180 0 0 -0.1719 0.2712 L2.23 161.73 a0.5185 0.5185
									 -180 0 0 0.42825 0.2712 L11.38 162 a0.379891 0.379891 -180 0 0 0.3123 -0.14205 A4923.22 4923.22
									 -180 0 0 11.73 156.07 Z" class="st6"/>
					</g>
					<g id="shape448-627" v:mID="448" v:groupContext="shape" transform="translate(2.54014,-0.291596)">
						<title>Sheet.448</title>
						<path d="M9.19 156.35 a0.517446 0.517446 -180 0 0 -0.5178 -0.51795 L3.86 155.84 A2.39972 2.39972 -180 0 0
									 3.68 155.35 a0.684201 0.684201 -180 0 0 -0.433988 -0.463969 L0.72 154.89 a0.671094 0.671094
									 -180 0 0 -0.437213 0.43125 A3.14901 3.14901 -180 0 0 0.1 155.75 A10.4434 10.4434 -180 0 0 0
									 156.35 L0 157.09 L6.53 157.09 L9.12 162 a0.511935 0.511935 -180 0 0 0.0693 -0.25455 L9.19 156.35
									 Z" class="st7"/>
					</g>
					<g id="shape449-630" v:mID="449" v:groupContext="shape" transform="translate(0.000253651,2.84217E-014)">
						<title>Sheet.449</title>
						<path d="M11.68 161.75 A11.6149 11.6149 0 0 1 11.39 161.92 a0.437107 0.437107 -180 0 0 0.12885 -0.47505 L9.21
									 157.06 a0.547699 0.547699 -180 0 0 -0.4398 -0.2655 L0.2 156.79 a0.175537 0.175537 -180 0 0 -0.1719
									 0.2712 L2.23 161.72 a0.5185 0.5185 -180 0 0 0.42825 0.2712 L11.38 161.99 a0.332841 0.332841
									 -180 0 0 0.297 -0.0825 A1.07388 1.07388 -180 0 0 11.68 161.75 Z" class="st8"/>
					</g>
					<g id="shape450-633" v:mID="450" v:groupContext="shape" transform="translate(0.0625871,-0.144596)">
						<title>Sheet.450</title>
						<path d="M8.77 156.85 L0.2 156.85 a0.173618 0.173618 -180 0 0 -0.19545 0.14655 A313.406 313.406 0 0 1 8.93
									 157.01 A137.265 137.265 0 0 1 11.55 161.92 a0.46976 0.46976 -180 0 0 -0.0117 0.07575 L11.56
									 162 a0.232831 0.232831 -180 0 0 0.1245 -0.0987 a0.365189 0.365189 -180 0 0 -0.03285 -0.11925
									 L9.15 157.03 a0.554407 0.554407 -180 0 0 -0.3858 -0.18945 Z" class="st9"/>
					</g>
					<g id="shape451-635" v:mID="451" v:groupContext="shape" transform="translate(0.00633715,-0.0506961)">
						<title>Sheet.451</title>
						<path d="M8.77 156.85 L0.2 156.85 a0.173618 0.173618 -180 0 0 -0.19545 0.14655 L8.96 156.99 L11.55 161.92
									 a0.453709 0.453709 -180 0 0 -0.0117 0.07575 L11.56 162 a0.233503 0.233503 -180 0 0 0.1245 -0.0987
									 a0.369262 0.369262 -180 0 0 -0.03285 -0.11925 L9.15 157.03 a0.41511 0.41511 -180 0 0 -0.38565
									 -0.18945 Z" class="st10"/>
					</g>
					<g id="shape452-637" v:mID="452" v:groupContext="shape" transform="translate(0.000253651,-0.00701692)">
						<title>Sheet.452</title>
						<path d="M11.73 156.07 a0.517446 0.517446 -180 0 0 -0.5178 -0.51795 L6.4 155.55 A2.39972 2.39972 -180 0 0
									 6.22 155.07 a0.684201 0.684201 -180 0 0 -0.433988 -0.463969 L3.26 154.6 a0.671094 0.671094 -180
									 0 0 -0.437212 0.43125 A3.14901 3.14901 -180 0 0 2.64 155.46 A10.4434 10.4434 -180 0 0 2.54 156.07
									 L2.54 156.8 L0.2 156.8 a0.175537 0.175537 -180 0 0 -0.1719 0.2712 L2.23 161.73 a0.5185 0.5185
									 -180 0 0 0.42825 0.2712 L11.38 162 a0.379891 0.379891 -180 0 0 0.3123 -0.14205 A4923.22 4923.22
									 -180 0 0 11.73 156.07 Z" class="st11"/>
					</g>
				</g>
			</g>
		</g>
	</g>
</svg>
