<?xml version="1.0" encoding="UTF-8" standalone="no"?>
<!DOCTYPE svg PUBLIC "-//W3C//DTD SVG 1.0//EN" "http://www.w3.org/TR/2001/REC-SVG-20010904/DTD/svg10.dtd">
<!-- Generated by Microsoft Visio 11.0, SVG Export, v1.0 knowledge-attribution-by-user-context.svg knowledge-attribution-by-user-context -->
<svg xmlns="http://www.w3.org/2000/svg" xmlns:xlink="http://www.w3.org/1999/xlink" xmlns:ev="http://www.w3.org/2001/xml-events"
		xmlns:v="http://schemas.microsoft.com/visio/2003/SVGExtensions/" width="6.82005in" height="3.6159in"
		viewBox="0 0 491.043 260.344" xml:space="preserve" color-interpolation-filters="sRGB" class="st37">
	<v:documentProperties v:langID="1033" v:metric="true" v:viewMarkup="false">
		<v:userDefs>
			<v:ud v:nameU="msvNoAutoConnect" v:val="VT0(1):26"/>
		</v:userDefs>
	</v:documentProperties>

	<style type="text/css">
	<![CDATA[
		.st1 {fill:url(#grad34-4);stroke:#000000;stroke-dasharray:5.25,3.75;stroke-linecap:round;stroke-linejoin:round;stroke-width:0.75}
		.st2 {fill:#f7f6f3;stroke:#000000;stroke-dasharray:5.25,3.75;stroke-linecap:round;stroke-linejoin:round;stroke-width:0.75}
		.st3 {marker-end:url(#mrkr4-14);stroke:#000000;stroke-dasharray:3.6,3.6;stroke-linecap:round;stroke-linejoin:round;stroke-width:1.2}
		.st4 {fill:#000000;fill-opacity:1;stroke:#000000;stroke-opacity:1;stroke-width:0.32258064516129}
		.st5 {fill:#000000;font-family:Georgia;font-size:0.666664em}
		.st6 {font-size:1em}
		.st7 {fill:#dcd2b8;fill-opacity:0.65}
		.st8 {fill:url(#grad30-35)}
		.st9 {stroke:#ffffff;stroke-linecap:round;stroke-linejoin:round;stroke-width:0.36}
		.st10 {fill:url(#grad32-40)}
		.st11 {fill:url(#grad31-47);stroke:#ffffff;stroke-linecap:round;stroke-linejoin:round;stroke-width:0.36}
		.st12 {stroke:#000000;stroke-linecap:round;stroke-linejoin:round;stroke-width:1}
		.st13 {fill:url(#grad31-56);stroke:#000000;stroke-linecap:round;stroke-linejoin:round;stroke-width:0.36}
		.st14 {stroke:#000000;stroke-linecap:round;stroke-linejoin:round;stroke-width:0.6}
		.st15 {fill:#000000;stroke:#000000;stroke-linecap:round;stroke-linejoin:round;stroke-width:0.36}
		.st16 {fill:url(#grad34-72);stroke:#ffffff;stroke-linecap:round;stroke-linejoin:round;stroke-width:0.12}
		.st17 {fill:url(#grad35-77);stroke:none;stroke-linecap:round;stroke-linejoin:round;stroke-width:0.12}
		.st18 {fill:#000000;stroke:none;stroke-linecap:round;stroke-linejoin:round;stroke-width:0.24}
		.st19 {stroke:#000000;stroke-linecap:round;stroke-linejoin:round;stroke-width:0.36}
		.st20 {fill:none;stroke:none;stroke-linecap:round;stroke-linejoin:round;stroke-width:0.75}
		.st21 {fill:#000000;font-family:Georgia;font-size:1.00001em}
		.st22 {stroke:#a5a5a5;stroke-dasharray:0,2.25;stroke-linecap:round;stroke-linejoin:round;stroke-width:0.75}
		.st23 {fill:#ffffff;stroke:none;stroke-linecap:round;stroke-linejoin:round;stroke-width:0.75}
		.st24 {fill:url(#grad31-234);stroke:none;stroke-linecap:butt;stroke-width:0.75}
		.st25 {fill:url(#grad31-240);stroke:none;stroke-linecap:butt;stroke-width:0.75}
		.st26 {fill:#a57a2c;stroke:none;stroke-linecap:butt;stroke-width:0.75}
		.st27 {fill:#ffffff;stroke:none;stroke-linecap:butt;stroke-width:0.75}
		.st28 {fill:none;stroke:#7f7f7f;stroke-linecap:round;stroke-linejoin:round;stroke-width:0.5}
		.st29 {fill:#ffffff;stroke:#8db1e2;stroke-linecap:round;stroke-linejoin:round;stroke-width:0.75}
		.st30 {stroke:#3f3f3f;stroke-linecap:round;stroke-linejoin:round;stroke-width:0.75}
		.st31 {fill:#3366ff;font-family:Segoe UI;font-size:0.666664em}
		.st32 {font-size:1em;text-decoration:underline}
		.st33 {fill:#3366ff;font-family:Segoe UI;font-size:0.666664em;font-weight:bold}
		.st34 {fill:url(#grad31-474);stroke:none;stroke-linecap:butt;stroke-width:0.75}
		.st35 {fill:#39749f;stroke:none;stroke-linecap:butt;stroke-width:0.75}
		.st36 {fill:url(#grad28-486);stroke:none;stroke-linecap:butt;stroke-width:0.75}
		.st37 {fill:none;fill-rule:evenodd;font-size:12px;overflow:visible;stroke-linecap:square;stroke-miterlimit:3}
	]]>
	</style>

	<defs id="Patterns_And_Gradients">
		<pattern id="grad34-4" v:fillPattern="34" v:foreground="#7898b5" v:background="#ffffff" x="0" y="0" width="1" height="1"
				patternContentUnits="objectBoundingBox">
			<path d="M 0 0 L 1 0 L 1 1 z" style="fill:url(#grad30-5)"/>
			<path d="M 0 0 L 0 1 L 1 1 z" style="fill:url(#grad27-6)"/>
		</pattern>
		<linearGradient id="grad30-5" v:fillPattern="34" v:foreground="#7898b5" v:background="#ffffff" x1="0" y1="1" x2="0" y2="0">
			<stop offset="0" style="stop-color:#7898b5;stop-opacity:1"/>
			<stop offset="1" style="stop-color:#ffffff;stop-opacity:1"/>
		</linearGradient>
		<linearGradient id="grad27-6" v:fillPattern="34" v:foreground="#7898b5" v:background="#ffffff" x1="1" y1="0" x2="0" y2="0">
			<stop offset="0" style="stop-color:#7898b5;stop-opacity:1"/>
			<stop offset="1" style="stop-color:#ffffff;stop-opacity:1"/>
		</linearGradient>
		<linearGradient id="grad30-35" v:fillPattern="30" v:foreground="#ffffff" v:background="#e1d8c1" x1="0" y1="1" x2="0" y2="0">
			<stop offset="0" style="stop-color:#ffffff;stop-opacity:1"/>
			<stop offset="1" style="stop-color:#e1d8c1;stop-opacity:1"/>
		</linearGradient>
		<pattern id="grad32-40" v:fillPattern="32" v:foreground="#dde2cd" v:background="#c9ba96" x="0" y="0" width="1" height="1"
				patternContentUnits="objectBoundingBox">
			<path d="M 0 1 L 0 0 L 1 0 z" style="fill:url(#grad27-41)"/>
			<path d="M 0 1 L 1 1 L 1 0 z" style="fill:url(#grad28-42)"/>
		</pattern>
		<linearGradient id="grad27-41" v:fillPattern="32" v:foreground="#dde2cd" v:background="#c9ba96" x1="1" y1="0" x2="0" y2="0">
			<stop offset="0" style="stop-color:#dde2cd;stop-opacity:1"/>
			<stop offset="1" style="stop-color:#c9ba96;stop-opacity:1"/>
		</linearGradient>
		<linearGradient id="grad28-42" v:fillPattern="32" v:foreground="#dde2cd" v:background="#c9ba96" x1="0" y1="0" x2="0" y2="1">
			<stop offset="0" style="stop-color:#dde2cd;stop-opacity:1"/>
			<stop offset="1" style="stop-color:#c9ba96;stop-opacity:1"/>
		</linearGradient>
		<pattern id="grad31-47" v:fillPattern="31" v:foreground="#ffffff" v:background="#b6a06d" x="0" y="0" width="1" height="1"
				patternContentUnits="objectBoundingBox">
			<path d="M 0 0 L 0 1 L 1 1 z" style="fill:url(#grad28-48)"/>
			<path d="M 0 0 L 1 0 L 1 1 z" style="fill:url(#grad25-49)"/>
		</pattern>
		<linearGradient id="grad28-48" v:fillPattern="31" v:foreground="#ffffff" v:background="#b6a06d" x1="0" y1="0" x2="0" y2="1">
			<stop offset="0" style="stop-color:#ffffff;stop-opacity:1"/>
			<stop offset="1" style="stop-color:#b6a06d;stop-opacity:1"/>
		</linearGradient>
		<linearGradient id="grad25-49" v:fillPattern="31" v:foreground="#ffffff" v:background="#b6a06d" x1="0" y1="0" x2="1" y2="0">
			<stop offset="0" style="stop-color:#ffffff;stop-opacity:1"/>
			<stop offset="1" style="stop-color:#b6a06d;stop-opacity:1"/>
		</linearGradient>
		<pattern id="grad31-56" v:fillPattern="31" v:foreground="#ffffff" v:background="#339966" x="0" y="0" width="1" height="1"
				patternContentUnits="objectBoundingBox">
			<path d="M 0 0 L 0 1 L 1 1 z" style="fill:url(#grad28-57)"/>
			<path d="M 0 0 L 1 0 L 1 1 z" style="fill:url(#grad25-58)"/>
		</pattern>
		<linearGradient id="grad28-57" v:fillPattern="31" v:foreground="#ffffff" v:background="#339966" x1="0" y1="0" x2="0" y2="1">
			<stop offset="0" style="stop-color:#ffffff;stop-opacity:1"/>
			<stop offset="1" style="stop-color:#339966;stop-opacity:1"/>
		</linearGradient>
		<linearGradient id="grad25-58" v:fillPattern="31" v:foreground="#ffffff" v:background="#339966" x1="0" y1="0" x2="1" y2="0">
			<stop offset="0" style="stop-color:#ffffff;stop-opacity:1"/>
			<stop offset="1" style="stop-color:#339966;stop-opacity:1"/>
		</linearGradient>
		<linearGradient id="grad30-62" v:fillPattern="30" v:foreground="#ffffff" v:background="#e7e4cd" x1="0" y1="1" x2="0" y2="0">
			<stop offset="0" style="stop-color:#ffffff;stop-opacity:1"/>
			<stop offset="1" style="stop-color:#e7e4cd;stop-opacity:1"/>
		</linearGradient>
		<pattern id="grad34-72" v:fillPattern="34" v:foreground="#ffffff" v:background="#e7e4cd" x="0" y="0" width="1" height="1"
				patternContentUnits="objectBoundingBox">
			<path d="M 0 0 L 1 0 L 1 1 z" style="fill:url(#grad30-62)"/>
			<path d="M 0 0 L 0 1 L 1 1 z" style="fill:url(#grad27-73)"/>
		</pattern>
		<linearGradient id="grad27-73" v:fillPattern="34" v:foreground="#ffffff" v:background="#e7e4cd" x1="1" y1="0" x2="0" y2="0">
			<stop offset="0" style="stop-color:#ffffff;stop-opacity:1"/>
			<stop offset="1" style="stop-color:#e7e4cd;stop-opacity:1"/>
		</linearGradient>
		<pattern id="grad35-77" v:fillPattern="35" v:foreground="#000000" v:foregroundOpacity="0.4" v:background="#e7e4cd"
				v:backgroundOpacity="0.4" x="0" y="0" width="1" height="1" patternContentUnits="objectBoundingBox">
			<path d="M 0.5 0.5 L 0 0 L 0 1 z" style="fill:url(#grad27-78)"/>
			<path d="M 0.5 0.5 L 1 0 L 1 1 z" style="fill:url(#grad25-79)"/>
			<path d="M 0.5 0.5 L 0 0 L 1 0 z" style="fill:url(#grad30-80)"/>
			<path d="M 0.5 0.5 L 0 1 L 1 1 z" style="fill:url(#grad28-81)"/>
		</pattern>
		<linearGradient id="grad27-78" v:fillPattern="35" v:foreground="#000000" v:foregroundOpacity="0.4" v:background="#e7e4cd"
				v:backgroundOpacity="0.4" x1="1" y1="0" x2="0" y2="0">
			<stop offset="0" style="stop-color:#000000;stop-opacity:0.4"/>
			<stop offset="1" style="stop-color:#e7e4cd;stop-opacity:0.4"/>
		</linearGradient>
		<linearGradient id="grad25-79" v:fillPattern="35" v:foreground="#000000" v:foregroundOpacity="0.4" v:background="#e7e4cd"
				v:backgroundOpacity="0.4" x1="0" y1="0" x2="1" y2="0">
			<stop offset="0" style="stop-color:#000000;stop-opacity:0.4"/>
			<stop offset="1" style="stop-color:#e7e4cd;stop-opacity:0.4"/>
		</linearGradient>
		<linearGradient id="grad30-80" v:fillPattern="35" v:foreground="#000000" v:foregroundOpacity="0.4" v:background="#e7e4cd"
				v:backgroundOpacity="0.4" x1="0" y1="1" x2="0" y2="0">
			<stop offset="0" style="stop-color:#000000;stop-opacity:0.4"/>
			<stop offset="1" style="stop-color:#e7e4cd;stop-opacity:0.4"/>
		</linearGradient>
		<linearGradient id="grad28-81" v:fillPattern="35" v:foreground="#000000" v:foregroundOpacity="0.4" v:background="#e7e4cd"
				v:backgroundOpacity="0.4" x1="0" y1="0" x2="0" y2="1">
			<stop offset="0" style="stop-color:#000000;stop-opacity:0.4"/>
			<stop offset="1" style="stop-color:#e7e4cd;stop-opacity:0.4"/>
		</linearGradient>
		<pattern id="grad31-234" v:fillPattern="31" v:foreground="#fbd952" v:background="#d3b348" x="0" y="0" width="1" height="1"
				patternContentUnits="objectBoundingBox">
			<path d="M 0 0 L 0 1 L 1 1 z" style="fill:url(#grad28-235)"/>
			<path d="M 0 0 L 1 0 L 1 1 z" style="fill:url(#grad25-236)"/>
		</pattern>
		<linearGradient id="grad28-235" v:fillPattern="31" v:foreground="#fbd952" v:background="#d3b348" x1="0" y1="0" x2="0"
				y2="1">
			<stop offset="0" style="stop-color:#fbd952;stop-opacity:1"/>
			<stop offset="1" style="stop-color:#d3b348;stop-opacity:1"/>
		</linearGradient>
		<linearGradient id="grad25-236" v:fillPattern="31" v:foreground="#fbd952" v:background="#d3b348" x1="0" y1="0" x2="1"
				y2="0">
			<stop offset="0" style="stop-color:#fbd952;stop-opacity:1"/>
			<stop offset="1" style="stop-color:#d3b348;stop-opacity:1"/>
		</linearGradient>
		<pattern id="grad31-240" v:fillPattern="31" v:foreground="#f0ecc0" v:background="#d3b348" x="0" y="0" width="1" height="1"
				patternContentUnits="objectBoundingBox">
			<path d="M 0 0 L 0 1 L 1 1 z" style="fill:url(#grad28-241)"/>
			<path d="M 0 0 L 1 0 L 1 1 z" style="fill:url(#grad25-242)"/>
		</pattern>
		<linearGradient id="grad28-241" v:fillPattern="31" v:foreground="#f0ecc0" v:background="#d3b348" x1="0" y1="0" x2="0"
				y2="1">
			<stop offset="0" style="stop-color:#f0ecc0;stop-opacity:1"/>
			<stop offset="1" style="stop-color:#d3b348;stop-opacity:1"/>
		</linearGradient>
		<linearGradient id="grad25-242" v:fillPattern="31" v:foreground="#f0ecc0" v:background="#d3b348" x1="0" y1="0" x2="1"
				y2="0">
			<stop offset="0" style="stop-color:#f0ecc0;stop-opacity:1"/>
			<stop offset="1" style="stop-color:#d3b348;stop-opacity:1"/>
		</linearGradient>
		<pattern id="grad31-474" v:fillPattern="31" v:foreground="#ffffff" v:background="#9ecded" x="0" y="0" width="1" height="1"
				patternContentUnits="objectBoundingBox">
			<path d="M 0 0 L 0 1 L 1 1 z" style="fill:url(#grad28-475)"/>
			<path d="M 0 0 L 1 0 L 1 1 z" style="fill:url(#grad25-476)"/>
		</pattern>
		<linearGradient id="grad28-475" v:fillPattern="31" v:foreground="#ffffff" v:background="#9ecded" x1="0" y1="0" x2="0"
				y2="1">
			<stop offset="0" style="stop-color:#ffffff;stop-opacity:1"/>
			<stop offset="1" style="stop-color:#9ecded;stop-opacity:1"/>
		</linearGradient>
		<linearGradient id="grad25-476" v:fillPattern="31" v:foreground="#ffffff" v:background="#9ecded" x1="0" y1="0" x2="1"
				y2="0">
			<stop offset="0" style="stop-color:#ffffff;stop-opacity:1"/>
			<stop offset="1" style="stop-color:#9ecded;stop-opacity:1"/>
		</linearGradient>
		<linearGradient id="grad28-486" v:fillPattern="28" v:foreground="#9fdef2" v:background="#146bc2" x1="0" y1="0" x2="0"
				y2="1">
			<stop offset="0" style="stop-color:#9fdef2;stop-opacity:1"/>
			<stop offset="1" style="stop-color:#146bc2;stop-opacity:1"/>
		</linearGradient>
	</defs>
	<defs id="Markers">
		<g id="lend4">
			<path d="M 2 1 L 0 0 L 2 -1 L 2 1 " style="stroke:none"/>
		</g>
		<marker id="mrkr4-14" class="st4" v:arrowType="4" v:arrowSize="2" v:setback="6.2" refX="-6.2" orient="auto"
				markerUnits="strokeWidth" overflow="visible">
			<use xlink:href="#lend4" transform="scale(-3.1,-3.1) "/>
		</marker>
	</defs>
	<g v:mID="18" v:index="16" v:groupContext="foregroundPage">
		<title>knowledge-attribution-by-user-context</title>
		<v:pageProperties v:drawingScale="0.0393701" v:pageScale="0.0393701" v:drawingUnits="24" v:shadowOffsetX="8.50394"
				v:shadowOffsetY="-8.50394"/>
		<v:layer v:name="Connector" v:index="0"/>
		<g id="shape1-1" v:mID="1" v:groupContext="shape" transform="translate(18.75,-18.75)">
			<title>Sheet.1</title>
			<rect x="0" y="37.5" width="453.543" height="222.844" rx="2.83465" ry="2.83465" class="st1"/>
		</g>
		<g id="shape2-7" v:mID="2" v:groupContext="shape" transform="translate(34.9739,-30.0886)">
			<title>Sheet.2</title>
			<rect x="0" y="65.8465" width="267.241" height="194.498" rx="2.83465" ry="2.83465" class="st2"/>
		</g>
		<g id="shape113-9" v:mID="113" v:groupContext="shape" v:layerMember="0"
				transform="translate(409.033,313.873) rotate(175.028)">
			<title>Directed line 1.901</title>
			<desc>Folder C – User A - Optional</desc>
			<v:userDefs>
				<v:ud v:nameU="visVersion" v:val="VT0(11):26"/>
			</v:userDefs>
			<v:textBlock v:margins="rect(4,4,4,4)" v:tabSpace="42.5197"/>
			<v:textRect cx="125.286" cy="271.683" width="110.93" height="17.0079" transform="rotate(-180)"/>
			<path d="M0 260.34 L243.13 260.34" class="st3"/>
			<text x="-175.78" y="-269.28" transform="rotate(-180)" class="st5" v:langID="1033"><v:paragraph v:horizAlign="1"/><v:tabList/>Folder<tspan
						class="st6" v:langID="2070"> </tspan><tspan class="st6" v:langID="2070">C </tspan><tspan class="st6"
						v:langID="2070">–</tspan><tspan class="st6" v:langID="2070"> </tspan><tspan class="st6" v:langID="2070">U</tspan>ser<tspan
						class="st6" v:langID="2070"> </tspan><tspan class="st6" v:langID="2070">A </tspan><tspan class="st6"
						v:langID="2070">-</tspan><tspan class="st6" v:langID="2070"> </tspan><tspan class="st6" v:langID="2070">Op</tspan>t<tspan
						class="st6" v:langID="2070">ional</tspan></text>		</g>
		<g id="group114-27" transform="translate(376.451,-166.053)" v:mID="114" v:groupContext="group">
			<title>Sheet.114</title>
			<g id="group115-28" transform="translate(17.0079,-20.7707)" v:mID="115" v:groupContext="group">
				<title>Sheet.115</title>
				<g id="shape116-29" v:mID="116" v:groupContext="shape" transform="translate(12.7649,0)">
					<title>Sheet.116</title>
					<path d="M7.27 260.33 A20.8361 18.2399 -1.64 0 0 22.43 255.32 A7.31042 6.39917 -180 0 0 18.65 244.97 L0 260.32
								 L7.27 260.33 Z" class="st7"/>
				</g>
				<g id="shape117-32" v:mID="117" v:groupContext="shape" transform="translate(1.39888E-014,-28.7697)">
					<title>Sheet.117</title>
					<path d="M12.91 260.34 L34.02 248.86 L20.93 241.85 L0 253.26 A22.7298 21.2266 -180 0 0 12.92 260.34 L12.91 260.34
								 Z" class="st8"/>
					<path d="M12.91 260.34 L34.02 248.86 L20.93 241.85 L0 253.26 A22.7298 21.2266 -180 0 0 12.92 260.34"
							class="st9"/>
				</g>
				<g id="shape118-37" v:mID="118" v:groupContext="shape" transform="translate(0.00772916,-0.0167078)">
					<title>Sheet.118</title>
					<path d="M12.91 231.59 A22.476 20.9896 0 0 1 0 224.47 L0 253.79 A22.0246 20.568 -180 0 0 12.91 260.34 L12.9 231.59
								 L12.91 231.59 Z" class="st10"/>
					<path d="M12.91 231.59 A22.476 20.9896 0 0 1 0 224.47 L0 253.79 A22.0246 20.568 -180 0 0 12.91 260.34 L12.9 231.59"
							class="st9"/>
				</g>
				<g id="shape119-44" v:mID="119" v:groupContext="shape" transform="translate(12.9085,-0.049205)">
					<title>Sheet.119</title>
					<path d="M0 231.62 L0 260.34 L21.11 248.97 L21.11 220.14 L0 231.62 Z" class="st11"/>
				</g>
				<g id="shape120-50" v:mID="120" v:groupContext="shape" transform="translate(1.39888E-014,-0.0177493)">
					<title>Sheet.120</title>
					<path d="M34.02 220.11 L20.93 213.1 L0 224.5 L0.01 253.79 A22.0246 20.568 -180 0 0 12.92 260.34 L34.02 248.94
								 L34.02 220.11" class="st12"/>
				</g>
				<g id="shape121-53" v:mID="121" v:groupContext="shape" transform="translate(-83.5714,0.49651) rotate(-20)">
					<title>Sheet.121</title>
					<ellipse cx="0.988064" cy="258.999" rx="0.988064" ry="1.34544" class="st13"/>
				</g>
				<g id="shape122-59" v:mID="122" v:groupContext="shape" transform="translate(2.09328,-4.17179)">
					<title>Sheet.122</title>
					<path d="M-0 252.36 A25.2136 23.0284 -96.44 0 0 8.72 256.84" class="st14"/>
					<path d="M0 254.11 A25.2136 23.0284 -96.44 0 0 8.72 258.59" class="st14"/>
					<path d="M0 255.86 A25.2136 23.0284 -96.44 0 0 8.72 260.34" class="st14"/>
				</g>
				<g id="group123-66" transform="translate(1.7444,-20.3807)" v:mID="123" v:groupContext="group">
					<title>Sheet.123</title>
					<g id="shape124-67" v:mID="124" v:groupContext="shape" transform="translate(0,-4.71307)">
						<title>Sheet.124</title>
						<path d="M0.31 255.86 A21.9987 20.5439 -180 0 0 9.03 260.34 a0.447002 0.41744 -180 0 0 1.59872E-014 -0.814517
									 A21.4002 19.9849 0 0 1 0.49 255.18 a0.289591 0.27044 -180 0 0 -0.483468 0.229906 a0.631151 0.589411
									 -180 0 0 0.309028 0.454289 Z" class="st15"/>
					</g>
					<g id="shape125-69" v:mID="125" v:groupContext="shape" transform="translate(2.77388,-5.73976)">
						<title>Sheet.125</title>
						<path d="M2.68 260.31 A3.26872 1.98987 -90.9 0 0 0.07 259.01 A2.15066 1.07224 -180 0 0 2.68 260.31 Z"
								class="st16"/>
					</g>
					<g id="shape126-74" v:mID="126" v:groupContext="shape" transform="translate(0.348879,-0.0407259)">
						<title>Sheet.126</title>
						<path d="M0 253.58 L0 255.86 A23.664 22.099 -180 0 0 8.72 260.34 L8.72 258.06 A24.4385 22.8223 0 0 1 0 253.58
									 Z" class="st17"/>
					</g>
					<g id="shape127-82" v:mID="127" v:groupContext="shape" transform="translate(0.348879,-1.30323)">
						<title>Sheet.127</title>
						<path d="M0 255.86 A21.4186 20.0021 -180 0 0 8.72 260.34 L8.72 259.77 A23.6735 22.1079 0 0 1 0 255.29 L0
									 255.86 Z" class="st18"/>
					</g>
					<g id="shape128-84" v:mID="128" v:groupContext="shape" transform="translate(0.348879,-0.0814517)">
						<title>Sheet.128</title>
						<path d="M0 253.58 L0 255.86 A23.664 22.099 -180 0 0 8.72 260.34" class="st9"/>
					</g>
					<g id="shape129-87" v:mID="129" v:groupContext="shape" transform="translate(0.348879,0)">
						<title>Sheet.129</title>
						<path d="M8.72 260.34 L8.72 258.06 A24.4385 22.8223 0 0 1 0 253.58" class="st19"/>
					</g>
				</g>
			</g>
			<g id="shape130-91" v:mID="130" v:groupContext="shape">
				<title>Sheet.130</title>
				<desc>Service A</desc>
				<v:textBlock v:margins="rect(4,4,4,4)" v:tabSpace="42.5197"/>
				<v:textRect cx="33.4803" cy="250.344" width="66.97" height="20"/>
				<rect x="0" y="240.344" width="66.9606" height="20" class="st20"/>
				<text x="8.92" y="253.94" class="st21" v:langID="2070"><v:paragraph v:horizAlign="1"/><v:tabList/>Servi<tspan
							class="st6" v:langID="1033">ce</tspan> A</text>			</g>
		</g>
		<g id="group131-95" transform="translate(376.451,-98.0214)" v:mID="131" v:groupContext="group">
			<title>Sheet.131</title>
			<g id="group132-96" transform="translate(17.0079,-20.7707)" v:mID="132" v:groupContext="group">
				<title>Sheet.132</title>
				<g id="shape133-97" v:mID="133" v:groupContext="shape" transform="translate(12.7649,0)">
					<title>Sheet.133</title>
					<path d="M7.27 260.33 A20.8361 18.2399 -1.64 0 0 22.43 255.32 A7.31042 6.39917 -180 0 0 18.65 244.97 L0 260.32
								 L7.27 260.33 Z" class="st7"/>
				</g>
				<g id="shape134-100" v:mID="134" v:groupContext="shape" transform="translate(1.39888E-014,-28.7697)">
					<title>Sheet.134</title>
					<path d="M12.91 260.34 L34.02 248.86 L20.93 241.85 L0 253.26 A22.7298 21.2266 -180 0 0 12.92 260.34 L12.91 260.34
								 Z" class="st8"/>
					<path d="M12.91 260.34 L34.02 248.86 L20.93 241.85 L0 253.26 A22.7298 21.2266 -180 0 0 12.92 260.34"
							class="st9"/>
				</g>
				<g id="shape135-104" v:mID="135" v:groupContext="shape" transform="translate(0.00772916,-0.0167078)">
					<title>Sheet.135</title>
					<path d="M12.91 231.59 A22.476 20.9896 0 0 1 0 224.47 L0 253.79 A22.0246 20.568 -180 0 0 12.91 260.34 L12.9 231.59
								 L12.91 231.59 Z" class="st10"/>
					<path d="M12.91 231.59 A22.476 20.9896 0 0 1 0 224.47 L0 253.79 A22.0246 20.568 -180 0 0 12.91 260.34 L12.9 231.59"
							class="st9"/>
				</g>
				<g id="shape136-108" v:mID="136" v:groupContext="shape" transform="translate(12.9085,-0.049205)">
					<title>Sheet.136</title>
					<path d="M0 231.62 L0 260.34 L21.11 248.97 L21.11 220.14 L0 231.62 Z" class="st11"/>
				</g>
				<g id="shape137-111" v:mID="137" v:groupContext="shape" transform="translate(1.39888E-014,-0.0177493)">
					<title>Sheet.137</title>
					<path d="M34.02 220.11 L20.93 213.1 L0 224.5 L0.01 253.79 A22.0246 20.568 -180 0 0 12.92 260.34 L34.02 248.94
								 L34.02 220.11" class="st12"/>
				</g>
				<g id="shape138-114" v:mID="138" v:groupContext="shape" transform="translate(-83.5714,0.49651) rotate(-20)">
					<title>Sheet.138</title>
					<ellipse cx="0.988064" cy="258.999" rx="0.988064" ry="1.34544" class="st13"/>
				</g>
				<g id="shape139-117" v:mID="139" v:groupContext="shape" transform="translate(2.09328,-4.17179)">
					<title>Sheet.139</title>
					<path d="M-0 252.36 A25.2136 23.0284 -96.44 0 0 8.72 256.84" class="st14"/>
					<path d="M0 254.11 A25.2136 23.0284 -96.44 0 0 8.72 258.59" class="st14"/>
					<path d="M0 255.86 A25.2136 23.0284 -96.44 0 0 8.72 260.34" class="st14"/>
				</g>
				<g id="group140-123" transform="translate(1.7444,-20.3807)" v:mID="140" v:groupContext="group">
					<title>Sheet.140</title>
					<g id="shape141-124" v:mID="141" v:groupContext="shape" transform="translate(0,-4.71307)">
						<title>Sheet.141</title>
						<path d="M0.31 255.86 A21.9987 20.5439 -180 0 0 9.03 260.34 a0.447002 0.41744 -180 0 0 1.59872E-014 -0.814517
									 A21.4002 19.9849 0 0 1 0.49 255.18 a0.289591 0.27044 -180 0 0 -0.483468 0.229906 a0.631151 0.589411
									 -180 0 0 0.309028 0.454289 Z" class="st15"/>
					</g>
					<g id="shape142-126" v:mID="142" v:groupContext="shape" transform="translate(2.77388,-5.73976)">
						<title>Sheet.142</title>
						<path d="M2.68 260.31 A3.26872 1.98987 -90.9 0 0 0.07 259.01 A2.15066 1.07224 -180 0 0 2.68 260.31 Z"
								class="st16"/>
					</g>
					<g id="shape143-129" v:mID="143" v:groupContext="shape" transform="translate(0.348879,-0.0407259)">
						<title>Sheet.143</title>
						<path d="M0 253.58 L0 255.86 A23.664 22.099 -180 0 0 8.72 260.34 L8.72 258.06 A24.4385 22.8223 0 0 1 0 253.58
									 Z" class="st17"/>
					</g>
					<g id="shape144-132" v:mID="144" v:groupContext="shape" transform="translate(0.348879,-1.30323)">
						<title>Sheet.144</title>
						<path d="M0 255.86 A21.4186 20.0021 -180 0 0 8.72 260.34 L8.72 259.77 A23.6735 22.1079 0 0 1 0 255.29 L0
									 255.86 Z" class="st18"/>
					</g>
					<g id="shape145-134" v:mID="145" v:groupContext="shape" transform="translate(0.348879,-0.0814517)">
						<title>Sheet.145</title>
						<path d="M0 253.58 L0 255.86 A23.664 22.099 -180 0 0 8.72 260.34" class="st9"/>
					</g>
					<g id="shape146-137" v:mID="146" v:groupContext="shape" transform="translate(0.348879,0)">
						<title>Sheet.146</title>
						<path d="M8.72 260.34 L8.72 258.06 A24.4385 22.8223 0 0 1 0 253.58" class="st19"/>
					</g>
				</g>
			</g>
			<g id="shape147-141" v:mID="147" v:groupContext="shape">
				<title>Sheet.147</title>
				<desc>Service B</desc>
				<v:textBlock v:margins="rect(4,4,4,4)" v:tabSpace="42.5197"/>
				<v:textRect cx="33.4803" cy="250.344" width="66.97" height="20"/>
				<rect x="0" y="240.344" width="66.9606" height="20" class="st20"/>
				<text x="9.02" y="253.94" class="st21" v:langID="2070"><v:paragraph v:horizAlign="1"/><v:tabList/>Servi<tspan
							class="st6" v:langID="1033">ce</tspan> B</text>			</g>
		</g>
		<g id="group148-145" transform="translate(376.451,-35.6592)" v:mID="148" v:groupContext="group">
			<title>Sheet.148</title>
			<g id="group149-146" transform="translate(17.0079,-20.7707)" v:mID="149" v:groupContext="group">
				<title>Sheet.149</title>
				<g id="shape150-147" v:mID="150" v:groupContext="shape" transform="translate(12.7649,0)">
					<title>Sheet.150</title>
					<path d="M7.27 260.33 A20.8361 18.2399 -1.64 0 0 22.43 255.32 A7.31042 6.39917 -180 0 0 18.65 244.97 L0 260.32
								 L7.27 260.33 Z" class="st7"/>
				</g>
				<g id="shape151-150" v:mID="151" v:groupContext="shape" transform="translate(1.39888E-014,-28.7697)">
					<title>Sheet.151</title>
					<path d="M12.91 260.34 L34.02 248.86 L20.93 241.85 L0 253.26 A22.7298 21.2266 -180 0 0 12.92 260.34 L12.91 260.34
								 Z" class="st8"/>
					<path d="M12.91 260.34 L34.02 248.86 L20.93 241.85 L0 253.26 A22.7298 21.2266 -180 0 0 12.92 260.34"
							class="st9"/>
				</g>
				<g id="shape152-154" v:mID="152" v:groupContext="shape" transform="translate(0.00772916,-0.0167078)">
					<title>Sheet.152</title>
					<path d="M12.91 231.59 A22.476 20.9896 0 0 1 0 224.47 L0 253.79 A22.0246 20.568 -180 0 0 12.91 260.34 L12.9 231.59
								 L12.91 231.59 Z" class="st10"/>
					<path d="M12.91 231.59 A22.476 20.9896 0 0 1 0 224.47 L0 253.79 A22.0246 20.568 -180 0 0 12.91 260.34 L12.9 231.59"
							class="st9"/>
				</g>
				<g id="shape153-158" v:mID="153" v:groupContext="shape" transform="translate(12.9085,-0.049205)">
					<title>Sheet.153</title>
					<path d="M0 231.62 L0 260.34 L21.11 248.97 L21.11 220.14 L0 231.62 Z" class="st11"/>
				</g>
				<g id="shape154-161" v:mID="154" v:groupContext="shape" transform="translate(1.39888E-014,-0.0177493)">
					<title>Sheet.154</title>
					<path d="M34.02 220.11 L20.93 213.1 L0 224.5 L0.01 253.79 A22.0246 20.568 -180 0 0 12.92 260.34 L34.02 248.94
								 L34.02 220.11" class="st12"/>
				</g>
				<g id="shape155-164" v:mID="155" v:groupContext="shape" transform="translate(-83.5714,0.49651) rotate(-20)">
					<title>Sheet.155</title>
					<ellipse cx="0.988064" cy="258.999" rx="0.988064" ry="1.34544" class="st13"/>
				</g>
				<g id="shape156-167" v:mID="156" v:groupContext="shape" transform="translate(2.09328,-4.17179)">
					<title>Sheet.156</title>
					<path d="M-0 252.36 A25.2136 23.0284 -96.44 0 0 8.72 256.84" class="st14"/>
					<path d="M0 254.11 A25.2136 23.0284 -96.44 0 0 8.72 258.59" class="st14"/>
					<path d="M0 255.86 A25.2136 23.0284 -96.44 0 0 8.72 260.34" class="st14"/>
				</g>
				<g id="group157-173" transform="translate(1.7444,-20.3807)" v:mID="157" v:groupContext="group">
					<title>Sheet.157</title>
					<g id="shape158-174" v:mID="158" v:groupContext="shape" transform="translate(0,-4.71307)">
						<title>Sheet.158</title>
						<path d="M0.31 255.86 A21.9987 20.5439 -180 0 0 9.03 260.34 a0.447002 0.41744 -180 0 0 1.59872E-014 -0.814517
									 A21.4002 19.9849 0 0 1 0.49 255.18 a0.289591 0.27044 -180 0 0 -0.483468 0.229906 a0.631151 0.589411
									 -180 0 0 0.309028 0.454289 Z" class="st15"/>
					</g>
					<g id="shape159-176" v:mID="159" v:groupContext="shape" transform="translate(2.77388,-5.73976)">
						<title>Sheet.159</title>
						<path d="M2.68 260.31 A3.26872 1.98987 -90.9 0 0 0.07 259.01 A2.15066 1.07224 -180 0 0 2.68 260.31 Z"
								class="st16"/>
					</g>
					<g id="shape160-179" v:mID="160" v:groupContext="shape" transform="translate(0.348879,-0.0407259)">
						<title>Sheet.160</title>
						<path d="M0 253.58 L0 255.86 A23.664 22.099 -180 0 0 8.72 260.34 L8.72 258.06 A24.4385 22.8223 0 0 1 0 253.58
									 Z" class="st17"/>
					</g>
					<g id="shape161-182" v:mID="161" v:groupContext="shape" transform="translate(0.348879,-1.30323)">
						<title>Sheet.161</title>
						<path d="M0 255.86 A21.4186 20.0021 -180 0 0 8.72 260.34 L8.72 259.77 A23.6735 22.1079 0 0 1 0 255.29 L0
									 255.86 Z" class="st18"/>
					</g>
					<g id="shape162-184" v:mID="162" v:groupContext="shape" transform="translate(0.348879,-0.0814517)">
						<title>Sheet.162</title>
						<path d="M0 253.58 L0 255.86 A23.664 22.099 -180 0 0 8.72 260.34" class="st9"/>
					</g>
					<g id="shape163-187" v:mID="163" v:groupContext="shape" transform="translate(0.348879,0)">
						<title>Sheet.163</title>
						<path d="M8.72 260.34 L8.72 258.06 A24.4385 22.8223 0 0 1 0 253.58" class="st19"/>
					</g>
				</g>
			</g>
			<g id="shape164-191" v:mID="164" v:groupContext="shape">
				<title>Sheet.164</title>
				<desc>Service C</desc>
				<v:textBlock v:margins="rect(4,4,4,4)" v:tabSpace="42.5197"/>
				<v:textRect cx="33.4803" cy="250.344" width="66.97" height="20"/>
				<rect x="0" y="240.344" width="66.9606" height="20" class="st20"/>
				<text x="9.09" y="253.94" class="st21" v:langID="2070"><v:paragraph v:horizAlign="1"/><v:tabList/>Servi<tspan
							class="st6" v:langID="1033">ce</tspan> C</text>			</g>
		</g>
		<g id="shape165-195" v:mID="165" v:groupContext="shape" v:layerMember="0"
				transform="translate(412.112,379.747) rotate(174.067)">
			<title>Directed line 1.908</title>
			<desc>Document B – User A - Mandatory</desc>
			<v:userDefs>
				<v:ud v:nameU="visVersion" v:val="VT0(11):26"/>
			</v:userDefs>
			<v:textBlock v:margins="rect(4,4,4,4)" v:tabSpace="42.5197"/>
			<v:textRect cx="73.515" cy="271.683" width="132.93" height="17.0079" transform="rotate(-180)"/>
			<path d="M0 260.34 L139.59 260.34" class="st3"/>
			<text x="-135.01" y="-269.28" transform="rotate(180)" class="st5" v:langID="2070"><v:paragraph v:horizAlign="1"/><v:tabList/>Document B – U<tspan
						class="st6" v:langID="1033">ser</tspan> A - <tspan class="st6" v:langID="1033">Mandatory</tspan></text>		</g>
		<g id="shape166-203" v:mID="166" v:groupContext="shape" v:layerMember="0"
				transform="translate(399.311,444.929) rotate(177.173)">
			<title>Directed line 1.909</title>
			<desc>Folder H – User A - Mandatory</desc>
			<v:userDefs>
				<v:ud v:nameU="visVersion" v:val="VT0(11):26"/>
			</v:userDefs>
			<v:textBlock v:margins="rect(4,4,4,4)" v:tabSpace="42.5197"/>
			<v:textRect cx="114.943" cy="271.683" width="120.41" height="17.0079" transform="rotate(-180)"/>
			<path d="M0 260.34 L222.45 260.34" class="st3"/>
			<text x="-170.18" y="-269.28" transform="rotate(-180)" class="st5" v:langID="1033"><v:paragraph v:horizAlign="1"/><v:tabList/>Folder<tspan
						class="st6" v:langID="2070"> </tspan><tspan class="st6" v:langID="2070">H </tspan><tspan class="st6"
						v:langID="2070">–</tspan><tspan class="st6" v:langID="2070"> </tspan><tspan class="st6" v:langID="2070">U</tspan>ser<tspan
						class="st6" v:langID="2070"> </tspan><tspan class="st6" v:langID="2070">A </tspan><tspan class="st6"
						v:langID="2070">-</tspan><tspan class="st6" v:langID="2070"> </tspan>Mandatory</text>		</g>
		<g id="shape167-218" v:mID="167" v:groupContext="shape" transform="translate(35.7579,-226.047)">
			<title>Sheet.167</title>
			<desc>User A</desc>
			<v:textBlock v:margins="rect(4,4,4,4)" v:tabSpace="42.5197"/>
			<v:textRect cx="133.228" cy="256.136" width="266.46" height="8.41732"/>
			<rect x="0" y="251.927" width="266.457" height="8.41732" class="st20"/>
			<text x="121.25" y="258.54" class="st5" v:langID="2070"><v:paragraph v:horizAlign="1"/><v:tabList/>U<tspan class="st6"
						v:langID="1033">ser</tspan> A</text>		</g>
		<g id="shape178-222" v:mID="178" v:groupContext="shape" transform="translate(317.522,48.9226) rotate(90)">
			<title>Sheet.178</title>
			<path d="M0 260.34 L11.34 260.34" class="st22"/>
		</g>
		<g id="shape179-225" v:mID="179" v:groupContext="shape" transform="translate(42.0901,-214.474)">
			<title>Sheet.179</title>
			<path d="M0 260.34 L9.64 260.34" class="st22"/>
		</g>
		<g id="group180-228" transform="translate(51.3027,-210.77)" v:mID="180" v:groupContext="group">
			<title>Sheet.180</title>
			<g id="shape181-229" v:mID="181" v:groupContext="shape" transform="translate(-2.9976E-015,-0.00718152)">
				<title>Sheet.181</title>
				<path d="M11.73 254.41 a0.517446 0.517446 -180 0 0 -0.5178 -0.51795 L6.4 253.89 A2.39972 2.39972 -180 0 0 6.22 253.41
							 a0.684201 0.684201 -180 0 0 -0.433988 -0.463969 L3.26 252.94 a0.671094 0.671094 -180 0 0 -0.437212 0.43125
							 A3.14901 3.14901 -180 0 0 2.64 253.81 A10.4434 10.4434 -180 0 0 2.54 254.41 L2.54 255.14 L0.2 255.14
							 a0.175537 0.175537 -180 0 0 -0.1719 0.2712 L2.23 260.07 a0.5185 0.5185 -180 0 0 0.42825 0.2712 L11.38
							 260.34 a0.379891 0.379891 -180 0 0 0.3123 -0.14205 A4923.22 4923.22 -180 0 0 11.73 254.41 Z"
						class="st23"/>
			</g>
			<g id="shape182-231" v:mID="182" v:groupContext="shape" transform="translate(2.54014,-0.291596)">
				<title>Sheet.182</title>
				<path d="M9.19 254.7 a0.517446 0.517446 -180 0 0 -0.5178 -0.51795 L3.86 254.18 A2.39972 2.39972 -180 0 0 3.68 253.69
							 a0.684201 0.684201 -180 0 0 -0.433988 -0.463969 L0.72 253.23 a0.671094 0.671094 -180 0 0 -0.437213 0.43125
							 A3.14901 3.14901 -180 0 0 0.1 254.09 A10.4434 10.4434 -180 0 0 0 254.7 L0 255.43 L6.53 255.43 L9.12
							 260.34 a0.511935 0.511935 -180 0 0 0.0693 -0.25455 L9.19 254.7 Z" class="st24"/>
			</g>
			<g id="shape183-237" v:mID="183" v:groupContext="shape" transform="translate(0.000253651,0)">
				<title>Sheet.183</title>
				<path d="M11.68 260.09 A11.6149 11.6149 0 0 1 11.39 260.26 a0.437107 0.437107 -180 0 0 0.12885 -0.47505 L9.21 255.4
							 a0.547699 0.547699 -180 0 0 -0.4398 -0.2655 L0.2 255.14 a0.175537 0.175537 -180 0 0 -0.1719 0.2712 L2.23
							 260.07 a0.5185 0.5185 -180 0 0 0.42825 0.2712 L11.38 260.34 a0.332841 0.332841 -180 0 0 0.297 -0.0825
							 A1.07388 1.07388 -180 0 0 11.68 260.09 Z" class="st25"/>
			</g>
			<g id="shape184-243" v:mID="184" v:groupContext="shape" transform="translate(0.0625871,-0.144596)">
				<title>Sheet.184</title>
				<path d="M8.77 255.19 L0.2 255.19 a0.173618 0.173618 -180 0 0 -0.19545 0.14655 A313.406 313.406 0 0 1 8.93 255.36
							 A137.265 137.265 0 0 1 11.55 260.26 a0.46976 0.46976 -180 0 0 -0.0117 0.07575 L11.56 260.34 a0.232831
							 0.232831 -180 0 0 0.1245 -0.0987 a0.365189 0.365189 -180 0 0 -0.03285 -0.11925 L9.15 255.38 a0.554407
							 0.554407 -180 0 0 -0.3858 -0.18945 Z" class="st26"/>
			</g>
			<g id="shape185-245" v:mID="185" v:groupContext="shape" transform="translate(0.00633715,-0.0506961)">
				<title>Sheet.185</title>
				<path d="M8.77 255.19 L0.2 255.19 a0.173618 0.173618 -180 0 0 -0.19545 0.14655 L8.96 255.33 L11.55 260.26 a0.453709
							 0.453709 -180 0 0 -0.0117 0.07575 L11.56 260.34 a0.233503 0.233503 -180 0 0 0.1245 -0.0987 a0.369262
							 0.369262 -180 0 0 -0.03285 -0.11925 L9.15 255.38 a0.41511 0.41511 -180 0 0 -0.38565 -0.18945 Z"
						class="st27"/>
			</g>
			<g id="shape186-247" v:mID="186" v:groupContext="shape" transform="translate(0.000253651,-0.00701692)">
				<title>Sheet.186</title>
				<path d="M11.73 254.41 a0.517446 0.517446 -180 0 0 -0.5178 -0.51795 L6.4 253.89 A2.39972 2.39972 -180 0 0 6.22 253.41
							 a0.684201 0.684201 -180 0 0 -0.433988 -0.463969 L3.26 252.94 a0.671094 0.671094 -180 0 0 -0.437212 0.43125
							 A3.14901 3.14901 -180 0 0 2.64 253.81 A10.4434 10.4434 -180 0 0 2.54 254.41 L2.54 255.14 L0.2 255.14
							 a0.175537 0.175537 -180 0 0 -0.1719 0.2712 L2.23 260.07 a0.5185 0.5185 -180 0 0 0.42825 0.2712 L11.38
							 260.34 a0.379891 0.379891 -180 0 0 0.3123 -0.14205 A4923.22 4923.22 -180 0 0 11.73 254.41 Z"
						class="st28"/>
			</g>
		</g>
		<g id="group187-249" transform="translate(40.6432,-211.875)" v:mID="187" v:groupContext="group">
			<title>Sheet.187</title>
			<g id="shape188-250" v:mID="188" v:groupContext="shape">
				<title>Sheet.188</title>
				<rect x="0" y="255.146" width="4.99016" height="5.19808" rx="0.708661" ry="0.708661" class="st29"/>
			</g>
			<g id="shape189-252" v:mID="189" v:groupContext="shape" transform="translate(1.03962,-2.59904)">
				<title>Sheet.189</title>
				<path d="M0 260.34 L2.91 260.34" class="st30"/>
			</g>
		</g>
		<g id="shape190-255" v:mID="190" v:groupContext="shape" transform="translate(62.0743,-210.24)">
			<title>Sheet.190</title>
			<desc>Folder A</desc>
			<v:textBlock v:margins="rect(4,4,4,4)" v:tabSpace="42.5197"/>
			<v:textRect cx="18.9921" cy="255.242" width="37.99" height="10.2047"/>
			<rect x="0" y="250.14" width="37.9843" height="10.2047" class="st20"/>
			<text x="4" y="258.84" class="st31" v:langID="1033"><v:paragraph/><v:tabList/><tspan class="st32">Folder</tspan><tspan
						class="st32" v:langID="2070"> </tspan><tspan class="st32" v:langID="2070">A</tspan></text>		</g>
		<g id="group191-261" transform="translate(54.6823,-197.484)" v:mID="191" v:groupContext="group">
			<title>Sheet.191</title>
			<g id="shape192-262" v:mID="192" v:groupContext="shape">
				<title>Sheet.192</title>
				<rect x="0" y="255.146" width="4.99016" height="5.19808" rx="0.708661" ry="0.708661" class="st29"/>
			</g>
			<g id="shape193-264" v:mID="193" v:groupContext="shape" transform="translate(1.03962,-2.59904)">
				<title>Sheet.193</title>
				<path d="M0 260.34 L2.91 260.34" class="st30"/>
			</g>
		</g>
		<g id="shape194-267" v:mID="194" v:groupContext="shape" transform="translate(59.5231,-200.017)">
			<title>Sheet.194</title>
			<path d="M0 260.34 L9.64 260.34" class="st22"/>
		</g>
		<g id="group195-270" transform="translate(68.7357,-196.313)" v:mID="195" v:groupContext="group">
			<title>Sheet.195</title>
			<g id="shape196-271" v:mID="196" v:groupContext="shape" transform="translate(-2.9976E-015,-0.00718152)">
				<title>Sheet.196</title>
				<path d="M11.73 254.41 a0.517446 0.517446 -180 0 0 -0.5178 -0.51795 L6.4 253.89 A2.39972 2.39972 -180 0 0 6.22 253.41
							 a0.684201 0.684201 -180 0 0 -0.433988 -0.463969 L3.26 252.94 a0.671094 0.671094 -180 0 0 -0.437212 0.43125
							 A3.14901 3.14901 -180 0 0 2.64 253.81 A10.4434 10.4434 -180 0 0 2.54 254.41 L2.54 255.14 L0.2 255.14
							 a0.175537 0.175537 -180 0 0 -0.1719 0.2712 L2.23 260.07 a0.5185 0.5185 -180 0 0 0.42825 0.2712 L11.38
							 260.34 a0.379891 0.379891 -180 0 0 0.3123 -0.14205 A4923.22 4923.22 -180 0 0 11.73 254.41 Z"
						class="st23"/>
			</g>
			<g id="shape197-273" v:mID="197" v:groupContext="shape" transform="translate(2.54014,-0.291596)">
				<title>Sheet.197</title>
				<path d="M9.19 254.7 a0.517446 0.517446 -180 0 0 -0.5178 -0.51795 L3.86 254.18 A2.39972 2.39972 -180 0 0 3.68 253.69
							 a0.684201 0.684201 -180 0 0 -0.433988 -0.463969 L0.72 253.23 a0.671094 0.671094 -180 0 0 -0.437213 0.43125
							 A3.14901 3.14901 -180 0 0 0.1 254.09 A10.4434 10.4434 -180 0 0 0 254.7 L0 255.43 L6.53 255.43 L9.12
							 260.34 a0.511935 0.511935 -180 0 0 0.0693 -0.25455 L9.19 254.7 Z" class="st24"/>
			</g>
			<g id="shape198-276" v:mID="198" v:groupContext="shape" transform="translate(0.000253651,0)">
				<title>Sheet.198</title>
				<path d="M11.68 260.09 A11.6149 11.6149 0 0 1 11.39 260.26 a0.437107 0.437107 -180 0 0 0.12885 -0.47505 L9.21 255.4
							 a0.547699 0.547699 -180 0 0 -0.4398 -0.2655 L0.2 255.14 a0.175537 0.175537 -180 0 0 -0.1719 0.2712 L2.23
							 260.07 a0.5185 0.5185 -180 0 0 0.42825 0.2712 L11.38 260.34 a0.332841 0.332841 -180 0 0 0.297 -0.0825
							 A1.07388 1.07388 -180 0 0 11.68 260.09 Z" class="st25"/>
			</g>
			<g id="shape199-279" v:mID="199" v:groupContext="shape" transform="translate(0.0625871,-0.144596)">
				<title>Sheet.199</title>
				<path d="M8.77 255.19 L0.2 255.19 a0.173618 0.173618 -180 0 0 -0.19545 0.14655 A313.406 313.406 0 0 1 8.93 255.36
							 A137.265 137.265 0 0 1 11.55 260.26 a0.46976 0.46976 -180 0 0 -0.0117 0.07575 L11.56 260.34 a0.232831
							 0.232831 -180 0 0 0.1245 -0.0987 a0.365189 0.365189 -180 0 0 -0.03285 -0.11925 L9.15 255.38 a0.554407
							 0.554407 -180 0 0 -0.3858 -0.18945 Z" class="st26"/>
			</g>
			<g id="shape200-281" v:mID="200" v:groupContext="shape" transform="translate(0.00633715,-0.0506961)">
				<title>Sheet.200</title>
				<path d="M8.77 255.19 L0.2 255.19 a0.173618 0.173618 -180 0 0 -0.19545 0.14655 L8.96 255.33 L11.55 260.26 a0.453709
							 0.453709 -180 0 0 -0.0117 0.07575 L11.56 260.34 a0.233503 0.233503 -180 0 0 0.1245 -0.0987 a0.369262
							 0.369262 -180 0 0 -0.03285 -0.11925 L9.15 255.38 a0.41511 0.41511 -180 0 0 -0.38565 -0.18945 Z"
						class="st27"/>
			</g>
			<g id="shape201-283" v:mID="201" v:groupContext="shape" transform="translate(0.000253651,-0.00701692)">
				<title>Sheet.201</title>
				<path d="M11.73 254.41 a0.517446 0.517446 -180 0 0 -0.5178 -0.51795 L6.4 253.89 A2.39972 2.39972 -180 0 0 6.22 253.41
							 a0.684201 0.684201 -180 0 0 -0.433988 -0.463969 L3.26 252.94 a0.671094 0.671094 -180 0 0 -0.437212 0.43125
							 A3.14901 3.14901 -180 0 0 2.64 253.81 A10.4434 10.4434 -180 0 0 2.54 254.41 L2.54 255.14 L0.2 255.14
							 a0.175537 0.175537 -180 0 0 -0.1719 0.2712 L2.23 260.07 a0.5185 0.5185 -180 0 0 0.42825 0.2712 L11.38
							 260.34 a0.379891 0.379891 -180 0 0 0.3123 -0.14205 A4923.22 4923.22 -180 0 0 11.73 254.41 Z"
						class="st28"/>
			</g>
		</g>
		<g id="shape202-285" v:mID="202" v:groupContext="shape" transform="translate(79.5074,-195.783)">
			<title>Sheet.202</title>
			<desc>Folder B</desc>
			<v:textBlock v:margins="rect(4,4,4,4)" v:tabSpace="42.5197"/>
			<v:textRect cx="18.9921" cy="255.242" width="37.99" height="10.2047"/>
			<rect x="0" y="250.14" width="37.9843" height="10.2047" class="st20"/>
			<text x="4" y="258.84" class="st31" v:langID="1033"><v:paragraph/><v:tabList/><tspan class="st32">Folder</tspan><tspan
						class="st32" v:langID="2070"> </tspan><tspan class="st32">B</tspan></text>		</g>
		<g id="shape212-291" v:mID="212" v:groupContext="shape" transform="translate(334.82,64.5132) rotate(90)">
			<title>Sheet.212</title>
			<path d="M0 260.34 L11.34 260.34" class="st22"/>
		</g>
		<g id="shape213-294" v:mID="213" v:groupContext="shape" transform="translate(76.8216,-184.426)">
			<title>Sheet.213</title>
			<path d="M0 260.34 L9.64 260.34" class="st22"/>
		</g>
		<g id="group214-297" transform="translate(86.0342,-180.723)" v:mID="214" v:groupContext="group">
			<title>Sheet.214</title>
			<g id="shape215-298" v:mID="215" v:groupContext="shape" transform="translate(-2.9976E-015,-0.00718152)">
				<title>Sheet.215</title>
				<path d="M11.73 254.41 a0.517446 0.517446 -180 0 0 -0.5178 -0.51795 L6.4 253.89 A2.39972 2.39972 -180 0 0 6.22 253.41
							 a0.684201 0.684201 -180 0 0 -0.433988 -0.463969 L3.26 252.94 a0.671094 0.671094 -180 0 0 -0.437212 0.43125
							 A3.14901 3.14901 -180 0 0 2.64 253.81 A10.4434 10.4434 -180 0 0 2.54 254.41 L2.54 255.14 L0.2 255.14
							 a0.175537 0.175537 -180 0 0 -0.1719 0.2712 L2.23 260.07 a0.5185 0.5185 -180 0 0 0.42825 0.2712 L11.38
							 260.34 a0.379891 0.379891 -180 0 0 0.3123 -0.14205 A4923.22 4923.22 -180 0 0 11.73 254.41 Z"
						class="st23"/>
			</g>
			<g id="shape216-300" v:mID="216" v:groupContext="shape" transform="translate(2.54014,-0.291596)">
				<title>Sheet.216</title>
				<path d="M9.19 254.7 a0.517446 0.517446 -180 0 0 -0.5178 -0.51795 L3.86 254.18 A2.39972 2.39972 -180 0 0 3.68 253.69
							 a0.684201 0.684201 -180 0 0 -0.433988 -0.463969 L0.72 253.23 a0.671094 0.671094 -180 0 0 -0.437213 0.43125
							 A3.14901 3.14901 -180 0 0 0.1 254.09 A10.4434 10.4434 -180 0 0 0 254.7 L0 255.43 L6.53 255.43 L9.12
							 260.34 a0.511935 0.511935 -180 0 0 0.0693 -0.25455 L9.19 254.7 Z" class="st24"/>
			</g>
			<g id="shape217-303" v:mID="217" v:groupContext="shape" transform="translate(0.000253651,0)">
				<title>Sheet.217</title>
				<path d="M11.68 260.09 A11.6149 11.6149 0 0 1 11.39 260.26 a0.437107 0.437107 -180 0 0 0.12885 -0.47505 L9.21 255.4
							 a0.547699 0.547699 -180 0 0 -0.4398 -0.2655 L0.2 255.14 a0.175537 0.175537 -180 0 0 -0.1719 0.2712 L2.23
							 260.07 a0.5185 0.5185 -180 0 0 0.42825 0.2712 L11.38 260.34 a0.332841 0.332841 -180 0 0 0.297 -0.0825
							 A1.07388 1.07388 -180 0 0 11.68 260.09 Z" class="st25"/>
			</g>
			<g id="shape218-306" v:mID="218" v:groupContext="shape" transform="translate(0.0625871,-0.144596)">
				<title>Sheet.218</title>
				<path d="M8.77 255.19 L0.2 255.19 a0.173618 0.173618 -180 0 0 -0.19545 0.14655 A313.406 313.406 0 0 1 8.93 255.36
							 A137.265 137.265 0 0 1 11.55 260.26 a0.46976 0.46976 -180 0 0 -0.0117 0.07575 L11.56 260.34 a0.232831
							 0.232831 -180 0 0 0.1245 -0.0987 a0.365189 0.365189 -180 0 0 -0.03285 -0.11925 L9.15 255.38 a0.554407
							 0.554407 -180 0 0 -0.3858 -0.18945 Z" class="st26"/>
			</g>
			<g id="shape219-308" v:mID="219" v:groupContext="shape" transform="translate(0.00633715,-0.0506961)">
				<title>Sheet.219</title>
				<path d="M8.77 255.19 L0.2 255.19 a0.173618 0.173618 -180 0 0 -0.19545 0.14655 L8.96 255.33 L11.55 260.26 a0.453709
							 0.453709 -180 0 0 -0.0117 0.07575 L11.56 260.34 a0.233503 0.233503 -180 0 0 0.1245 -0.0987 a0.369262
							 0.369262 -180 0 0 -0.03285 -0.11925 L9.15 255.38 a0.41511 0.41511 -180 0 0 -0.38565 -0.18945 Z"
						class="st27"/>
			</g>
			<g id="shape220-310" v:mID="220" v:groupContext="shape" transform="translate(0.000253651,-0.00701692)">
				<title>Sheet.220</title>
				<path d="M11.73 254.41 a0.517446 0.517446 -180 0 0 -0.5178 -0.51795 L6.4 253.89 A2.39972 2.39972 -180 0 0 6.22 253.41
							 a0.684201 0.684201 -180 0 0 -0.433988 -0.463969 L3.26 252.94 a0.671094 0.671094 -180 0 0 -0.437212 0.43125
							 A3.14901 3.14901 -180 0 0 2.64 253.81 A10.4434 10.4434 -180 0 0 2.54 254.41 L2.54 255.14 L0.2 255.14
							 a0.175537 0.175537 -180 0 0 -0.1719 0.2712 L2.23 260.07 a0.5185 0.5185 -180 0 0 0.42825 0.2712 L11.38
							 260.34 a0.379891 0.379891 -180 0 0 0.3123 -0.14205 A4923.22 4923.22 -180 0 0 11.73 254.41 Z"
						class="st28"/>
			</g>
		</g>
		<g id="shape221-312" v:mID="221" v:groupContext="shape" transform="translate(96.8058,-180.193)">
			<title>Sheet.221</title>
			<desc>Folder C</desc>
			<v:textBlock v:margins="rect(4,4,4,4)" v:tabSpace="42.5197"/>
			<v:textRect cx="18.9921" cy="255.242" width="37.99" height="10.2047"/>
			<rect x="0" y="250.14" width="37.9843" height="10.2047" class="st20"/>
			<text x="4" y="258.84" class="st31" v:langID="1033"><v:paragraph/><v:tabList/><tspan class="st32">Folder</tspan><tspan
						class="st32" v:langID="2070"> </tspan><tspan class="st32">C</tspan></text>		</g>
		<g id="shape222-318" v:mID="222" v:groupContext="shape" transform="translate(353.022,80.1516) rotate(90)">
			<title>Sheet.222</title>
			<path d="M0 260.34 L11.34 260.34" class="st22"/>
		</g>
		<g id="shape223-321" v:mID="223" v:groupContext="shape" transform="translate(95.0232,-168.788)">
			<title>Sheet.223</title>
			<path d="M0 260.34 L9.64 260.34" class="st22"/>
		</g>
		<g id="shape224-324" v:mID="224" v:groupContext="shape" transform="translate(115.007,-164.554)">
			<title>Sheet.224</title>
			<desc>Folder D</desc>
			<v:textBlock v:margins="rect(4,4,4,4)" v:tabSpace="42.5197"/>
			<v:textRect cx="21.0063" cy="255.242" width="42.02" height="10.2047"/>
			<rect x="0" y="250.14" width="42.0127" height="10.2047" class="st20"/>
			<text x="4" y="258.84" class="st31" v:langID="1033"><v:paragraph/><v:tabList/><tspan class="st32">Folder</tspan><tspan
						class="st32" v:langID="2070"> </tspan><tspan class="st32">D</tspan></text>		</g>
		<g id="shape225-330" v:mID="225" v:groupContext="shape" transform="translate(371.224,94.3248) rotate(90)">
			<title>Sheet.225</title>
			<path d="M0 260.34 L11.34 260.34" class="st22"/>
		</g>
		<g id="shape226-333" v:mID="226" v:groupContext="shape" transform="translate(113.225,-154.615)">
			<title>Sheet.226</title>
			<path d="M0 260.34 L9.64 260.34" class="st22"/>
		</g>
		<g id="shape227-336" v:mID="227" v:groupContext="shape" transform="translate(132.289,-150.381)">
			<title>Sheet.227</title>
			<desc>Document A (Optional)</desc>
			<v:textBlock v:margins="rect(4,4,4,4)" v:tabSpace="42.5197"/>
			<v:textRect cx="56.2988" cy="255.242" width="112.6" height="10.2047"/>
			<rect x="0" y="250.14" width="112.598" height="10.2047" class="st20"/>
			<text x="4" y="258.84" class="st33" v:langID="1033"><v:paragraph/><v:tabList/><tspan class="st32">Document A </tspan><tspan
						class="st32">(</tspan><tspan class="st32">Optional</tspan><tspan class="st32">)</tspan></text>		</g>
		<g id="shape228-343" v:mID="228" v:groupContext="shape" transform="translate(353.022,91.0177) rotate(90)">
			<title>Sheet.228</title>
			<path d="M0 260.34 L31.61 260.34" class="st22"/>
		</g>
		<g id="group229-346" transform="translate(90.1825,-135.122)" v:mID="229" v:groupContext="group">
			<title>Sheet.229</title>
			<g id="shape230-347" v:mID="230" v:groupContext="shape">
				<title>Sheet.230</title>
				<rect x="0" y="255.146" width="4.99016" height="5.19808" rx="0.708661" ry="0.708661" class="st29"/>
			</g>
			<g id="shape231-349" v:mID="231" v:groupContext="shape" transform="translate(1.03962,-2.59904)">
				<title>Sheet.231</title>
				<path d="M0 260.34 L2.91 260.34" class="st30"/>
			</g>
		</g>
		<g id="shape232-352" v:mID="232" v:groupContext="shape" transform="translate(95.0232,-137.655)">
			<title>Sheet.232</title>
			<path d="M0 260.34 L9.64 260.34" class="st22"/>
		</g>
		<g id="group233-355" transform="translate(104.374,-133.951)" v:mID="233" v:groupContext="group">
			<title>Sheet.233</title>
			<g id="shape234-356" v:mID="234" v:groupContext="shape" transform="translate(-2.9976E-015,-0.00718152)">
				<title>Sheet.234</title>
				<path d="M11.73 254.41 a0.517446 0.517446 -180 0 0 -0.5178 -0.51795 L6.4 253.89 A2.39972 2.39972 -180 0 0 6.22 253.41
							 a0.684201 0.684201 -180 0 0 -0.433988 -0.463969 L3.26 252.94 a0.671094 0.671094 -180 0 0 -0.437212 0.43125
							 A3.14901 3.14901 -180 0 0 2.64 253.81 A10.4434 10.4434 -180 0 0 2.54 254.41 L2.54 255.14 L0.2 255.14
							 a0.175537 0.175537 -180 0 0 -0.1719 0.2712 L2.23 260.07 a0.5185 0.5185 -180 0 0 0.42825 0.2712 L11.38
							 260.34 a0.379891 0.379891 -180 0 0 0.3123 -0.14205 A4923.22 4923.22 -180 0 0 11.73 254.41 Z"
						class="st23"/>
			</g>
			<g id="shape235-358" v:mID="235" v:groupContext="shape" transform="translate(2.54014,-0.291596)">
				<title>Sheet.235</title>
				<path d="M9.19 254.7 a0.517446 0.517446 -180 0 0 -0.5178 -0.51795 L3.86 254.18 A2.39972 2.39972 -180 0 0 3.68 253.69
							 a0.684201 0.684201 -180 0 0 -0.433988 -0.463969 L0.72 253.23 a0.671094 0.671094 -180 0 0 -0.437213 0.43125
							 A3.14901 3.14901 -180 0 0 0.1 254.09 A10.4434 10.4434 -180 0 0 0 254.7 L0 255.43 L6.53 255.43 L9.12
							 260.34 a0.511935 0.511935 -180 0 0 0.0693 -0.25455 L9.19 254.7 Z" class="st24"/>
			</g>
			<g id="shape236-361" v:mID="236" v:groupContext="shape" transform="translate(0.000253651,0)">
				<title>Sheet.236</title>
				<path d="M11.68 260.09 A11.6149 11.6149 0 0 1 11.39 260.26 a0.437107 0.437107 -180 0 0 0.12885 -0.47505 L9.21 255.4
							 a0.547699 0.547699 -180 0 0 -0.4398 -0.2655 L0.2 255.14 a0.175537 0.175537 -180 0 0 -0.1719 0.2712 L2.23
							 260.07 a0.5185 0.5185 -180 0 0 0.42825 0.2712 L11.38 260.34 a0.332841 0.332841 -180 0 0 0.297 -0.0825
							 A1.07388 1.07388 -180 0 0 11.68 260.09 Z" class="st25"/>
			</g>
			<g id="shape237-364" v:mID="237" v:groupContext="shape" transform="translate(0.0625871,-0.144596)">
				<title>Sheet.237</title>
				<path d="M8.77 255.19 L0.2 255.19 a0.173618 0.173618 -180 0 0 -0.19545 0.14655 A313.406 313.406 0 0 1 8.93 255.36
							 A137.265 137.265 0 0 1 11.55 260.26 a0.46976 0.46976 -180 0 0 -0.0117 0.07575 L11.56 260.34 a0.232831
							 0.232831 -180 0 0 0.1245 -0.0987 a0.365189 0.365189 -180 0 0 -0.03285 -0.11925 L9.15 255.38 a0.554407
							 0.554407 -180 0 0 -0.3858 -0.18945 Z" class="st26"/>
			</g>
			<g id="shape238-366" v:mID="238" v:groupContext="shape" transform="translate(0.00633715,-0.0506961)">
				<title>Sheet.238</title>
				<path d="M8.77 255.19 L0.2 255.19 a0.173618 0.173618 -180 0 0 -0.19545 0.14655 L8.96 255.33 L11.55 260.26 a0.453709
							 0.453709 -180 0 0 -0.0117 0.07575 L11.56 260.34 a0.233503 0.233503 -180 0 0 0.1245 -0.0987 a0.369262
							 0.369262 -180 0 0 -0.03285 -0.11925 L9.15 255.38 a0.41511 0.41511 -180 0 0 -0.38565 -0.18945 Z"
						class="st27"/>
			</g>
			<g id="shape239-368" v:mID="239" v:groupContext="shape" transform="translate(0.000253651,-0.00701692)">
				<title>Sheet.239</title>
				<path d="M11.73 254.41 a0.517446 0.517446 -180 0 0 -0.5178 -0.51795 L6.4 253.89 A2.39972 2.39972 -180 0 0 6.22 253.41
							 a0.684201 0.684201 -180 0 0 -0.433988 -0.463969 L3.26 252.94 a0.671094 0.671094 -180 0 0 -0.437212 0.43125
							 A3.14901 3.14901 -180 0 0 2.64 253.81 A10.4434 10.4434 -180 0 0 2.54 254.41 L2.54 255.14 L0.2 255.14
							 a0.175537 0.175537 -180 0 0 -0.1719 0.2712 L2.23 260.07 a0.5185 0.5185 -180 0 0 0.42825 0.2712 L11.38
							 260.34 a0.379891 0.379891 -180 0 0 0.3123 -0.14205 A4923.22 4923.22 -180 0 0 11.73 254.41 Z"
						class="st28"/>
			</g>
		</g>
		<g id="shape240-370" v:mID="240" v:groupContext="shape" transform="translate(115.007,-133.421)">
			<title>Sheet.240</title>
			<desc>Folder E</desc>
			<v:textBlock v:margins="rect(4,4,4,4)" v:tabSpace="42.5197"/>
			<v:textRect cx="18.9921" cy="255.242" width="37.99" height="10.2047"/>
			<rect x="0" y="250.14" width="37.9843" height="10.2047" class="st20"/>
			<text x="4" y="258.84" class="st31" v:langID="1033"><v:paragraph/><v:tabList/><tspan class="st32">Folder</tspan><tspan
						class="st32" v:langID="2070"> </tspan><tspan class="st32">E</tspan></text>		</g>
		<g id="shape241-376" v:mID="241" v:groupContext="shape" transform="translate(370.253,125.458) rotate(90)">
			<title>Sheet.241</title>
			<path d="M0 260.34 L11.34 260.34" class="st22"/>
		</g>
		<g id="shape242-379" v:mID="242" v:groupContext="shape" transform="translate(112.255,-123.482)">
			<title>Sheet.242</title>
			<path d="M0 260.34 L9.64 260.34" class="st22"/>
		</g>
		<g id="shape243-382" v:mID="243" v:groupContext="shape" transform="translate(132.289,-119.248)">
			<title>Sheet.243</title>
			<desc>Document B (Mandatory)</desc>
			<v:textBlock v:margins="rect(4,4,4,4)" v:tabSpace="42.5197"/>
			<v:textRect cx="54.3612" cy="255.242" width="108.73" height="10.2047"/>
			<rect x="0" y="250.14" width="108.722" height="10.2047" class="st20"/>
			<text x="4" y="258.84" class="st33" v:langID="1033"><v:paragraph/><v:tabList/><tspan class="st32">Document B </tspan><tspan
						class="st32">(</tspan><tspan class="st32">Mandatory</tspan><tspan class="st32">)</tspan></text>		</g>
		<g id="shape244-389" v:mID="244" v:groupContext="shape" transform="translate(334.847,75.8996) rotate(90)">
			<title>Sheet.244</title>
			<path d="M0 260.34 L77.9 260.34" class="st22"/>
		</g>
		<g id="group245-392" transform="translate(72.0071,-103.941)" v:mID="245" v:groupContext="group">
			<title>Sheet.245</title>
			<g id="shape246-393" v:mID="246" v:groupContext="shape">
				<title>Sheet.246</title>
				<rect x="0" y="255.146" width="4.99016" height="5.19808" rx="0.708661" ry="0.708661" class="st29"/>
			</g>
			<g id="shape247-395" v:mID="247" v:groupContext="shape" transform="translate(1.03962,-2.59904)">
				<title>Sheet.247</title>
				<path d="M0 260.34 L2.91 260.34" class="st30"/>
			</g>
		</g>
		<g id="shape248-398" v:mID="248" v:groupContext="shape" transform="translate(76.8479,-106.474)">
			<title>Sheet.248</title>
			<path d="M0 260.34 L9.64 260.34" class="st22"/>
		</g>
		<g id="group249-401" transform="translate(86.0605,-102.77)" v:mID="249" v:groupContext="group">
			<title>Sheet.249</title>
			<g id="shape250-402" v:mID="250" v:groupContext="shape" transform="translate(-2.9976E-015,-0.00718152)">
				<title>Sheet.250</title>
				<path d="M11.73 254.41 a0.517446 0.517446 -180 0 0 -0.5178 -0.51795 L6.4 253.89 A2.39972 2.39972 -180 0 0 6.22 253.41
							 a0.684201 0.684201 -180 0 0 -0.433988 -0.463969 L3.26 252.94 a0.671094 0.671094 -180 0 0 -0.437212 0.43125
							 A3.14901 3.14901 -180 0 0 2.64 253.81 A10.4434 10.4434 -180 0 0 2.54 254.41 L2.54 255.14 L0.2 255.14
							 a0.175537 0.175537 -180 0 0 -0.1719 0.2712 L2.23 260.07 a0.5185 0.5185 -180 0 0 0.42825 0.2712 L11.38
							 260.34 a0.379891 0.379891 -180 0 0 0.3123 -0.14205 A4923.22 4923.22 -180 0 0 11.73 254.41 Z"
						class="st23"/>
			</g>
			<g id="shape251-404" v:mID="251" v:groupContext="shape" transform="translate(2.54014,-0.291596)">
				<title>Sheet.251</title>
				<path d="M9.19 254.7 a0.517446 0.517446 -180 0 0 -0.5178 -0.51795 L3.86 254.18 A2.39972 2.39972 -180 0 0 3.68 253.69
							 a0.684201 0.684201 -180 0 0 -0.433988 -0.463969 L0.72 253.23 a0.671094 0.671094 -180 0 0 -0.437213 0.43125
							 A3.14901 3.14901 -180 0 0 0.1 254.09 A10.4434 10.4434 -180 0 0 0 254.7 L0 255.43 L6.53 255.43 L9.12
							 260.34 a0.511935 0.511935 -180 0 0 0.0693 -0.25455 L9.19 254.7 Z" class="st24"/>
			</g>
			<g id="shape252-407" v:mID="252" v:groupContext="shape" transform="translate(0.000253651,0)">
				<title>Sheet.252</title>
				<path d="M11.68 260.09 A11.6149 11.6149 0 0 1 11.39 260.26 a0.437107 0.437107 -180 0 0 0.12885 -0.47505 L9.21 255.4
							 a0.547699 0.547699 -180 0 0 -0.4398 -0.2655 L0.2 255.14 a0.175537 0.175537 -180 0 0 -0.1719 0.2712 L2.23
							 260.07 a0.5185 0.5185 -180 0 0 0.42825 0.2712 L11.38 260.34 a0.332841 0.332841 -180 0 0 0.297 -0.0825
							 A1.07388 1.07388 -180 0 0 11.68 260.09 Z" class="st25"/>
			</g>
			<g id="shape253-410" v:mID="253" v:groupContext="shape" transform="translate(0.0625871,-0.144596)">
				<title>Sheet.253</title>
				<path d="M8.77 255.19 L0.2 255.19 a0.173618 0.173618 -180 0 0 -0.19545 0.14655 A313.406 313.406 0 0 1 8.93 255.36
							 A137.265 137.265 0 0 1 11.55 260.26 a0.46976 0.46976 -180 0 0 -0.0117 0.07575 L11.56 260.34 a0.232831
							 0.232831 -180 0 0 0.1245 -0.0987 a0.365189 0.365189 -180 0 0 -0.03285 -0.11925 L9.15 255.38 a0.554407
							 0.554407 -180 0 0 -0.3858 -0.18945 Z" class="st26"/>
			</g>
			<g id="shape254-412" v:mID="254" v:groupContext="shape" transform="translate(0.00633715,-0.0506961)">
				<title>Sheet.254</title>
				<path d="M8.77 255.19 L0.2 255.19 a0.173618 0.173618 -180 0 0 -0.19545 0.14655 L8.96 255.33 L11.55 260.26 a0.453709
							 0.453709 -180 0 0 -0.0117 0.07575 L11.56 260.34 a0.233503 0.233503 -180 0 0 0.1245 -0.0987 a0.369262
							 0.369262 -180 0 0 -0.03285 -0.11925 L9.15 255.38 a0.41511 0.41511 -180 0 0 -0.38565 -0.18945 Z"
						class="st27"/>
			</g>
			<g id="shape255-414" v:mID="255" v:groupContext="shape" transform="translate(0.000253651,-0.00701692)">
				<title>Sheet.255</title>
				<path d="M11.73 254.41 a0.517446 0.517446 -180 0 0 -0.5178 -0.51795 L6.4 253.89 A2.39972 2.39972 -180 0 0 6.22 253.41
							 a0.684201 0.684201 -180 0 0 -0.433988 -0.463969 L3.26 252.94 a0.671094 0.671094 -180 0 0 -0.437212 0.43125
							 A3.14901 3.14901 -180 0 0 2.64 253.81 A10.4434 10.4434 -180 0 0 2.54 254.41 L2.54 255.14 L0.2 255.14
							 a0.175537 0.175537 -180 0 0 -0.1719 0.2712 L2.23 260.07 a0.5185 0.5185 -180 0 0 0.42825 0.2712 L11.38
							 260.34 a0.379891 0.379891 -180 0 0 0.3123 -0.14205 A4923.22 4923.22 -180 0 0 11.73 254.41 Z"
						class="st28"/>
			</g>
		</g>
		<g id="shape256-416" v:mID="256" v:groupContext="shape" transform="translate(96.8321,-102.24)">
			<title>Sheet.256</title>
			<desc>Folder F</desc>
			<v:textBlock v:margins="rect(4,4,4,4)" v:tabSpace="42.5197"/>
			<v:textRect cx="18.9921" cy="255.242" width="37.99" height="10.2047"/>
			<rect x="0" y="250.14" width="37.9843" height="10.2047" class="st20"/>
			<text x="4" y="258.84" class="st31" v:langID="1033"><v:paragraph/><v:tabList/><tspan class="st32">Folder</tspan><tspan
						class="st32" v:langID="2070"> </tspan><tspan class="st32">F</tspan></text>		</g>
		<g id="shape257-422" v:mID="257" v:groupContext="shape" transform="translate(352.078,168.612) rotate(90)">
			<title>Sheet.257</title>
			<path d="M0 260.34 L29.43 260.34" class="st22"/>
		</g>
		<g id="group258-425" transform="translate(89.2385,-59.7008)" v:mID="258" v:groupContext="group">
			<title>Sheet.258</title>
			<g id="shape259-426" v:mID="259" v:groupContext="shape">
				<title>Sheet.259</title>
				<rect x="0" y="255.146" width="4.99016" height="5.19808" rx="0.708661" ry="0.708661" class="st29"/>
			</g>
			<g id="shape260-428" v:mID="260" v:groupContext="shape" transform="translate(1.03962,-2.59904)">
				<title>Sheet.260</title>
				<path d="M0 260.34 L2.91 260.34" class="st30"/>
			</g>
		</g>
		<g id="shape261-431" v:mID="261" v:groupContext="shape" transform="translate(94.0793,-62.2335)">
			<title>Sheet.261</title>
			<path d="M0 260.34 L9.64 260.34" class="st22"/>
		</g>
		<g id="group262-434" transform="translate(104.374,-58.53)" v:mID="262" v:groupContext="group">
			<title>Sheet.262</title>
			<g id="shape263-435" v:mID="263" v:groupContext="shape" transform="translate(-2.9976E-015,-0.00718152)">
				<title>Sheet.263</title>
				<path d="M11.73 254.41 a0.517446 0.517446 -180 0 0 -0.5178 -0.51795 L6.4 253.89 A2.39972 2.39972 -180 0 0 6.22 253.41
							 a0.684201 0.684201 -180 0 0 -0.433988 -0.463969 L3.26 252.94 a0.671094 0.671094 -180 0 0 -0.437212 0.43125
							 A3.14901 3.14901 -180 0 0 2.64 253.81 A10.4434 10.4434 -180 0 0 2.54 254.41 L2.54 255.14 L0.2 255.14
							 a0.175537 0.175537 -180 0 0 -0.1719 0.2712 L2.23 260.07 a0.5185 0.5185 -180 0 0 0.42825 0.2712 L11.38
							 260.34 a0.379891 0.379891 -180 0 0 0.3123 -0.14205 A4923.22 4923.22 -180 0 0 11.73 254.41 Z"
						class="st23"/>
			</g>
			<g id="shape264-437" v:mID="264" v:groupContext="shape" transform="translate(2.54014,-0.291596)">
				<title>Sheet.264</title>
				<path d="M9.19 254.7 a0.517446 0.517446 -180 0 0 -0.5178 -0.51795 L3.86 254.18 A2.39972 2.39972 -180 0 0 3.68 253.69
							 a0.684201 0.684201 -180 0 0 -0.433988 -0.463969 L0.72 253.23 a0.671094 0.671094 -180 0 0 -0.437213 0.43125
							 A3.14901 3.14901 -180 0 0 0.1 254.09 A10.4434 10.4434 -180 0 0 0 254.7 L0 255.43 L6.53 255.43 L9.12
							 260.34 a0.511935 0.511935 -180 0 0 0.0693 -0.25455 L9.19 254.7 Z" class="st24"/>
			</g>
			<g id="shape265-440" v:mID="265" v:groupContext="shape" transform="translate(0.000253651,0)">
				<title>Sheet.265</title>
				<path d="M11.68 260.09 A11.6149 11.6149 0 0 1 11.39 260.26 a0.437107 0.437107 -180 0 0 0.12885 -0.47505 L9.21 255.4
							 a0.547699 0.547699 -180 0 0 -0.4398 -0.2655 L0.2 255.14 a0.175537 0.175537 -180 0 0 -0.1719 0.2712 L2.23
							 260.07 a0.5185 0.5185 -180 0 0 0.42825 0.2712 L11.38 260.34 a0.332841 0.332841 -180 0 0 0.297 -0.0825
							 A1.07388 1.07388 -180 0 0 11.68 260.09 Z" class="st25"/>
			</g>
			<g id="shape266-443" v:mID="266" v:groupContext="shape" transform="translate(0.0625871,-0.144596)">
				<title>Sheet.266</title>
				<path d="M8.77 255.19 L0.2 255.19 a0.173618 0.173618 -180 0 0 -0.19545 0.14655 A313.406 313.406 0 0 1 8.93 255.36
							 A137.265 137.265 0 0 1 11.55 260.26 a0.46976 0.46976 -180 0 0 -0.0117 0.07575 L11.56 260.34 a0.232831
							 0.232831 -180 0 0 0.1245 -0.0987 a0.365189 0.365189 -180 0 0 -0.03285 -0.11925 L9.15 255.38 a0.554407
							 0.554407 -180 0 0 -0.3858 -0.18945 Z" class="st26"/>
			</g>
			<g id="shape267-445" v:mID="267" v:groupContext="shape" transform="translate(0.00633715,-0.0506961)">
				<title>Sheet.267</title>
				<path d="M8.77 255.19 L0.2 255.19 a0.173618 0.173618 -180 0 0 -0.19545 0.14655 L8.96 255.33 L11.55 260.26 a0.453709
							 0.453709 -180 0 0 -0.0117 0.07575 L11.56 260.34 a0.233503 0.233503 -180 0 0 0.1245 -0.0987 a0.369262
							 0.369262 -180 0 0 -0.03285 -0.11925 L9.15 255.38 a0.41511 0.41511 -180 0 0 -0.38565 -0.18945 Z"
						class="st27"/>
			</g>
			<g id="shape268-447" v:mID="268" v:groupContext="shape" transform="translate(0.000253651,-0.00701692)">
				<title>Sheet.268</title>
				<path d="M11.73 254.41 a0.517446 0.517446 -180 0 0 -0.5178 -0.51795 L6.4 253.89 A2.39972 2.39972 -180 0 0 6.22 253.41
							 a0.684201 0.684201 -180 0 0 -0.433988 -0.463969 L3.26 252.94 a0.671094 0.671094 -180 0 0 -0.437212 0.43125
							 A3.14901 3.14901 -180 0 0 2.64 253.81 A10.4434 10.4434 -180 0 0 2.54 254.41 L2.54 255.14 L0.2 255.14
							 a0.175537 0.175537 -180 0 0 -0.1719 0.2712 L2.23 260.07 a0.5185 0.5185 -180 0 0 0.42825 0.2712 L11.38
							 260.34 a0.379891 0.379891 -180 0 0 0.3123 -0.14205 A4923.22 4923.22 -180 0 0 11.73 254.41 Z"
						class="st28"/>
			</g>
		</g>
		<g id="shape269-449" v:mID="269" v:groupContext="shape" transform="translate(115.007,-58)">
			<title>Sheet.269</title>
			<desc>Folder H</desc>
			<v:textBlock v:margins="rect(4,4,4,4)" v:tabSpace="42.5197"/>
			<v:textRect cx="23.0206" cy="255.242" width="46.05" height="10.2047"/>
			<rect x="0" y="250.14" width="46.0411" height="10.2047" class="st20"/>
			<text x="4" y="258.84" class="st31" v:langID="1033"><v:paragraph/><v:tabList/><tspan class="st32">Folder</tspan><tspan
						class="st32" v:langID="2070"> </tspan><tspan class="st32">H</tspan></text>		</g>
		<g id="shape270-455" v:mID="270" v:groupContext="shape" transform="translate(370.28,200.879) rotate(90)">
			<title>Sheet.270</title>
			<path d="M0 260.34 L11.34 260.34" class="st22"/>
		</g>
		<g id="shape271-458" v:mID="271" v:groupContext="shape" transform="translate(112.281,-48.0603)">
			<title>Sheet.271</title>
			<path d="M0 260.34 L9.64 260.34" class="st22"/>
		</g>
		<g id="shape272-461" v:mID="272" v:groupContext="shape" transform="translate(132.289,-43.8268)">
			<title>Sheet.272</title>
			<desc>Document C (Mandatory)</desc>
			<v:textBlock v:margins="rect(4,4,4,4)" v:tabSpace="42.5197"/>
			<v:textRect cx="53.3927" cy="255.242" width="106.79" height="10.2047"/>
			<rect x="0" y="250.14" width="106.785" height="10.2047" class="st20"/>
			<text x="4" y="258.84" class="st33" v:langID="1033"><v:paragraph/><v:tabList/><tspan class="st32">Document C </tspan><tspan
						class="st32">(</tspan><tspan class="st32">Mandatory</tspan><tspan class="st32">)</tspan></text>		</g>
		<g id="group303-468" transform="translate(123.6,-73.5906)" v:mID="303" v:groupContext="group">
			<title>Sheet.303</title>
			<g id="shape304-469" v:mID="304" v:groupContext="shape" transform="translate(-5.4956E-015,-0.00334063)">
				<title>Sheet.304</title>
				<path d="M7.91 252.95 L5.89 250.97 L0 250.97 L0 260.34 L7.91 260.34 L7.91 253.24 L7.91 253.24 L7.91 252.95 Z"
						class="st27"/>
			</g>
			<g id="shape305-471" v:mID="305" v:groupContext="shape" transform="translate(0.00792,0)">
				<title>Sheet.305</title>
				<path d="M5.88 250.97 L0 250.97 L0 260.34 L7.89 260.34 L7.89 252.94 L5.88 250.97 Z" class="st34"/>
			</g>
			<g id="shape306-477" v:mID="306" v:groupContext="shape" transform="translate(5.7534,-7.3374)">
				<title>Sheet.306</title>
				<path d="M2.15 260.28 L0.13 258.31 L0 258.31 L0 260.34 L2.15 260.34 L2.15 260.28 Z" class="st35"/>
			</g>
			<g id="shape307-479" v:mID="307" v:groupContext="shape" transform="translate(5.86752,-7.4514)">
				<title>Sheet.307</title>
				<path d="M0 260.34 L1.91 260.34 L0 258.49 L0 260.34 Z" class="st27"/>
			</g>
			<g id="shape308-481" v:mID="308" v:groupContext="shape" transform="translate(-5.4956E-015,-0.00396)">
				<title>Sheet.308</title>
				<path d="M7.91 252.95 L5.89 250.97 L0 250.97 L0 260.34 L7.91 260.34 L7.91 253.24 L7.91 253.24 L7.91 252.95 Z"
						class="st28"/>
			</g>
			<g id="shape309-483" v:mID="309" v:groupContext="shape" transform="translate(0.79104,-7.09656)">
				<title>Sheet.309</title>
				<rect x="0" y="260.259" width="3.66204" height="0.08556" class="st36"/>
			</g>
			<g id="shape310-487" v:mID="310" v:groupContext="shape" transform="translate(0.79104,-6.10356)">
				<title>Sheet.310</title>
				<rect x="0" y="260.259" width="6.02064" height="0.08556" class="st36"/>
			</g>
			<g id="shape311-490" v:mID="311" v:groupContext="shape" transform="translate(0.79104,-5.17248)">
				<title>Sheet.311</title>
				<rect x="0" y="260.259" width="6.02064" height="0.08544" class="st36"/>
			</g>
			<g id="shape312-493" v:mID="312" v:groupContext="shape" transform="translate(0.79104,-4.2414)">
				<title>Sheet.312</title>
				<rect x="0" y="260.259" width="6.02064" height="0.08556" class="st36"/>
			</g>
			<g id="shape313-496" v:mID="313" v:groupContext="shape" transform="translate(0.79104,-3.31032)">
				<title>Sheet.313</title>
				<rect x="0" y="260.259" width="6.02064" height="0.08556" class="st36"/>
			</g>
			<g id="shape314-499" v:mID="314" v:groupContext="shape" transform="translate(0.79104,-2.37936)">
				<title>Sheet.314</title>
				<rect x="0" y="260.259" width="6.02064" height="0.08556" class="st36"/>
			</g>
			<g id="shape315-502" v:mID="315" v:groupContext="shape" transform="translate(0.79104,-1.4484)">
				<title>Sheet.315</title>
				<rect x="0" y="260.259" width="6.02064" height="0.08544" class="st36"/>
			</g>
		</g>
		<g id="group316-505" transform="translate(90.1825,-166.255)" v:mID="316" v:groupContext="group">
			<title>Sheet.316</title>
			<g id="shape317-506" v:mID="317" v:groupContext="shape">
				<title>Sheet.317</title>
				<rect x="0" y="255.146" width="4.99016" height="5.19808" rx="0.708661" ry="0.708661" class="st29"/>
			</g>
			<g id="shape318-508" v:mID="318" v:groupContext="shape" transform="translate(1.03962,-2.59904)">
				<title>Sheet.318</title>
				<path d="M0 260.34 L2.91 260.34" class="st30"/>
			</g>
		</g>
		<g id="group335-511" transform="translate(71.9808,-181.894)" v:mID="335" v:groupContext="group">
			<title>Sheet.335</title>
			<g id="shape336-512" v:mID="336" v:groupContext="shape">
				<title>Sheet.336</title>
				<rect x="0" y="255.146" width="4.99016" height="5.19808" rx="0.708661" ry="0.708661" class="st29"/>
			</g>
			<g id="shape337-514" v:mID="337" v:groupContext="shape" transform="translate(1.03962,-2.59904)">
				<title>Sheet.337</title>
				<path d="M0 260.34 L2.91 260.34" class="st30"/>
			</g>
		</g>
		<g id="shape338-517" v:mID="338" v:groupContext="shape" transform="translate(351.672,156.99) rotate(90)">
			<title>Sheet.338</title>
			<path d="M0 260.34 L11.34 260.34" class="st22"/>
		</g>
		<g id="group339-520" transform="translate(88.8322,-89.4167)" v:mID="339" v:groupContext="group">
			<title>Sheet.339</title>
			<g id="shape340-521" v:mID="340" v:groupContext="shape">
				<title>Sheet.340</title>
				<rect x="0" y="255.146" width="4.99016" height="5.19808" rx="0.708661" ry="0.708661" class="st29"/>
			</g>
			<g id="shape341-523" v:mID="341" v:groupContext="shape" transform="translate(1.03962,-2.59904)">
				<title>Sheet.341</title>
				<path d="M0 260.34 L2.91 260.34" class="st30"/>
			</g>
		</g>
		<g id="shape342-526" v:mID="342" v:groupContext="shape" transform="translate(93.673,-91.9494)">
			<title>Sheet.342</title>
			<path d="M0 260.34 L9.64 260.34" class="st22"/>
		</g>
		<g id="group343-529" transform="translate(102.886,-88.2459)" v:mID="343" v:groupContext="group">
			<title>Sheet.343</title>
			<g id="shape344-530" v:mID="344" v:groupContext="shape" transform="translate(-2.9976E-015,-0.00718152)">
				<title>Sheet.344</title>
				<path d="M11.73 254.41 a0.517446 0.517446 -180 0 0 -0.5178 -0.51795 L6.4 253.89 A2.39972 2.39972 -180 0 0 6.22 253.41
							 a0.684201 0.684201 -180 0 0 -0.433988 -0.463969 L3.26 252.94 a0.671094 0.671094 -180 0 0 -0.437212 0.43125
							 A3.14901 3.14901 -180 0 0 2.64 253.81 A10.4434 10.4434 -180 0 0 2.54 254.41 L2.54 255.14 L0.2 255.14
							 a0.175537 0.175537 -180 0 0 -0.1719 0.2712 L2.23 260.07 a0.5185 0.5185 -180 0 0 0.42825 0.2712 L11.38
							 260.34 a0.379891 0.379891 -180 0 0 0.3123 -0.14205 A4923.22 4923.22 -180 0 0 11.73 254.41 Z"
						class="st23"/>
			</g>
			<g id="shape345-532" v:mID="345" v:groupContext="shape" transform="translate(2.54014,-0.291596)">
				<title>Sheet.345</title>
				<path d="M9.19 254.7 a0.517446 0.517446 -180 0 0 -0.5178 -0.51795 L3.86 254.18 A2.39972 2.39972 -180 0 0 3.68 253.69
							 a0.684201 0.684201 -180 0 0 -0.433988 -0.463969 L0.72 253.23 a0.671094 0.671094 -180 0 0 -0.437213 0.43125
							 A3.14901 3.14901 -180 0 0 0.1 254.09 A10.4434 10.4434 -180 0 0 0 254.7 L0 255.43 L6.53 255.43 L9.12
							 260.34 a0.511935 0.511935 -180 0 0 0.0693 -0.25455 L9.19 254.7 Z" class="st24"/>
			</g>
			<g id="shape346-535" v:mID="346" v:groupContext="shape" transform="translate(0.000253651,0)">
				<title>Sheet.346</title>
				<path d="M11.68 260.09 A11.6149 11.6149 0 0 1 11.39 260.26 a0.437107 0.437107 -180 0 0 0.12885 -0.47505 L9.21 255.4
							 a0.547699 0.547699 -180 0 0 -0.4398 -0.2655 L0.2 255.14 a0.175537 0.175537 -180 0 0 -0.1719 0.2712 L2.23
							 260.07 a0.5185 0.5185 -180 0 0 0.42825 0.2712 L11.38 260.34 a0.332841 0.332841 -180 0 0 0.297 -0.0825
							 A1.07388 1.07388 -180 0 0 11.68 260.09 Z" class="st25"/>
			</g>
			<g id="shape347-538" v:mID="347" v:groupContext="shape" transform="translate(0.0625871,-0.144596)">
				<title>Sheet.347</title>
				<path d="M8.77 255.19 L0.2 255.19 a0.173618 0.173618 -180 0 0 -0.19545 0.14655 A313.406 313.406 0 0 1 8.93 255.36
							 A137.265 137.265 0 0 1 11.55 260.26 a0.46976 0.46976 -180 0 0 -0.0117 0.07575 L11.56 260.34 a0.232831
							 0.232831 -180 0 0 0.1245 -0.0987 a0.365189 0.365189 -180 0 0 -0.03285 -0.11925 L9.15 255.38 a0.554407
							 0.554407 -180 0 0 -0.3858 -0.18945 Z" class="st26"/>
			</g>
			<g id="shape348-540" v:mID="348" v:groupContext="shape" transform="translate(0.00633715,-0.0506961)">
				<title>Sheet.348</title>
				<path d="M8.77 255.19 L0.2 255.19 a0.173618 0.173618 -180 0 0 -0.19545 0.14655 L8.96 255.33 L11.55 260.26 a0.453709
							 0.453709 -180 0 0 -0.0117 0.07575 L11.56 260.34 a0.233503 0.233503 -180 0 0 0.1245 -0.0987 a0.369262
							 0.369262 -180 0 0 -0.03285 -0.11925 L9.15 255.38 a0.41511 0.41511 -180 0 0 -0.38565 -0.18945 Z"
						class="st27"/>
			</g>
			<g id="shape349-542" v:mID="349" v:groupContext="shape" transform="translate(0.000253651,-0.00701692)">
				<title>Sheet.349</title>
				<path d="M11.73 254.41 a0.517446 0.517446 -180 0 0 -0.5178 -0.51795 L6.4 253.89 A2.39972 2.39972 -180 0 0 6.22 253.41
							 a0.684201 0.684201 -180 0 0 -0.433988 -0.463969 L3.26 252.94 a0.671094 0.671094 -180 0 0 -0.437212 0.43125
							 A3.14901 3.14901 -180 0 0 2.64 253.81 A10.4434 10.4434 -180 0 0 2.54 254.41 L2.54 255.14 L0.2 255.14
							 a0.175537 0.175537 -180 0 0 -0.1719 0.2712 L2.23 260.07 a0.5185 0.5185 -180 0 0 0.42825 0.2712 L11.38
							 260.34 a0.379891 0.379891 -180 0 0 0.3123 -0.14205 A4923.22 4923.22 -180 0 0 11.73 254.41 Z"
						class="st28"/>
			</g>
		</g>
		<g id="shape350-544" v:mID="350" v:groupContext="shape" transform="translate(115.007,-87.7159)">
			<title>Sheet.350</title>
			<desc>Folder G</desc>
			<v:textBlock v:margins="rect(4,4,4,4)" v:tabSpace="42.5197"/>
			<v:textRect cx="23.0206" cy="255.242" width="46.05" height="10.2047"/>
			<rect x="0" y="250.14" width="46.0411" height="10.2047" class="st20"/>
			<text x="4" y="258.84" class="st31" v:langID="1033"><v:paragraph/><v:tabList/><tspan class="st32">Folder</tspan><tspan
						class="st32" v:langID="2070"> </tspan><tspan class="st32">G</tspan></text>		</g>
		<g id="shape351-550" v:mID="351" v:groupContext="shape" transform="translate(370.593,171.163) rotate(90)">
			<title>Sheet.351</title>
			<path d="M0 260.34 L11.34 260.34" class="st22"/>
		</g>
		<g id="shape352-553" v:mID="352" v:groupContext="shape" transform="translate(111.875,-77.7762)">
			<title>Sheet.352</title>
			<path d="M0 260.34 L9.64 260.34" class="st22"/>
		</g>
		<g id="shape353-556" v:mID="353" v:groupContext="shape" transform="translate(131.859,-73.5427)">
			<title>Sheet.353</title>
			<desc>Document A</desc>
			<v:textBlock v:margins="rect(4,4,4,4)" v:tabSpace="42.5197"/>
			<v:textRect cx="28.093" cy="255.242" width="56.19" height="10.2047"/>
			<rect x="0" y="250.14" width="56.1859" height="10.2047" class="st20"/>
			<text x="4" y="258.84" class="st31" v:langID="1033"><v:paragraph/><v:tabList/><tspan class="st32">Document A</tspan></text>		</g>
		<g id="group354-560" transform="translate(123.443,-119.483)" v:mID="354" v:groupContext="group">
			<title>Sheet.354</title>
			<g id="shape355-561" v:mID="355" v:groupContext="shape" transform="translate(-5.4956E-015,-0.00334063)">
				<title>Sheet.355</title>
				<path d="M7.91 252.95 L5.89 250.97 L0 250.97 L0 260.34 L7.91 260.34 L7.91 253.24 L7.91 253.24 L7.91 252.95 Z"
						class="st27"/>
			</g>
			<g id="shape356-563" v:mID="356" v:groupContext="shape" transform="translate(0.00792,0)">
				<title>Sheet.356</title>
				<path d="M5.88 250.97 L0 250.97 L0 260.34 L7.89 260.34 L7.89 252.94 L5.88 250.97 Z" class="st34"/>
			</g>
			<g id="shape357-566" v:mID="357" v:groupContext="shape" transform="translate(5.7534,-7.3374)">
				<title>Sheet.357</title>
				<path d="M2.15 260.28 L0.13 258.31 L0 258.31 L0 260.34 L2.15 260.34 L2.15 260.28 Z" class="st35"/>
			</g>
			<g id="shape358-568" v:mID="358" v:groupContext="shape" transform="translate(5.86752,-7.4514)">
				<title>Sheet.358</title>
				<path d="M0 260.34 L1.91 260.34 L0 258.49 L0 260.34 Z" class="st27"/>
			</g>
			<g id="shape359-570" v:mID="359" v:groupContext="shape" transform="translate(-5.4956E-015,-0.00396)">
				<title>Sheet.359</title>
				<path d="M7.91 252.95 L5.89 250.97 L0 250.97 L0 260.34 L7.91 260.34 L7.91 253.24 L7.91 253.24 L7.91 252.95 Z"
						class="st28"/>
			</g>
			<g id="shape360-572" v:mID="360" v:groupContext="shape" transform="translate(0.79104,-7.09656)">
				<title>Sheet.360</title>
				<rect x="0" y="260.259" width="3.66204" height="0.08556" class="st36"/>
			</g>
			<g id="shape361-575" v:mID="361" v:groupContext="shape" transform="translate(0.79104,-6.10356)">
				<title>Sheet.361</title>
				<rect x="0" y="260.259" width="6.02064" height="0.08556" class="st36"/>
			</g>
			<g id="shape362-578" v:mID="362" v:groupContext="shape" transform="translate(0.79104,-5.17248)">
				<title>Sheet.362</title>
				<rect x="0" y="260.259" width="6.02064" height="0.08544" class="st36"/>
			</g>
			<g id="shape363-581" v:mID="363" v:groupContext="shape" transform="translate(0.79104,-4.2414)">
				<title>Sheet.363</title>
				<rect x="0" y="260.259" width="6.02064" height="0.08556" class="st36"/>
			</g>
			<g id="shape364-584" v:mID="364" v:groupContext="shape" transform="translate(0.79104,-3.31032)">
				<title>Sheet.364</title>
				<rect x="0" y="260.259" width="6.02064" height="0.08556" class="st36"/>
			</g>
			<g id="shape365-587" v:mID="365" v:groupContext="shape" transform="translate(0.79104,-2.37936)">
				<title>Sheet.365</title>
				<rect x="0" y="260.259" width="6.02064" height="0.08556" class="st36"/>
			</g>
			<g id="shape366-590" v:mID="366" v:groupContext="shape" transform="translate(0.79104,-1.4484)">
				<title>Sheet.366</title>
				<rect x="0" y="260.259" width="6.02064" height="0.08544" class="st36"/>
			</g>
		</g>
		<g id="group288-593" transform="translate(123.443,-43.8268)" v:mID="288" v:groupContext="group">
			<title>Sheet.288</title>
			<g id="shape289-594" v:mID="289" v:groupContext="shape" transform="translate(-5.4956E-015,-0.00334063)">
				<title>Sheet.289</title>
				<path d="M7.91 252.95 L5.89 250.97 L0 250.97 L0 260.34 L7.91 260.34 L7.91 253.24 L7.91 253.24 L7.91 252.95 Z"
						class="st27"/>
			</g>
			<g id="shape290-596" v:mID="290" v:groupContext="shape" transform="translate(0.00792,0)">
				<title>Sheet.290</title>
				<path d="M5.88 250.97 L0 250.97 L0 260.34 L7.89 260.34 L7.89 252.94 L5.88 250.97 Z" class="st34"/>
			</g>
			<g id="shape291-599" v:mID="291" v:groupContext="shape" transform="translate(5.7534,-7.3374)">
				<title>Sheet.291</title>
				<path d="M2.15 260.28 L0.13 258.31 L0 258.31 L0 260.34 L2.15 260.34 L2.15 260.28 Z" class="st35"/>
			</g>
			<g id="shape292-601" v:mID="292" v:groupContext="shape" transform="translate(5.86752,-7.4514)">
				<title>Sheet.292</title>
				<path d="M0 260.34 L1.91 260.34 L0 258.49 L0 260.34 Z" class="st27"/>
			</g>
			<g id="shape293-603" v:mID="293" v:groupContext="shape" transform="translate(-5.4956E-015,-0.00396)">
				<title>Sheet.293</title>
				<path d="M7.91 252.95 L5.89 250.97 L0 250.97 L0 260.34 L7.91 260.34 L7.91 253.24 L7.91 253.24 L7.91 252.95 Z"
						class="st28"/>
			</g>
			<g id="shape294-605" v:mID="294" v:groupContext="shape" transform="translate(0.79104,-7.09656)">
				<title>Sheet.294</title>
				<rect x="0" y="260.259" width="3.66204" height="0.08556" class="st36"/>
			</g>
			<g id="shape295-608" v:mID="295" v:groupContext="shape" transform="translate(0.79104,-6.10356)">
				<title>Sheet.295</title>
				<rect x="0" y="260.259" width="6.02064" height="0.08556" class="st36"/>
			</g>
			<g id="shape296-611" v:mID="296" v:groupContext="shape" transform="translate(0.79104,-5.17248)">
				<title>Sheet.296</title>
				<rect x="0" y="260.259" width="6.02064" height="0.08544" class="st36"/>
			</g>
			<g id="shape297-614" v:mID="297" v:groupContext="shape" transform="translate(0.79104,-4.2414)">
				<title>Sheet.297</title>
				<rect x="0" y="260.259" width="6.02064" height="0.08556" class="st36"/>
			</g>
			<g id="shape298-617" v:mID="298" v:groupContext="shape" transform="translate(0.79104,-3.31032)">
				<title>Sheet.298</title>
				<rect x="0" y="260.259" width="6.02064" height="0.08556" class="st36"/>
			</g>
			<g id="shape299-620" v:mID="299" v:groupContext="shape" transform="translate(0.79104,-2.37936)">
				<title>Sheet.299</title>
				<rect x="0" y="260.259" width="6.02064" height="0.08556" class="st36"/>
			</g>
			<g id="shape300-623" v:mID="300" v:groupContext="shape" transform="translate(0.79104,-1.4484)">
				<title>Sheet.300</title>
				<rect x="0" y="260.259" width="6.02064" height="0.08544" class="st36"/>
			</g>
		</g>
		<g id="group273-626" transform="translate(122.848,-150.665)" v:mID="273" v:groupContext="group">
			<title>Sheet.273</title>
			<g id="shape274-627" v:mID="274" v:groupContext="shape" transform="translate(-5.4956E-015,-0.00334063)">
				<title>Sheet.274</title>
				<path d="M7.91 252.95 L5.89 250.97 L0 250.97 L0 260.34 L7.91 260.34 L7.91 253.24 L7.91 253.24 L7.91 252.95 Z"
						class="st27"/>
			</g>
			<g id="shape275-629" v:mID="275" v:groupContext="shape" transform="translate(0.00792,0)">
				<title>Sheet.275</title>
				<path d="M5.88 250.97 L0 250.97 L0 260.34 L7.89 260.34 L7.89 252.94 L5.88 250.97 Z" class="st34"/>
			</g>
			<g id="shape276-632" v:mID="276" v:groupContext="shape" transform="translate(5.7534,-7.3374)">
				<title>Sheet.276</title>
				<path d="M2.15 260.28 L0.13 258.31 L0 258.31 L0 260.34 L2.15 260.34 L2.15 260.28 Z" class="st35"/>
			</g>
			<g id="shape277-634" v:mID="277" v:groupContext="shape" transform="translate(5.86752,-7.4514)">
				<title>Sheet.277</title>
				<path d="M0 260.34 L1.91 260.34 L0 258.49 L0 260.34 Z" class="st27"/>
			</g>
			<g id="shape278-636" v:mID="278" v:groupContext="shape" transform="translate(-5.4956E-015,-0.00396)">
				<title>Sheet.278</title>
				<path d="M7.91 252.95 L5.89 250.97 L0 250.97 L0 260.34 L7.91 260.34 L7.91 253.24 L7.91 253.24 L7.91 252.95 Z"
						class="st28"/>
			</g>
			<g id="shape279-638" v:mID="279" v:groupContext="shape" transform="translate(0.79104,-7.09656)">
				<title>Sheet.279</title>
				<rect x="0" y="260.259" width="3.66204" height="0.08556" class="st36"/>
			</g>
			<g id="shape280-641" v:mID="280" v:groupContext="shape" transform="translate(0.79104,-6.10356)">
				<title>Sheet.280</title>
				<rect x="0" y="260.259" width="6.02064" height="0.08556" class="st36"/>
			</g>
			<g id="shape281-644" v:mID="281" v:groupContext="shape" transform="translate(0.79104,-5.17248)">
				<title>Sheet.281</title>
				<rect x="0" y="260.259" width="6.02064" height="0.08544" class="st36"/>
			</g>
			<g id="shape282-647" v:mID="282" v:groupContext="shape" transform="translate(0.79104,-4.2414)">
				<title>Sheet.282</title>
				<rect x="0" y="260.259" width="6.02064" height="0.08556" class="st36"/>
			</g>
			<g id="shape283-650" v:mID="283" v:groupContext="shape" transform="translate(0.79104,-3.31032)">
				<title>Sheet.283</title>
				<rect x="0" y="260.259" width="6.02064" height="0.08556" class="st36"/>
			</g>
			<g id="shape284-653" v:mID="284" v:groupContext="shape" transform="translate(0.79104,-2.37936)">
				<title>Sheet.284</title>
				<rect x="0" y="260.259" width="6.02064" height="0.08556" class="st36"/>
			</g>
			<g id="shape285-656" v:mID="285" v:groupContext="shape" transform="translate(0.79104,-1.4484)">
				<title>Sheet.285</title>
				<rect x="0" y="260.259" width="6.02064" height="0.08544" class="st36"/>
			</g>
		</g>
		<g id="group203-659" transform="translate(104.537,-164.849)" v:mID="203" v:groupContext="group">
			<title>Sheet.203</title>
			<g id="shape204-660" v:mID="204" v:groupContext="shape" transform="translate(-2.9976E-015,-0.00718152)">
				<title>Sheet.204</title>
				<path d="M11.73 254.41 a0.517446 0.517446 -180 0 0 -0.5178 -0.51795 L6.4 253.89 A2.39972 2.39972 -180 0 0 6.22 253.41
							 a0.684201 0.684201 -180 0 0 -0.433988 -0.463969 L3.26 252.94 a0.671094 0.671094 -180 0 0 -0.437212 0.43125
							 A3.14901 3.14901 -180 0 0 2.64 253.81 A10.4434 10.4434 -180 0 0 2.54 254.41 L2.54 255.14 L0.2 255.14
							 a0.175537 0.175537 -180 0 0 -0.1719 0.2712 L2.23 260.07 a0.5185 0.5185 -180 0 0 0.42825 0.2712 L11.38
							 260.34 a0.379891 0.379891 -180 0 0 0.3123 -0.14205 A4923.22 4923.22 -180 0 0 11.73 254.41 Z"
						class="st23"/>
			</g>
			<g id="shape205-662" v:mID="205" v:groupContext="shape" transform="translate(2.54014,-0.291596)">
				<title>Sheet.205</title>
				<path d="M9.19 254.7 a0.517446 0.517446 -180 0 0 -0.5178 -0.51795 L3.86 254.18 A2.39972 2.39972 -180 0 0 3.68 253.69
							 a0.684201 0.684201 -180 0 0 -0.433988 -0.463969 L0.72 253.23 a0.671094 0.671094 -180 0 0 -0.437213 0.43125
							 A3.14901 3.14901 -180 0 0 0.1 254.09 A10.4434 10.4434 -180 0 0 0 254.7 L0 255.43 L6.53 255.43 L9.12
							 260.34 a0.511935 0.511935 -180 0 0 0.0693 -0.25455 L9.19 254.7 Z" class="st24"/>
			</g>
			<g id="shape206-665" v:mID="206" v:groupContext="shape" transform="translate(0.000253651,0)">
				<title>Sheet.206</title>
				<path d="M11.68 260.09 A11.6149 11.6149 0 0 1 11.39 260.26 a0.437107 0.437107 -180 0 0 0.12885 -0.47505 L9.21 255.4
							 a0.547699 0.547699 -180 0 0 -0.4398 -0.2655 L0.2 255.14 a0.175537 0.175537 -180 0 0 -0.1719 0.2712 L2.23
							 260.07 a0.5185 0.5185 -180 0 0 0.42825 0.2712 L11.38 260.34 a0.332841 0.332841 -180 0 0 0.297 -0.0825
							 A1.07388 1.07388 -180 0 0 11.68 260.09 Z" class="st25"/>
			</g>
			<g id="shape207-668" v:mID="207" v:groupContext="shape" transform="translate(0.0625871,-0.144596)">
				<title>Sheet.207</title>
				<path d="M8.77 255.19 L0.2 255.19 a0.173618 0.173618 -180 0 0 -0.19545 0.14655 A313.406 313.406 0 0 1 8.93 255.36
							 A137.265 137.265 0 0 1 11.55 260.26 a0.46976 0.46976 -180 0 0 -0.0117 0.07575 L11.56 260.34 a0.232831
							 0.232831 -180 0 0 0.1245 -0.0987 a0.365189 0.365189 -180 0 0 -0.03285 -0.11925 L9.15 255.38 a0.554407
							 0.554407 -180 0 0 -0.3858 -0.18945 Z" class="st26"/>
			</g>
			<g id="shape208-670" v:mID="208" v:groupContext="shape" transform="translate(0.00633715,-0.0506961)">
				<title>Sheet.208</title>
				<path d="M8.77 255.19 L0.2 255.19 a0.173618 0.173618 -180 0 0 -0.19545 0.14655 L8.96 255.33 L11.55 260.26 a0.453709
							 0.453709 -180 0 0 -0.0117 0.07575 L11.56 260.34 a0.233503 0.233503 -180 0 0 0.1245 -0.0987 a0.369262
							 0.369262 -180 0 0 -0.03285 -0.11925 L9.15 255.38 a0.41511 0.41511 -180 0 0 -0.38565 -0.18945 Z"
						class="st27"/>
			</g>
			<g id="shape209-672" v:mID="209" v:groupContext="shape" transform="translate(0.000253651,-0.00701692)">
				<title>Sheet.209</title>
				<path d="M11.73 254.41 a0.517446 0.517446 -180 0 0 -0.5178 -0.51795 L6.4 253.89 A2.39972 2.39972 -180 0 0 6.22 253.41
							 a0.684201 0.684201 -180 0 0 -0.433988 -0.463969 L3.26 252.94 a0.671094 0.671094 -180 0 0 -0.437212 0.43125
							 A3.14901 3.14901 -180 0 0 2.64 253.81 A10.4434 10.4434 -180 0 0 2.54 254.41 L2.54 255.14 L0.2 255.14
							 a0.175537 0.175537 -180 0 0 -0.1719 0.2712 L2.23 260.07 a0.5185 0.5185 -180 0 0 0.42825 0.2712 L11.38
							 260.34 a0.379891 0.379891 -180 0 0 0.3123 -0.14205 A4923.22 4923.22 -180 0 0 11.73 254.41 Z"
						class="st28"/>
			</g>
		</g>
	</g>
</svg>
