<?xml version="1.0" encoding="UTF-8" standalone="no"?>
<!DOCTYPE svg PUBLIC "-//W3C//DTD SVG 1.0//EN" "http://www.w3.org/TR/2001/REC-SVG-20010904/DTD/svg10.dtd">
<!-- Generated by Microsoft Visio 11.0, SVG Export, v1.0 my-knowledge-webpart.svg my-knowledge-webpart -->
<svg xmlns="http://www.w3.org/2000/svg" xmlns:xlink="http://www.w3.org/1999/xlink" xmlns:ev="http://www.w3.org/2001/xml-events"
		xmlns:v="http://schemas.microsoft.com/visio/2003/SVGExtensions/" width="3.13894in" height="3.63107in"
		viewBox="0 0 226.004 261.437" xml:space="preserve" color-interpolation-filters="sRGB" class="st37">
	<v:documentProperties v:langID="1033" v:metric="true" v:viewMarkup="false">
		<v:userDefs>
			<v:ud v:nameU="msvNoAutoConnect" v:val="VT0(1):26"/>
		</v:userDefs>
	</v:documentProperties>

	<style type="text/css">
	<![CDATA[
		.st1 {fill:#919b9c;stroke:none;stroke-linecap:round;stroke-linejoin:round;stroke-width:0.75}
		.st2 {fill:#ffffff;stroke:none;stroke-linecap:round;stroke-linejoin:round;stroke-width:0.75}
		.st3 {fill:url(#grad30-9);stroke:none;stroke-linecap:round;stroke-linejoin:round;stroke-width:0.75}
		.st4 {fill:url(#grad30-13);stroke:none;stroke-linecap:round;stroke-linejoin:round;stroke-width:0.75}
		.st5 {fill:url(#grad27-17);stroke:none;stroke-linecap:round;stroke-linejoin:round;stroke-width:0.75}
		.st6 {stroke:#a5a5a5;stroke-dasharray:0,2.25;stroke-linecap:round;stroke-linejoin:round;stroke-width:0.75}
		.st7 {fill:url(#grad30-29);stroke:none;stroke-linecap:round;stroke-linejoin:round;stroke-width:0.75}
		.st8 {fill:#91a7b4;stroke:none;stroke-linecap:round;stroke-linejoin:round;stroke-width:0.75}
		.st9 {fill:#000000;font-family:Segoe UI;font-size:0.666664em}
		.st10 {fill:url(#grad30-56);stroke:none;stroke-linecap:round;stroke-linejoin:round;stroke-width:0.75}
		.st11 {fill:#ffc83c;stroke:none;stroke-linecap:round;stroke-linejoin:round;stroke-width:0.75}
		.st12 {fill:#e68b2c;stroke:none;stroke-linecap:round;stroke-linejoin:round;stroke-width:0.75}
		.st13 {fill:#ffffe3;stroke:#000000;stroke-dasharray:3.5,2.5;stroke-linecap:round;stroke-linejoin:round;stroke-width:0.5}
		.st14 {fill:none;stroke:none;stroke-linecap:round;stroke-linejoin:round;stroke-width:0.75}
		.st15 {font-size:1em}
		.st16 {fill:#3366ff;font-size:1em}
		.st17 {fill:url(#grad31-82);stroke:none;stroke-linecap:butt;stroke-width:0.75}
		.st18 {fill:url(#grad31-88);stroke:none;stroke-linecap:butt;stroke-width:0.75}
		.st19 {fill:#a57a2c;stroke:none;stroke-linecap:butt;stroke-width:0.75}
		.st20 {fill:#ffffff;stroke:none;stroke-linecap:butt;stroke-width:0.75}
		.st21 {fill:none;stroke:#7f7f7f;stroke-linecap:round;stroke-linejoin:round;stroke-width:0.5}
		.st22 {fill:#ffffff;stroke:#8db1e2;stroke-linecap:round;stroke-linejoin:round;stroke-width:0.75}
		.st23 {stroke:#3f3f3f;stroke-linecap:round;stroke-linejoin:round;stroke-width:0.75}
		.st24 {fill:#3366ff;font-family:Segoe UI;font-size:0.666664em}
		.st25 {font-size:1em;text-decoration:underline}
		.st26 {fill:#cc0000}
		.st27 {fill:url(#grad39-162);stroke:#7f7f7f;stroke-linecap:round;stroke-linejoin:round;stroke-width:0.5}
		.st28 {fill:#000000;font-family:Segoe UI;font-size:0.499992em;font-weight:bold}
		.st29 {fill:url(#grad31-341);stroke:none;stroke-linecap:butt;stroke-width:0.75}
		.st30 {fill:#39749f;stroke:none;stroke-linecap:butt;stroke-width:0.75}
		.st31 {fill:url(#grad28-353);stroke:none;stroke-linecap:butt;stroke-width:0.75}
		.st32 {fill:#76b531;stroke:none;stroke-linecap:butt;stroke-width:0.75}
		.st33 {fill:#ff00ff;fill-opacity:0;stroke:#00b050;stroke-linecap:butt;stroke-opacity:0;stroke-width:0.75}
		.st34 {fill:url(#grad31-456);stroke:none;stroke-linecap:butt;stroke-width:0.75}
		.st35 {fill:#f5cc6f;stroke:none;stroke-linecap:butt;stroke-width:0.75}
		.st36 {fill:url(#grad31-467);stroke:none;stroke-linecap:butt;stroke-width:0.75}
		.st37 {fill:none;fill-rule:evenodd;font-size:12px;overflow:visible;stroke-linecap:square;stroke-miterlimit:3}
	]]>
	</style>

	<defs id="Patterns_And_Gradients">
		<linearGradient id="grad30-9" v:fillPattern="30" v:foreground="#f4f3ef" v:background="#ffffff" x1="0" y1="1" x2="0" y2="0">
			<stop offset="0" style="stop-color:#f4f3ef;stop-opacity:1"/>
			<stop offset="1" style="stop-color:#ffffff;stop-opacity:1"/>
		</linearGradient>
		<linearGradient id="grad30-13" v:fillPattern="30" v:foreground="#d4d4d4" v:foregroundOpacity="0.0078"
				v:background="#8e8e8e" v:backgroundOpacity="0.5" x1="0" y1="1" x2="0" y2="0">
			<stop offset="0" style="stop-color:#d4d4d4;stop-opacity:0.0078"/>
			<stop offset="1" style="stop-color:#8e8e8e;stop-opacity:0.5"/>
		</linearGradient>
		<linearGradient id="grad27-17" v:fillPattern="27" v:foreground="#d4d4d4" v:foregroundOpacity="0.0078"
				v:background="#8e8e8e" v:backgroundOpacity="0.5" x1="1" y1="0" x2="0" y2="0">
			<stop offset="0" style="stop-color:#d4d4d4;stop-opacity:0.0078"/>
			<stop offset="1" style="stop-color:#8e8e8e;stop-opacity:0.5"/>
		</linearGradient>
		<linearGradient id="grad30-29" v:fillPattern="30" v:foreground="#ecebe6" v:background="#ffffff" x1="0" y1="1" x2="0" y2="0">
			<stop offset="0" style="stop-color:#ecebe6;stop-opacity:1"/>
			<stop offset="1" style="stop-color:#ffffff;stop-opacity:1"/>
		</linearGradient>
		<linearGradient id="grad30-56" v:fillPattern="30" v:foreground="#ffffff" v:background="#ffffff" x1="0" y1="1" x2="0" y2="0">
			<stop offset="0" style="stop-color:#ffffff;stop-opacity:1"/>
			<stop offset="1" style="stop-color:#ffffff;stop-opacity:1"/>
		</linearGradient>
		<pattern id="grad31-82" v:fillPattern="31" v:foreground="#fbd952" v:background="#d3b348" x="0" y="0" width="1" height="1"
				patternContentUnits="objectBoundingBox">
			<path d="M 0 0 L 0 1 L 1 1 z" style="fill:url(#grad28-83)"/>
			<path d="M 0 0 L 1 0 L 1 1 z" style="fill:url(#grad25-84)"/>
		</pattern>
		<linearGradient id="grad28-83" v:fillPattern="31" v:foreground="#fbd952" v:background="#d3b348" x1="0" y1="0" x2="0" y2="1">
			<stop offset="0" style="stop-color:#fbd952;stop-opacity:1"/>
			<stop offset="1" style="stop-color:#d3b348;stop-opacity:1"/>
		</linearGradient>
		<linearGradient id="grad25-84" v:fillPattern="31" v:foreground="#fbd952" v:background="#d3b348" x1="0" y1="0" x2="1" y2="0">
			<stop offset="0" style="stop-color:#fbd952;stop-opacity:1"/>
			<stop offset="1" style="stop-color:#d3b348;stop-opacity:1"/>
		</linearGradient>
		<pattern id="grad31-88" v:fillPattern="31" v:foreground="#f0ecc0" v:background="#d3b348" x="0" y="0" width="1" height="1"
				patternContentUnits="objectBoundingBox">
			<path d="M 0 0 L 0 1 L 1 1 z" style="fill:url(#grad28-89)"/>
			<path d="M 0 0 L 1 0 L 1 1 z" style="fill:url(#grad25-90)"/>
		</pattern>
		<linearGradient id="grad28-89" v:fillPattern="31" v:foreground="#f0ecc0" v:background="#d3b348" x1="0" y1="0" x2="0" y2="1">
			<stop offset="0" style="stop-color:#f0ecc0;stop-opacity:1"/>
			<stop offset="1" style="stop-color:#d3b348;stop-opacity:1"/>
		</linearGradient>
		<linearGradient id="grad25-90" v:fillPattern="31" v:foreground="#f0ecc0" v:background="#d3b348" x1="0" y1="0" x2="1" y2="0">
			<stop offset="0" style="stop-color:#f0ecc0;stop-opacity:1"/>
			<stop offset="1" style="stop-color:#d3b348;stop-opacity:1"/>
		</linearGradient>
		<radialGradient id="grad39-162" v:fillPattern="39" v:foreground="#ffc000" v:background="#ffff00" cx="1" cy="1" r="1">
			<stop offset="0" style="stop-color:#ffc000;stop-opacity:1"/>
			<stop offset="1" style="stop-color:#ffff00;stop-opacity:1"/>
		</radialGradient>
		<pattern id="grad31-341" v:fillPattern="31" v:foreground="#ffffff" v:background="#9ecded" x="0" y="0" width="1" height="1"
				patternContentUnits="objectBoundingBox">
			<path d="M 0 0 L 0 1 L 1 1 z" style="fill:url(#grad28-342)"/>
			<path d="M 0 0 L 1 0 L 1 1 z" style="fill:url(#grad25-343)"/>
		</pattern>
		<linearGradient id="grad28-342" v:fillPattern="31" v:foreground="#ffffff" v:background="#9ecded" x1="0" y1="0" x2="0"
				y2="1">
			<stop offset="0" style="stop-color:#ffffff;stop-opacity:1"/>
			<stop offset="1" style="stop-color:#9ecded;stop-opacity:1"/>
		</linearGradient>
		<linearGradient id="grad25-343" v:fillPattern="31" v:foreground="#ffffff" v:background="#9ecded" x1="0" y1="0" x2="1"
				y2="0">
			<stop offset="0" style="stop-color:#ffffff;stop-opacity:1"/>
			<stop offset="1" style="stop-color:#9ecded;stop-opacity:1"/>
		</linearGradient>
		<linearGradient id="grad28-353" v:fillPattern="28" v:foreground="#9fdef2" v:background="#146bc2" x1="0" y1="0" x2="0"
				y2="1">
			<stop offset="0" style="stop-color:#9fdef2;stop-opacity:1"/>
			<stop offset="1" style="stop-color:#146bc2;stop-opacity:1"/>
		</linearGradient>
		<pattern id="grad31-456" v:fillPattern="31" v:foreground="#f36c3b" v:background="#face1c" x="0" y="0" width="1" height="1"
				patternContentUnits="objectBoundingBox">
			<path d="M 0 0 L 0 1 L 1 1 z" style="fill:url(#grad28-457)"/>
			<path d="M 0 0 L 1 0 L 1 1 z" style="fill:url(#grad25-458)"/>
		</pattern>
		<linearGradient id="grad28-457" v:fillPattern="31" v:foreground="#f36c3b" v:background="#face1c" x1="0" y1="0" x2="0"
				y2="1">
			<stop offset="0" style="stop-color:#f36c3b;stop-opacity:1"/>
			<stop offset="1" style="stop-color:#face1c;stop-opacity:1"/>
		</linearGradient>
		<linearGradient id="grad25-458" v:fillPattern="31" v:foreground="#f36c3b" v:background="#face1c" x1="0" y1="0" x2="1"
				y2="0">
			<stop offset="0" style="stop-color:#f36c3b;stop-opacity:1"/>
			<stop offset="1" style="stop-color:#face1c;stop-opacity:1"/>
		</linearGradient>
		<pattern id="grad31-467" v:fillPattern="31" v:foreground="#face1c" v:foregroundOpacity="0.9" v:background="#ffffff"
				v:backgroundOpacity="0.9" x="0" y="0" width="1" height="1" patternContentUnits="objectBoundingBox">
			<path d="M 0 0 L 0 1 L 1 1 z" style="fill:url(#grad28-468)"/>
			<path d="M 0 0 L 1 0 L 1 1 z" style="fill:url(#grad25-469)"/>
		</pattern>
		<linearGradient id="grad28-468" v:fillPattern="31" v:foreground="#face1c" v:foregroundOpacity="0.9" v:background="#ffffff"
				v:backgroundOpacity="0.9" x1="0" y1="0" x2="0" y2="1">
			<stop offset="0" style="stop-color:#face1c;stop-opacity:0.9"/>
			<stop offset="1" style="stop-color:#ffffff;stop-opacity:0.9"/>
		</linearGradient>
		<linearGradient id="grad25-469" v:fillPattern="31" v:foreground="#face1c" v:foregroundOpacity="0.9" v:background="#ffffff"
				v:backgroundOpacity="0.9" x1="0" y1="0" x2="1" y2="0">
			<stop offset="0" style="stop-color:#face1c;stop-opacity:0.9"/>
			<stop offset="1" style="stop-color:#ffffff;stop-opacity:0.9"/>
		</linearGradient>
	</defs>
	<g v:mID="14" v:index="12" v:groupContext="foregroundPage">
		<title>my-knowledge-webpart</title>
		<v:pageProperties v:drawingScale="0.0393701" v:pageScale="0.0393701" v:drawingUnits="24" v:shadowOffsetX="8.50394"
				v:shadowOffsetY="-8.50394"/>
		<g id="group135-1" transform="translate(18.75,-20.1673)" v:mID="135" v:groupContext="group">
			<v:userDefs>
				<v:ud v:nameU="Pixel" v:val="VT0(0.0098425196850394):24"/>
				<v:ud v:nameU="visVersion" v:val="VT0(11):26"/>
			</v:userDefs>
			<title>Tab control (body).135</title>
			<g id="shape136-2" v:mID="136" v:groupContext="shape">
				<title>Sheet.136</title>
				<v:userDefs>
					<v:ud v:nameU="Pixel" v:val="VT0(0.0098425196850394):24"/>
				</v:userDefs>
				<rect x="0" y="53.0906" width="187.087" height="208.346" class="st1"/>
			</g>
			<g id="shape137-4" v:mID="137" v:groupContext="shape" transform="translate(0.708661,-0.708661)">
				<title>Sheet.137</title>
				<v:userDefs>
					<v:ud v:nameU="Pixel" v:val="VT0(0.0098425196850394):24"/>
				</v:userDefs>
				<rect x="0" y="54.5079" width="185.669" height="206.929" class="st2"/>
			</g>
			<g id="shape138-6" v:mID="138" v:groupContext="shape" transform="translate(1.41732,-1.41732)">
				<title>Sheet.138</title>
				<v:userDefs>
					<v:ud v:nameU="Pixel" v:val="VT0(0.0098425196850394):24"/>
				</v:userDefs>
				<rect x="0" y="55.9252" width="184.252" height="205.512" class="st3"/>
			</g>
			<g id="shape139-10" v:mID="139" v:groupContext="shape" transform="translate(0.708661,1.41732)">
				<title>Sheet.139</title>
				<v:userDefs>
					<v:ud v:nameU="Pixel" v:val="VT0(0.0098425196850394):24"/>
				</v:userDefs>
				<path d="M0 261.44 L187.8 261.44 L186.38 260.02 L0 260.02 L0 261.44 Z" class="st4"/>
			</g>
			<g id="shape140-14" v:mID="140" v:groupContext="shape" transform="translate(187.087,0)">
				<title>Sheet.140</title>
				<v:userDefs>
					<v:ud v:nameU="Pixel" v:val="VT0(0.0098425196850394):24"/>
				</v:userDefs>
				<path d="M0 261.44 L1.42 262.85 L1.42 53.8 L0 53.8 L0 261.44 Z" class="st5"/>
			</g>
		</g>
		<g id="shape141-18" v:mID="141" v:groupContext="shape" transform="translate(304.793,92.9699) rotate(90)">
			<title>Sheet.141</title>
			<path d="M0 261.44 L11.34 261.44" class="st6"/>
		</g>
		<g id="shape299-21" v:mID="299" v:groupContext="shape" transform="translate(28.2682,-171.519)">
			<title>Sheet.299</title>
			<path d="M0 261.44 L9.64 261.44" class="st6"/>
		</g>
		<g id="group247-24" transform="translate(85.6017,-227.805)" v:mID="247" v:groupContext="group">
			<v:userDefs>
				<v:ud v:nameU="Pixel" v:val="VT0(0.0098425196850394):24"/>
				<v:ud v:nameU="ActiveTab" v:val="VT0(0):5"/>
				<v:ud v:nameU="TabHeight" v:val="VT0(0.17716535433071):24"/>
				<v:ud v:nameU="TextWidth" v:val="VT0(0.39146100885864):1"/>
				<v:ud v:nameU="visVersion" v:val="VT0(11):26"/>
			</v:userDefs>
			<title>Tab control (tabs).247</title>
			<desc>KMC</desc>
			<g id="group248-25" transform="translate(0.708661,0)" v:mID="248" v:groupContext="group">
				<v:userDefs>
					<v:ud v:nameU="Pixel" v:val="VT0(0.0098425196850394):24"/>
					<v:ud v:nameU="ActiveTab" v:val="VT0(0):5"/>
				</v:userDefs>
				<title>Sheet.248</title>
				<g id="shape249-26" v:mID="249" v:groupContext="shape" transform="translate(0.354331,0)">
					<title>Sheet.249</title>
					<v:userDefs>
						<v:ud v:nameU="Pixel" v:val="VT0(0.0098425196850394):24"/>
						<v:ud v:nameU="ActiveTab" v:val="VT0(0):5"/>
					</v:userDefs>
					<path d="M0 261.44 L26.77 261.44 L26.77 250.45 A1.4193 1.4193 -180 0 0 25.35 249.04 L1.42 249.04 A1.4193 1.4193
								 -180 0 0 0 250.45 L0 261.44 Z" class="st7"/>
				</g>
				<g id="shape250-30" v:mID="250" v:groupContext="shape">
					<title>Sheet.250</title>
					<v:userDefs>
						<v:ud v:nameU="Pixel" v:val="VT0(0.0098425196850394):24"/>
						<v:ud v:nameU="ActiveTab" v:val="VT0(0):5"/>
					</v:userDefs>
					<path d="M2.13 249.39 L25.35 249.39 A1.42764 1.42764 0 0 1 26.77 250.81 L26.77 261.44 L27.48 261.44 L27.48 250.81
								 A2.12919 2.12919 -180 0 0 25.35 248.68 L2.13 248.68 A2.12919 2.12919 -180 0 0 -0 250.81 L0 261.44
								 L0.71 261.44 L0.71 250.81 A1.42764 1.42764 0 0 1 2.13 249.39 Z" class="st8"/>
				</g>
				<g id="shape251-32" v:mID="251" v:groupContext="shape" transform="translate(0.354331,-10.6299)">
					<title>Sheet.251</title>
					<v:userDefs>
						<v:ud v:nameU="Pixel" v:val="VT0(0.0098425196850394):24"/>
						<v:ud v:nameU="ActiveTab" v:val="VT0(0):5"/>
					</v:userDefs>
				</g>
				<g id="shape252-34" v:mID="252" v:groupContext="shape" transform="translate(0,-10.6299)">
					<title>Sheet.252</title>
					<v:userDefs>
						<v:ud v:nameU="Pixel" v:val="VT0(0.0098425196850394):24"/>
						<v:ud v:nameU="ActiveTab" v:val="VT0(0):5"/>
					</v:userDefs>
				</g>
			</g>
			<g id="shape247-36" v:mID="247" v:groupContext="groupContent">
				<v:textBlock v:margins="rect(2.12598,3.54331,0,5.66929)" v:tabSpace="42.5197"/>
				<v:textRect cx="14.0926" cy="255.059" width="28.19" height="12.7559"/>
				<text x="6.77" y="258.52" class="st9" v:langID="2070"><v:paragraph v:horizAlign="1"/><v:tabList/>KMC</text>			</g>
		</g>
		<g id="group253-38" transform="translate(113.787,-227.805)" v:mID="253" v:groupContext="group">
			<v:userDefs>
				<v:ud v:nameU="Pixel" v:val="VT0(0.0098425196850394):24"/>
				<v:ud v:nameU="ActiveTab" v:val="VT0(0):5"/>
				<v:ud v:nameU="TabHeight" v:val="VT0(0.17716535433071):24"/>
				<v:ud v:nameU="TextWidth" v:val="VT0(0.69472944147582):1"/>
				<v:ud v:nameU="visVersion" v:val="VT0(11):26"/>
			</v:userDefs>
			<title>Tab control (tabs).253</title>
			<desc>Mandatory</desc>
			<g id="group254-39" transform="translate(0.708661,0)" v:mID="254" v:groupContext="group">
				<v:userDefs>
					<v:ud v:nameU="Pixel" v:val="VT0(0.0098425196850394):24"/>
					<v:ud v:nameU="ActiveTab" v:val="VT0(0):5"/>
				</v:userDefs>
				<title>Sheet.254</title>
				<g id="shape255-40" v:mID="255" v:groupContext="shape" transform="translate(0.354331,0)">
					<title>Sheet.255</title>
					<v:userDefs>
						<v:ud v:nameU="Pixel" v:val="VT0(0.0098425196850394):24"/>
						<v:ud v:nameU="ActiveTab" v:val="VT0(0):5"/>
					</v:userDefs>
					<path d="M0 261.44 L48.6 261.44 L48.6 250.45 A1.4193 1.4193 -180 0 0 47.19 249.04 L1.42 249.04 A1.4193 1.4193
								 -180 0 0 0 250.45 L0 261.44 Z" class="st7"/>
				</g>
				<g id="shape256-43" v:mID="256" v:groupContext="shape">
					<title>Sheet.256</title>
					<v:userDefs>
						<v:ud v:nameU="Pixel" v:val="VT0(0.0098425196850394):24"/>
						<v:ud v:nameU="ActiveTab" v:val="VT0(0):5"/>
					</v:userDefs>
					<path d="M2.13 249.39 L47.19 249.39 A1.42764 1.42764 0 0 1 48.6 250.81 L48.6 261.44 L49.31 261.44 L49.31 250.81
								 A2.12919 2.12919 -180 0 0 47.19 248.68 L2.13 248.68 A2.12919 2.12919 -180 0 0 -0 250.81 L0 261.44
								 L0.71 261.44 L0.71 250.81 A1.42764 1.42764 0 0 1 2.13 249.39 Z" class="st8"/>
				</g>
				<g id="shape257-45" v:mID="257" v:groupContext="shape" transform="translate(0.354331,-10.6299)">
					<title>Sheet.257</title>
					<v:userDefs>
						<v:ud v:nameU="Pixel" v:val="VT0(0.0098425196850394):24"/>
						<v:ud v:nameU="ActiveTab" v:val="VT0(0):5"/>
					</v:userDefs>
				</g>
				<g id="shape258-47" v:mID="258" v:groupContext="shape" transform="translate(0,-10.6299)">
					<title>Sheet.258</title>
					<v:userDefs>
						<v:ud v:nameU="Pixel" v:val="VT0(0.0098425196850394):24"/>
						<v:ud v:nameU="ActiveTab" v:val="VT0(0):5"/>
					</v:userDefs>
				</g>
			</g>
			<g id="shape253-49" v:mID="253" v:groupContext="groupContent">
				<v:textBlock v:margins="rect(2.12598,3.54331,0,5.66929)" v:tabSpace="42.5197"/>
				<v:textRect cx="25.0103" cy="255.059" width="50.03" height="12.7559"/>
				<text x="6.77" y="258.52" class="st9" v:langID="1033"><v:paragraph v:horizAlign="1"/><v:tabList/>Mandatory</text>			</g>
		</g>
		<g id="group259-51" transform="translate(19.4587,-228.514)" v:mID="259" v:groupContext="group">
			<v:userDefs>
				<v:ud v:nameU="Pixel" v:val="VT0(0.0098425196850394):24"/>
				<v:ud v:nameU="ActiveTab" v:val="VT0(1):5"/>
				<v:ud v:nameU="TabHeight" v:val="VT0(0.17716535433071):24"/>
				<v:ud v:nameU="TextWidth" v:val="VT0(0.88912641413207):1"/>
				<v:ud v:nameU="visVersion" v:val="VT0(11):26"/>
			</v:userDefs>
			<title>Tab control (tabs).259</title>
			<desc>My Knowledge</desc>
			<g id="group260-52" transform="translate(-0.708661,0.708661)" v:mID="260" v:groupContext="group">
				<v:userDefs>
					<v:ud v:nameU="Pixel" v:val="VT0(0.0098425196850394):24"/>
					<v:ud v:nameU="ActiveTab" v:val="VT0(1):5"/>
				</v:userDefs>
				<title>Sheet.260</title>
				<g id="shape261-53" v:mID="261" v:groupContext="shape" transform="translate(0.708661,0.354331)">
					<title>Sheet.261</title>
					<v:userDefs>
						<v:ud v:nameU="Pixel" v:val="VT0(0.0098425196850394):24"/>
						<v:ud v:nameU="ActiveTab" v:val="VT0(1):5"/>
					</v:userDefs>
					<path d="M0 261.44 L65.43 261.44 L65.43 248.33 A1.4193 1.4193 -180 0 0 64.02 246.91 L1.42 246.91 A1.4193 1.4193
								 -180 0 0 -0 248.33 L0 261.44 Z" class="st10"/>
				</g>
				<g id="shape262-57" v:mID="262" v:groupContext="shape">
					<title>Sheet.262</title>
					<v:userDefs>
						<v:ud v:nameU="Pixel" v:val="VT0(0.0098425196850394):24"/>
						<v:ud v:nameU="ActiveTab" v:val="VT0(1):5"/>
					</v:userDefs>
					<path d="M2.13 247.26 L64.73 247.26 A1.42764 1.42764 0 0 1 66.14 248.68 L66.14 261.44 L66.85 261.44 L66.85 248.68
								 A2.12919 2.12919 -180 0 0 64.73 246.56 L2.13 246.56 A2.12919 2.12919 -180 0 0 0 248.68 L0 261.44
								 L0.71 261.44 L0.71 248.68 A1.42764 1.42764 0 0 1 2.13 247.26 Z" class="st1"/>
				</g>
				<g id="shape263-59" v:mID="263" v:groupContext="shape" transform="translate(0.354331,-12.7559)">
					<title>Sheet.263</title>
					<v:userDefs>
						<v:ud v:nameU="Pixel" v:val="VT0(0.0098425196850394):24"/>
						<v:ud v:nameU="ActiveTab" v:val="VT0(1):5"/>
					</v:userDefs>
					<path d="M0 261.44 L66.14 261.44 L66.14 261.08 A1.4193 1.4193 -180 0 0 64.73 259.67 L1.42 259.67 A1.4193 1.4193
								 -180 0 0 0 261.08 L0 261.44 Z" class="st11"/>
				</g>
				<g id="shape264-61" v:mID="264" v:groupContext="shape" transform="translate(0,-12.7559)">
					<title>Sheet.264</title>
					<v:userDefs>
						<v:ud v:nameU="Pixel" v:val="VT0(0.0098425196850394):24"/>
						<v:ud v:nameU="ActiveTab" v:val="VT0(1):5"/>
					</v:userDefs>
					<path d="M2.13 260.02 L64.73 260.02 A1.42764 1.42764 0 0 1 66.14 261.44 L66.85 261.44 A2.12919 2.12919 -180 0
								 0 64.73 259.31 L2.13 259.31 A2.12919 2.12919 -180 0 0 0 261.44 L0.71 261.44 A1.42764 1.42764 0 0
								 1 2.13 260.02 Z" class="st12"/>
				</g>
			</g>
			<g id="shape259-63" v:mID="259" v:groupContext="groupContent">
				<v:textBlock v:margins="rect(2.12598,3.54331,0,5.66929)" v:tabSpace="42.5197"/>
				<v:textRect cx="32.0086" cy="255.059" width="64.02" height="12.7559"/>
				<text x="6.77" y="258.52" class="st9" v:langID="1033"><v:paragraph v:horizAlign="1"/><v:tabList/>My Knowledge</text>			</g>
		</g>
		<g id="shape265-65" v:mID="265" v:groupContext="shape" transform="translate(24.4193,-183.159)">
			<title>Sheet.265</title>
			<rect x="0" y="224.587" width="175.748" height="36.8504" rx="2.83465" ry="2.83465" class="st13"/>
		</g>
		<g id="shape268-67" v:mID="268" v:groupContext="shape" transform="translate(41.4272,-183.159)">
			<title>Sheet.268</title>
			<desc>3 documents are near the limit reading date. Check the Mandat...</desc>
			<v:textBlock v:margins="rect(4,4,4,4)" v:tabSpace="42.5197" v:verticalAlign="0"/>
			<v:textRect cx="74.8504" cy="242.861" width="149.71" height="37.1529"/>
			<rect x="0" y="224.284" width="149.701" height="37.1529" class="st14"/>
			<text x="4" y="235.48" class="st9" v:langID="2070"><v:paragraph/><v:tabList/>3 document<tspan class="st15"
						v:langID="1033">s are near the limit reading </tspan><tspan x="4" dy="1.2em" class="st15" v:langID="1033">date</tspan><tspan
						class="st15" v:langID="1033">. </tspan><tspan class="st15" v:langID="1033">Check the</tspan> <tspan
						class="st16" v:langID="1033">Mandatory documents </tspan><tspan x="4" dy="1.2em" class="st16"
						v:langID="1033">sorted by due date list</tspan>.</text>		</g>
		<g id="group288-76" transform="translate(37.4808,-167.815)" v:mID="288" v:groupContext="group">
			<title>Sheet.288</title>
			<g id="shape289-77" v:mID="289" v:groupContext="shape" transform="translate(-2.9976E-015,-0.00718152)">
				<title>Sheet.289</title>
				<path d="M11.73 255.5 a0.517446 0.517446 -180 0 0 -0.5178 -0.51795 L6.4 254.99 A2.39972 2.39972 -180 0 0 6.22 254.5
							 a0.684201 0.684201 -180 0 0 -0.433988 -0.463969 L3.26 254.04 a0.671094 0.671094 -180 0 0 -0.437212 0.43125
							 A3.14901 3.14901 -180 0 0 2.64 254.9 A10.4434 10.4434 -180 0 0 2.54 255.5 L2.54 256.24 L0.2 256.24 a0.175537
							 0.175537 -180 0 0 -0.1719 0.2712 L2.23 261.17 a0.5185 0.5185 -180 0 0 0.42825 0.2712 L11.38 261.44 a0.379891
							 0.379891 -180 0 0 0.3123 -0.14205 A4923.22 4923.22 -180 0 0 11.73 255.5 Z" class="st2"/>
			</g>
			<g id="shape290-79" v:mID="290" v:groupContext="shape" transform="translate(2.54014,-0.291596)">
				<title>Sheet.290</title>
				<path d="M9.19 255.79 a0.517446 0.517446 -180 0 0 -0.5178 -0.51795 L3.86 255.27 A2.39972 2.39972 -180 0 0 3.68 254.79
							 a0.684201 0.684201 -180 0 0 -0.433988 -0.463969 L0.72 254.32 a0.671094 0.671094 -180 0 0 -0.437213 0.43125
							 A3.14901 3.14901 -180 0 0 0.1 255.18 A10.4434 10.4434 -180 0 0 0 255.79 L0 256.52 L6.53 256.52 L9.12
							 261.44 a0.511935 0.511935 -180 0 0 0.0693 -0.25455 L9.19 255.79 Z" class="st17"/>
			</g>
			<g id="shape291-85" v:mID="291" v:groupContext="shape" transform="translate(0.000253651,0)">
				<title>Sheet.291</title>
				<path d="M11.68 261.18 A11.6149 11.6149 0 0 1 11.39 261.36 a0.437107 0.437107 -180 0 0 0.12885 -0.47505 L9.21 256.5
							 a0.547699 0.547699 -180 0 0 -0.4398 -0.2655 L0.2 256.23 a0.175537 0.175537 -180 0 0 -0.1719 0.2712 L2.23
							 261.16 a0.5185 0.5185 -180 0 0 0.42825 0.2712 L11.38 261.43 a0.332841 0.332841 -180 0 0 0.297 -0.0825
							 A1.07388 1.07388 -180 0 0 11.68 261.18 Z" class="st18"/>
			</g>
			<g id="shape292-91" v:mID="292" v:groupContext="shape" transform="translate(0.0625871,-0.144596)">
				<title>Sheet.292</title>
				<path d="M8.77 256.28 L0.2 256.28 a0.173618 0.173618 -180 0 0 -0.19545 0.14655 A313.406 313.406 0 0 1 8.93 256.45
							 A137.265 137.265 0 0 1 11.55 261.35 a0.46976 0.46976 -180 0 0 -0.0117 0.07575 L11.56 261.44 a0.232831
							 0.232831 -180 0 0 0.1245 -0.0987 a0.365189 0.365189 -180 0 0 -0.03285 -0.11925 L9.15 256.47 a0.554407
							 0.554407 -180 0 0 -0.3858 -0.18945 Z" class="st19"/>
			</g>
			<g id="shape293-93" v:mID="293" v:groupContext="shape" transform="translate(0.00633715,-0.0506961)">
				<title>Sheet.293</title>
				<path d="M8.77 256.28 L0.2 256.28 a0.173618 0.173618 -180 0 0 -0.19545 0.14655 L8.96 256.43 L11.55 261.35 a0.453709
							 0.453709 -180 0 0 -0.0117 0.07575 L11.56 261.44 a0.233503 0.233503 -180 0 0 0.1245 -0.0987 a0.369262
							 0.369262 -180 0 0 -0.03285 -0.11925 L9.15 256.47 a0.41511 0.41511 -180 0 0 -0.38565 -0.18945 Z"
						class="st20"/>
			</g>
			<g id="shape294-95" v:mID="294" v:groupContext="shape" transform="translate(0.000253651,-0.00701692)">
				<title>Sheet.294</title>
				<path d="M11.73 255.5 a0.517446 0.517446 -180 0 0 -0.5178 -0.51795 L6.4 254.99 A2.39972 2.39972 -180 0 0 6.22 254.5
							 a0.684201 0.684201 -180 0 0 -0.433988 -0.463969 L3.26 254.04 a0.671094 0.671094 -180 0 0 -0.437212 0.43125
							 A3.14901 3.14901 -180 0 0 2.64 254.9 A10.4434 10.4434 -180 0 0 2.54 255.5 L2.54 256.24 L0.2 256.24 a0.175537
							 0.175537 -180 0 0 -0.1719 0.2712 L2.23 261.17 a0.5185 0.5185 -180 0 0 0.42825 0.2712 L11.38 261.44 a0.379891
							 0.379891 -180 0 0 0.3123 -0.14205 A4923.22 4923.22 -180 0 0 11.73 255.5 Z" class="st21"/>
			</g>
		</g>
		<g id="group295-97" transform="translate(26.8214,-168.92)" v:mID="295" v:groupContext="group">
			<title>Sheet.295</title>
			<g id="shape296-98" v:mID="296" v:groupContext="shape">
				<title>Sheet.296</title>
				<rect x="0" y="256.239" width="4.99016" height="5.19808" rx="0.708661" ry="0.708661" class="st22"/>
			</g>
			<g id="shape297-100" v:mID="297" v:groupContext="shape" transform="translate(1.03962,-2.59904)">
				<title>Sheet.297</title>
				<path d="M0 261.44 L2.91 261.44" class="st23"/>
			</g>
		</g>
		<g id="shape298-103" v:mID="298" v:groupContext="shape" transform="translate(48.2525,-167.285)">
			<title>Sheet.298</title>
			<desc>Folder A</desc>
			<v:textBlock v:margins="rect(4,4,4,4)" v:tabSpace="42.5197"/>
			<v:textRect cx="18.9921" cy="256.335" width="37.99" height="10.2047"/>
			<rect x="0" y="251.232" width="37.9843" height="10.2047" class="st14"/>
			<text x="4" y="259.93" class="st24" v:langID="1033"><v:paragraph/><v:tabList/><tspan class="st25">Folder</tspan><tspan
						class="st25" v:langID="2070"> </tspan><tspan class="st25" v:langID="2070">A</tspan></text>		</g>
		<g id="group281-109" transform="translate(40.8605,-154.53)" v:mID="281" v:groupContext="group">
			<title>Sheet.281</title>
			<g id="shape282-110" v:mID="282" v:groupContext="shape">
				<title>Sheet.282</title>
				<rect x="0" y="256.239" width="4.99016" height="5.19808" rx="0.708661" ry="0.708661" class="st22"/>
			</g>
			<g id="shape283-112" v:mID="283" v:groupContext="shape" transform="translate(1.03962,-2.59904)">
				<title>Sheet.283</title>
				<path d="M0 261.44 L2.91 261.44" class="st23"/>
			</g>
		</g>
		<g id="shape284-115" v:mID="284" v:groupContext="shape" transform="translate(45.7013,-157.062)">
			<title>Sheet.284</title>
			<path d="M0 261.44 L9.64 261.44" class="st6"/>
		</g>
		<g id="group285-118" transform="translate(54.9139,-153.359)" v:mID="285" v:groupContext="group">
			<title>Sheet.285</title>
			<g id="shape286-119" v:mID="286" v:groupContext="shape" transform="translate(-2.9976E-015,-0.00718152)">
				<title>Sheet.286</title>
				<path d="M11.73 255.5 a0.517446 0.517446 -180 0 0 -0.5178 -0.51795 L6.4 254.99 A2.39972 2.39972 -180 0 0 6.22 254.5
							 a0.684201 0.684201 -180 0 0 -0.433988 -0.463969 L3.26 254.04 a0.671094 0.671094 -180 0 0 -0.437212 0.43125
							 A3.14901 3.14901 -180 0 0 2.64 254.9 A10.4434 10.4434 -180 0 0 2.54 255.5 L2.54 256.24 L0.2 256.24 a0.175537
							 0.175537 -180 0 0 -0.1719 0.2712 L2.23 261.17 a0.5185 0.5185 -180 0 0 0.42825 0.2712 L11.38 261.44 a0.379891
							 0.379891 -180 0 0 0.3123 -0.14205 A4923.22 4923.22 -180 0 0 11.73 255.5 Z" class="st2"/>
			</g>
			<g id="shape287-121" v:mID="287" v:groupContext="shape" transform="translate(2.54014,-0.291596)">
				<title>Sheet.287</title>
				<path d="M9.19 255.79 a0.517446 0.517446 -180 0 0 -0.5178 -0.51795 L3.86 255.27 A2.39972 2.39972 -180 0 0 3.68 254.79
							 a0.684201 0.684201 -180 0 0 -0.433988 -0.463969 L0.72 254.32 a0.671094 0.671094 -180 0 0 -0.437213 0.43125
							 A3.14901 3.14901 -180 0 0 0.1 255.18 A10.4434 10.4434 -180 0 0 0 255.79 L0 256.52 L6.53 256.52 L9.12
							 261.44 a0.511935 0.511935 -180 0 0 0.0693 -0.25455 L9.19 255.79 Z" class="st17"/>
			</g>
			<g id="shape300-124" v:mID="300" v:groupContext="shape" transform="translate(0.000253651,0)">
				<title>Sheet.300</title>
				<path d="M11.68 261.18 A11.6149 11.6149 0 0 1 11.39 261.36 a0.437107 0.437107 -180 0 0 0.12885 -0.47505 L9.21 256.5
							 a0.547699 0.547699 -180 0 0 -0.4398 -0.2655 L0.2 256.23 a0.175537 0.175537 -180 0 0 -0.1719 0.2712 L2.23
							 261.16 a0.5185 0.5185 -180 0 0 0.42825 0.2712 L11.38 261.43 a0.332841 0.332841 -180 0 0 0.297 -0.0825
							 A1.07388 1.07388 -180 0 0 11.68 261.18 Z" class="st18"/>
			</g>
			<g id="shape301-127" v:mID="301" v:groupContext="shape" transform="translate(0.0625871,-0.144596)">
				<title>Sheet.301</title>
				<path d="M8.77 256.28 L0.2 256.28 a0.173618 0.173618 -180 0 0 -0.19545 0.14655 A313.406 313.406 0 0 1 8.93 256.45
							 A137.265 137.265 0 0 1 11.55 261.35 a0.46976 0.46976 -180 0 0 -0.0117 0.07575 L11.56 261.44 a0.232831
							 0.232831 -180 0 0 0.1245 -0.0987 a0.365189 0.365189 -180 0 0 -0.03285 -0.11925 L9.15 256.47 a0.554407
							 0.554407 -180 0 0 -0.3858 -0.18945 Z" class="st19"/>
			</g>
			<g id="shape302-129" v:mID="302" v:groupContext="shape" transform="translate(0.00633715,-0.0506961)">
				<title>Sheet.302</title>
				<path d="M8.77 256.28 L0.2 256.28 a0.173618 0.173618 -180 0 0 -0.19545 0.14655 L8.96 256.43 L11.55 261.35 a0.453709
							 0.453709 -180 0 0 -0.0117 0.07575 L11.56 261.44 a0.233503 0.233503 -180 0 0 0.1245 -0.0987 a0.369262
							 0.369262 -180 0 0 -0.03285 -0.11925 L9.15 256.47 a0.41511 0.41511 -180 0 0 -0.38565 -0.18945 Z"
						class="st20"/>
			</g>
			<g id="shape303-131" v:mID="303" v:groupContext="shape" transform="translate(0.000253651,-0.00701692)">
				<title>Sheet.303</title>
				<path d="M11.73 255.5 a0.517446 0.517446 -180 0 0 -0.5178 -0.51795 L6.4 254.99 A2.39972 2.39972 -180 0 0 6.22 254.5
							 a0.684201 0.684201 -180 0 0 -0.433988 -0.463969 L3.26 254.04 a0.671094 0.671094 -180 0 0 -0.437212 0.43125
							 A3.14901 3.14901 -180 0 0 2.64 254.9 A10.4434 10.4434 -180 0 0 2.54 255.5 L2.54 256.24 L0.2 256.24 a0.175537
							 0.175537 -180 0 0 -0.1719 0.2712 L2.23 261.17 a0.5185 0.5185 -180 0 0 0.42825 0.2712 L11.38 261.44 a0.379891
							 0.379891 -180 0 0 0.3123 -0.14205 A4923.22 4923.22 -180 0 0 11.73 255.5 Z" class="st21"/>
			</g>
		</g>
		<g id="shape304-133" v:mID="304" v:groupContext="shape" transform="translate(65.6855,-152.829)">
			<title>Sheet.304</title>
			<desc>Folder B</desc>
			<v:textBlock v:margins="rect(4,4,4,4)" v:tabSpace="42.5197"/>
			<v:textRect cx="18.9921" cy="256.335" width="37.99" height="10.2047"/>
			<rect x="0" y="251.232" width="37.9843" height="10.2047" class="st14"/>
			<text x="4" y="259.93" class="st24" v:langID="1033"><v:paragraph/><v:tabList/><tspan class="st25">Folder</tspan><tspan
						class="st25" v:langID="2070"> </tspan><tspan class="st25">B</tspan></text>		</g>
		<g id="group188-139" transform="translate(90.5519,-121.984)" v:mID="188" v:groupContext="group">
			<title>Sheet.188</title>
			<g id="group189-140" v:mID="189" v:groupContext="group">
				<title>Sheet.189</title>
				<g id="shape190-141" v:mID="190" v:groupContext="shape" transform="translate(-2.9976E-015,-0.00718152)">
					<title>Sheet.190</title>
					<path d="M11.73 255.5 a0.517446 0.517446 -180 0 0 -0.5178 -0.51795 L6.4 254.99 A2.39972 2.39972 -180 0 0 6.22
								 254.5 a0.684201 0.684201 -180 0 0 -0.433988 -0.463969 L3.26 254.04 a0.671094 0.671094 -180 0 0 -0.437212
								 0.43125 A3.14901 3.14901 -180 0 0 2.64 254.9 A10.4434 10.4434 -180 0 0 2.54 255.5 L2.54 256.24 L0.2
								 256.24 a0.175537 0.175537 -180 0 0 -0.1719 0.2712 L2.23 261.17 a0.5185 0.5185 -180 0 0 0.42825 0.2712
								 L11.38 261.44 a0.379891 0.379891 -180 0 0 0.3123 -0.14205 A4923.22 4923.22 -180 0 0 11.73 255.5
								 Z" class="st2"/>
				</g>
				<g id="shape191-143" v:mID="191" v:groupContext="shape" transform="translate(2.54014,-0.291596)">
					<title>Sheet.191</title>
					<path d="M9.19 255.79 a0.517446 0.517446 -180 0 0 -0.5178 -0.51795 L3.86 255.27 A2.39972 2.39972 -180 0 0 3.68
								 254.79 a0.684201 0.684201 -180 0 0 -0.433988 -0.463969 L0.72 254.32 a0.671094 0.671094 -180 0 0
								 -0.437213 0.43125 A3.14901 3.14901 -180 0 0 0.1 255.18 A10.4434 10.4434 -180 0 0 0 255.79 L0 256.52
								 L6.53 256.52 L9.12 261.44 a0.511935 0.511935 -180 0 0 0.0693 -0.25455 L9.19 255.79 Z" class="st17"/>
				</g>
				<g id="shape193-146" v:mID="193" v:groupContext="shape" transform="translate(0.000253651,0)">
					<title>Sheet.193</title>
					<path d="M11.68 261.18 A11.6149 11.6149 0 0 1 11.39 261.36 a0.437107 0.437107 -180 0 0 0.12885 -0.47505 L9.21
								 256.5 a0.547699 0.547699 -180 0 0 -0.4398 -0.2655 L0.2 256.23 a0.175537 0.175537 -180 0 0 -0.1719
								 0.2712 L2.23 261.16 a0.5185 0.5185 -180 0 0 0.42825 0.2712 L11.38 261.43 a0.332841 0.332841 -180
								 0 0 0.297 -0.0825 A1.07388 1.07388 -180 0 0 11.68 261.18 Z" class="st18"/>
				</g>
				<g id="shape194-149" v:mID="194" v:groupContext="shape" transform="translate(0.0625871,-0.144596)">
					<title>Sheet.194</title>
					<path d="M8.77 256.28 L0.2 256.28 a0.173618 0.173618 -180 0 0 -0.19545 0.14655 A313.406 313.406 0 0 1 8.93 256.45
								 A137.265 137.265 0 0 1 11.55 261.35 a0.46976 0.46976 -180 0 0 -0.0117 0.07575 L11.56 261.44 a0.232831
								 0.232831 -180 0 0 0.1245 -0.0987 a0.365189 0.365189 -180 0 0 -0.03285 -0.11925 L9.15 256.47 a0.554407
								 0.554407 -180 0 0 -0.3858 -0.18945 Z" class="st19"/>
				</g>
				<g id="shape195-151" v:mID="195" v:groupContext="shape" transform="translate(0.00633715,-0.0506961)">
					<title>Sheet.195</title>
					<path d="M8.77 256.28 L0.2 256.28 a0.173618 0.173618 -180 0 0 -0.19545 0.14655 L8.96 256.43 L11.55 261.35 a0.453709
								 0.453709 -180 0 0 -0.0117 0.07575 L11.56 261.44 a0.233503 0.233503 -180 0 0 0.1245 -0.0987 a0.369262
								 0.369262 -180 0 0 -0.03285 -0.11925 L9.15 256.47 a0.41511 0.41511 -180 0 0 -0.38565 -0.18945 Z"
							class="st20"/>
				</g>
				<g id="shape196-153" v:mID="196" v:groupContext="shape" transform="translate(0.000253651,-0.00701692)">
					<title>Sheet.196</title>
					<path d="M11.73 255.5 a0.517446 0.517446 -180 0 0 -0.5178 -0.51795 L6.4 254.99 A2.39972 2.39972 -180 0 0 6.22
								 254.5 a0.684201 0.684201 -180 0 0 -0.433988 -0.463969 L3.26 254.04 a0.671094 0.671094 -180 0 0 -0.437212
								 0.43125 A3.14901 3.14901 -180 0 0 2.64 254.9 A10.4434 10.4434 -180 0 0 2.54 255.5 L2.54 256.24 L0.2
								 256.24 a0.175537 0.175537 -180 0 0 -0.1719 0.2712 L2.23 261.17 a0.5185 0.5185 -180 0 0 0.42825 0.2712
								 L11.38 261.44 a0.379891 0.379891 -180 0 0 0.3123 -0.14205 A4923.22 4923.22 -180 0 0 11.73 255.5
								 Z" class="st21"/>
				</g>
			</g>
			<g id="shape192-155" v:mID="192" v:groupContext="shape" transform="translate(4.25197,-0.672854)">
				<title>Sheet.192</title>
				<path d="M2.77 259.46 L5.51 254.28 L6.4 254.94 L3.1 261.44 L0 258.29 L0.69 257.32 L2.77 259.46 Z" class="st26"/>
			</g>
		</g>
		<g id="group212-158" transform="translate(27.2539,-205.61)" v:mID="212" v:groupContext="group">
			<title>Sheet.212</title>
			<g id="shape213-159" v:mID="213" v:groupContext="shape" transform="translate(1.77165,-0.935039)">
				<title>Triangle</title>
				<v:userDefs>
					<v:ud v:nameU="visVersion" v:val="VT0(14):26"/>
				</v:userDefs>
				<path d="M10.84 260.37 L5.93 251.87 a0.708661 0.708661 -180 0 0 -1.22744 0 L-0.21 260.37 a0.708661 0.708661 -180
							 0 0 0.613719 1.06299 L10.22 261.44 a0.708661 0.708661 -180 0 0 0.613719 -1.06299 Z" class="st27"/>
			</g>
			<g id="shape214-163" v:mID="214" v:groupContext="shape">
				<title>Sheet.214</title>
				<desc>!</desc>
				<v:textBlock v:margins="rect(4,4,4,4)" v:tabSpace="42.5197"/>
				<v:textRect cx="7.08661" cy="256.959" width="14.18" height="8.95669"/>
				<rect x="0" y="252.48" width="14.1732" height="8.95669" class="st14"/>
				<text x="6.11" y="258.76" class="st28" v:langID="1033"><v:paragraph v:horizAlign="1"/><v:tabList/>!</text>			</g>
		</g>
		<g id="shape305-166" v:mID="305" v:groupContext="shape" transform="translate(322.091,108.56) rotate(90)">
			<title>Sheet.305</title>
			<path d="M0 261.44 L11.34 261.44" class="st6"/>
		</g>
		<g id="shape309-169" v:mID="309" v:groupContext="shape" transform="translate(62.9997,-141.472)">
			<title>Sheet.309</title>
			<path d="M0 261.44 L9.64 261.44" class="st6"/>
		</g>
		<g id="group310-172" transform="translate(72.2123,-137.768)" v:mID="310" v:groupContext="group">
			<title>Sheet.310</title>
			<g id="shape311-173" v:mID="311" v:groupContext="shape" transform="translate(-2.9976E-015,-0.00718152)">
				<title>Sheet.311</title>
				<path d="M11.73 255.5 a0.517446 0.517446 -180 0 0 -0.5178 -0.51795 L6.4 254.99 A2.39972 2.39972 -180 0 0 6.22 254.5
							 a0.684201 0.684201 -180 0 0 -0.433988 -0.463969 L3.26 254.04 a0.671094 0.671094 -180 0 0 -0.437212 0.43125
							 A3.14901 3.14901 -180 0 0 2.64 254.9 A10.4434 10.4434 -180 0 0 2.54 255.5 L2.54 256.24 L0.2 256.24 a0.175537
							 0.175537 -180 0 0 -0.1719 0.2712 L2.23 261.17 a0.5185 0.5185 -180 0 0 0.42825 0.2712 L11.38 261.44 a0.379891
							 0.379891 -180 0 0 0.3123 -0.14205 A4923.22 4923.22 -180 0 0 11.73 255.5 Z" class="st2"/>
			</g>
			<g id="shape312-175" v:mID="312" v:groupContext="shape" transform="translate(2.54014,-0.291596)">
				<title>Sheet.312</title>
				<path d="M9.19 255.79 a0.517446 0.517446 -180 0 0 -0.5178 -0.51795 L3.86 255.27 A2.39972 2.39972 -180 0 0 3.68 254.79
							 a0.684201 0.684201 -180 0 0 -0.433988 -0.463969 L0.72 254.32 a0.671094 0.671094 -180 0 0 -0.437213 0.43125
							 A3.14901 3.14901 -180 0 0 0.1 255.18 A10.4434 10.4434 -180 0 0 0 255.79 L0 256.52 L6.53 256.52 L9.12
							 261.44 a0.511935 0.511935 -180 0 0 0.0693 -0.25455 L9.19 255.79 Z" class="st17"/>
			</g>
			<g id="shape313-178" v:mID="313" v:groupContext="shape" transform="translate(0.000253651,0)">
				<title>Sheet.313</title>
				<path d="M11.68 261.18 A11.6149 11.6149 0 0 1 11.39 261.36 a0.437107 0.437107 -180 0 0 0.12885 -0.47505 L9.21 256.5
							 a0.547699 0.547699 -180 0 0 -0.4398 -0.2655 L0.2 256.23 a0.175537 0.175537 -180 0 0 -0.1719 0.2712 L2.23
							 261.16 a0.5185 0.5185 -180 0 0 0.42825 0.2712 L11.38 261.43 a0.332841 0.332841 -180 0 0 0.297 -0.0825
							 A1.07388 1.07388 -180 0 0 11.68 261.18 Z" class="st18"/>
			</g>
			<g id="shape314-181" v:mID="314" v:groupContext="shape" transform="translate(0.0625871,-0.144596)">
				<title>Sheet.314</title>
				<path d="M8.77 256.28 L0.2 256.28 a0.173618 0.173618 -180 0 0 -0.19545 0.14655 A313.406 313.406 0 0 1 8.93 256.45
							 A137.265 137.265 0 0 1 11.55 261.35 a0.46976 0.46976 -180 0 0 -0.0117 0.07575 L11.56 261.44 a0.232831
							 0.232831 -180 0 0 0.1245 -0.0987 a0.365189 0.365189 -180 0 0 -0.03285 -0.11925 L9.15 256.47 a0.554407
							 0.554407 -180 0 0 -0.3858 -0.18945 Z" class="st19"/>
			</g>
			<g id="shape315-183" v:mID="315" v:groupContext="shape" transform="translate(0.00633715,-0.0506961)">
				<title>Sheet.315</title>
				<path d="M8.77 256.28 L0.2 256.28 a0.173618 0.173618 -180 0 0 -0.19545 0.14655 L8.96 256.43 L11.55 261.35 a0.453709
							 0.453709 -180 0 0 -0.0117 0.07575 L11.56 261.44 a0.233503 0.233503 -180 0 0 0.1245 -0.0987 a0.369262
							 0.369262 -180 0 0 -0.03285 -0.11925 L9.15 256.47 a0.41511 0.41511 -180 0 0 -0.38565 -0.18945 Z"
						class="st20"/>
			</g>
			<g id="shape316-185" v:mID="316" v:groupContext="shape" transform="translate(0.000253651,-0.00701692)">
				<title>Sheet.316</title>
				<path d="M11.73 255.5 a0.517446 0.517446 -180 0 0 -0.5178 -0.51795 L6.4 254.99 A2.39972 2.39972 -180 0 0 6.22 254.5
							 a0.684201 0.684201 -180 0 0 -0.433988 -0.463969 L3.26 254.04 a0.671094 0.671094 -180 0 0 -0.437212 0.43125
							 A3.14901 3.14901 -180 0 0 2.64 254.9 A10.4434 10.4434 -180 0 0 2.54 255.5 L2.54 256.24 L0.2 256.24 a0.175537
							 0.175537 -180 0 0 -0.1719 0.2712 L2.23 261.17 a0.5185 0.5185 -180 0 0 0.42825 0.2712 L11.38 261.44 a0.379891
							 0.379891 -180 0 0 0.3123 -0.14205 A4923.22 4923.22 -180 0 0 11.73 255.5 Z" class="st21"/>
			</g>
		</g>
		<g id="shape317-187" v:mID="317" v:groupContext="shape" transform="translate(82.984,-137.238)">
			<title>Sheet.317</title>
			<desc>Folder C</desc>
			<v:textBlock v:margins="rect(4,4,4,4)" v:tabSpace="42.5197"/>
			<v:textRect cx="18.9921" cy="256.335" width="37.99" height="10.2047"/>
			<rect x="0" y="251.232" width="37.9843" height="10.2047" class="st14"/>
			<text x="4" y="259.93" class="st24" v:langID="1033"><v:paragraph/><v:tabList/><tspan class="st25">Folder</tspan><tspan
						class="st25" v:langID="2070"> </tspan><tspan class="st25">C</tspan></text>		</g>
		<g id="shape318-193" v:mID="318" v:groupContext="shape" transform="translate(340.293,124.199) rotate(90)">
			<title>Sheet.318</title>
			<path d="M0 261.44 L11.34 261.44" class="st6"/>
		</g>
		<g id="shape322-196" v:mID="322" v:groupContext="shape" transform="translate(81.2014,-125.833)">
			<title>Sheet.322</title>
			<path d="M0 261.44 L9.64 261.44" class="st6"/>
		</g>
		<g id="shape330-199" v:mID="330" v:groupContext="shape" transform="translate(101.186,-121.6)">
			<title>Sheet.330</title>
			<desc>Folder D</desc>
			<v:textBlock v:margins="rect(4,4,4,4)" v:tabSpace="42.5197"/>
			<v:textRect cx="21.0063" cy="256.335" width="42.02" height="10.2047"/>
			<rect x="0" y="251.232" width="42.0127" height="10.2047" class="st14"/>
			<text x="4" y="259.93" class="st24" v:langID="1033"><v:paragraph/><v:tabList/><tspan class="st25">Folder</tspan><tspan
						class="st25" v:langID="2070"> </tspan><tspan class="st25">D</tspan></text>		</g>
		<g id="shape331-205" v:mID="331" v:groupContext="shape" transform="translate(358.494,138.372) rotate(90)">
			<title>Sheet.331</title>
			<path d="M0 261.44 L11.34 261.44" class="st6"/>
		</g>
		<g id="shape335-208" v:mID="335" v:groupContext="shape" transform="translate(99.4031,-111.66)">
			<title>Sheet.335</title>
			<path d="M0 261.44 L9.64 261.44" class="st6"/>
		</g>
		<g id="shape343-211" v:mID="343" v:groupContext="shape" transform="translate(119.387,-107.427)">
			<title>Sheet.343</title>
			<desc>Document A</desc>
			<v:textBlock v:margins="rect(4,4,4,4)" v:tabSpace="42.5197"/>
			<v:textRect cx="29.622" cy="256.335" width="59.25" height="10.2047"/>
			<rect x="0" y="251.232" width="59.2441" height="10.2047" class="st14"/>
			<text x="4" y="259.93" class="st24" v:langID="1033"><v:paragraph/><v:tabList/><tspan class="st25">Document A</tspan></text>		</g>
		<g id="shape344-215" v:mID="344" v:groupContext="shape" transform="translate(340.293,135.065) rotate(90)">
			<title>Sheet.344</title>
			<path d="M0 261.44 L31.61 261.44" class="st6"/>
		</g>
		<g id="group345-218" transform="translate(76.3606,-92.1673)" v:mID="345" v:groupContext="group">
			<title>Sheet.345</title>
			<g id="shape346-219" v:mID="346" v:groupContext="shape">
				<title>Sheet.346</title>
				<rect x="0" y="256.239" width="4.99016" height="5.19808" rx="0.708661" ry="0.708661" class="st22"/>
			</g>
			<g id="shape347-221" v:mID="347" v:groupContext="shape" transform="translate(1.03962,-2.59904)">
				<title>Sheet.347</title>
				<path d="M0 261.44 L2.91 261.44" class="st23"/>
			</g>
		</g>
		<g id="shape348-224" v:mID="348" v:groupContext="shape" transform="translate(81.2014,-94.7)">
			<title>Sheet.348</title>
			<path d="M0 261.44 L9.64 261.44" class="st6"/>
		</g>
		<g id="group349-227" transform="translate(90.414,-90.9965)" v:mID="349" v:groupContext="group">
			<title>Sheet.349</title>
			<g id="shape350-228" v:mID="350" v:groupContext="shape" transform="translate(-2.9976E-015,-0.00718152)">
				<title>Sheet.350</title>
				<path d="M11.73 255.5 a0.517446 0.517446 -180 0 0 -0.5178 -0.51795 L6.4 254.99 A2.39972 2.39972 -180 0 0 6.22 254.5
							 a0.684201 0.684201 -180 0 0 -0.433988 -0.463969 L3.26 254.04 a0.671094 0.671094 -180 0 0 -0.437212 0.43125
							 A3.14901 3.14901 -180 0 0 2.64 254.9 A10.4434 10.4434 -180 0 0 2.54 255.5 L2.54 256.24 L0.2 256.24 a0.175537
							 0.175537 -180 0 0 -0.1719 0.2712 L2.23 261.17 a0.5185 0.5185 -180 0 0 0.42825 0.2712 L11.38 261.44 a0.379891
							 0.379891 -180 0 0 0.3123 -0.14205 A4923.22 4923.22 -180 0 0 11.73 255.5 Z" class="st2"/>
			</g>
			<g id="shape351-230" v:mID="351" v:groupContext="shape" transform="translate(2.54014,-0.291596)">
				<title>Sheet.351</title>
				<path d="M9.19 255.79 a0.517446 0.517446 -180 0 0 -0.5178 -0.51795 L3.86 255.27 A2.39972 2.39972 -180 0 0 3.68 254.79
							 a0.684201 0.684201 -180 0 0 -0.433988 -0.463969 L0.72 254.32 a0.671094 0.671094 -180 0 0 -0.437213 0.43125
							 A3.14901 3.14901 -180 0 0 0.1 255.18 A10.4434 10.4434 -180 0 0 0 255.79 L0 256.52 L6.53 256.52 L9.12
							 261.44 a0.511935 0.511935 -180 0 0 0.0693 -0.25455 L9.19 255.79 Z" class="st17"/>
			</g>
			<g id="shape352-233" v:mID="352" v:groupContext="shape" transform="translate(0.000253651,0)">
				<title>Sheet.352</title>
				<path d="M11.68 261.18 A11.6149 11.6149 0 0 1 11.39 261.36 a0.437107 0.437107 -180 0 0 0.12885 -0.47505 L9.21 256.5
							 a0.547699 0.547699 -180 0 0 -0.4398 -0.2655 L0.2 256.23 a0.175537 0.175537 -180 0 0 -0.1719 0.2712 L2.23
							 261.16 a0.5185 0.5185 -180 0 0 0.42825 0.2712 L11.38 261.43 a0.332841 0.332841 -180 0 0 0.297 -0.0825
							 A1.07388 1.07388 -180 0 0 11.68 261.18 Z" class="st18"/>
			</g>
			<g id="shape353-236" v:mID="353" v:groupContext="shape" transform="translate(0.0625871,-0.144596)">
				<title>Sheet.353</title>
				<path d="M8.77 256.28 L0.2 256.28 a0.173618 0.173618 -180 0 0 -0.19545 0.14655 A313.406 313.406 0 0 1 8.93 256.45
							 A137.265 137.265 0 0 1 11.55 261.35 a0.46976 0.46976 -180 0 0 -0.0117 0.07575 L11.56 261.44 a0.232831
							 0.232831 -180 0 0 0.1245 -0.0987 a0.365189 0.365189 -180 0 0 -0.03285 -0.11925 L9.15 256.47 a0.554407
							 0.554407 -180 0 0 -0.3858 -0.18945 Z" class="st19"/>
			</g>
			<g id="shape354-238" v:mID="354" v:groupContext="shape" transform="translate(0.00633715,-0.0506961)">
				<title>Sheet.354</title>
				<path d="M8.77 256.28 L0.2 256.28 a0.173618 0.173618 -180 0 0 -0.19545 0.14655 L8.96 256.43 L11.55 261.35 a0.453709
							 0.453709 -180 0 0 -0.0117 0.07575 L11.56 261.44 a0.233503 0.233503 -180 0 0 0.1245 -0.0987 a0.369262
							 0.369262 -180 0 0 -0.03285 -0.11925 L9.15 256.47 a0.41511 0.41511 -180 0 0 -0.38565 -0.18945 Z"
						class="st20"/>
			</g>
			<g id="shape355-240" v:mID="355" v:groupContext="shape" transform="translate(0.000253651,-0.00701692)">
				<title>Sheet.355</title>
				<path d="M11.73 255.5 a0.517446 0.517446 -180 0 0 -0.5178 -0.51795 L6.4 254.99 A2.39972 2.39972 -180 0 0 6.22 254.5
							 a0.684201 0.684201 -180 0 0 -0.433988 -0.463969 L3.26 254.04 a0.671094 0.671094 -180 0 0 -0.437212 0.43125
							 A3.14901 3.14901 -180 0 0 2.64 254.9 A10.4434 10.4434 -180 0 0 2.54 255.5 L2.54 256.24 L0.2 256.24 a0.175537
							 0.175537 -180 0 0 -0.1719 0.2712 L2.23 261.17 a0.5185 0.5185 -180 0 0 0.42825 0.2712 L11.38 261.44 a0.379891
							 0.379891 -180 0 0 0.3123 -0.14205 A4923.22 4923.22 -180 0 0 11.73 255.5 Z" class="st21"/>
			</g>
		</g>
		<g id="shape356-242" v:mID="356" v:groupContext="shape" transform="translate(101.186,-90.4665)">
			<title>Sheet.356</title>
			<desc>Folder E</desc>
			<v:textBlock v:margins="rect(4,4,4,4)" v:tabSpace="42.5197"/>
			<v:textRect cx="18.9921" cy="256.335" width="37.99" height="10.2047"/>
			<rect x="0" y="251.232" width="37.9843" height="10.2047" class="st14"/>
			<text x="4" y="259.93" class="st24" v:langID="1033"><v:paragraph/><v:tabList/><tspan class="st25">Folder</tspan><tspan
						class="st25" v:langID="2070"> </tspan><tspan class="st25">E</tspan></text>		</g>
		<g id="shape357-248" v:mID="357" v:groupContext="shape" transform="translate(357.524,169.505) rotate(90)">
			<title>Sheet.357</title>
			<path d="M0 261.44 L11.34 261.44" class="st6"/>
		</g>
		<g id="shape361-251" v:mID="361" v:groupContext="shape" transform="translate(98.4328,-80.5268)">
			<title>Sheet.361</title>
			<path d="M0 261.44 L9.64 261.44" class="st6"/>
		</g>
		<g id="shape369-254" v:mID="369" v:groupContext="shape" transform="translate(118.417,-76.2933)">
			<title>Sheet.369</title>
			<desc>Document B</desc>
			<v:textBlock v:margins="rect(4,4,4,4)" v:tabSpace="42.5197"/>
			<v:textRect cx="26.5639" cy="256.335" width="53.13" height="10.2047"/>
			<rect x="0" y="251.232" width="53.1277" height="10.2047" class="st14"/>
			<text x="4" y="259.93" class="st24" v:langID="1033"><v:paragraph/><v:tabList/><tspan class="st25">Document B</tspan></text>		</g>
		<g id="shape370-258" v:mID="370" v:groupContext="shape" transform="translate(322.117,119.947) rotate(90)">
			<title>Sheet.370</title>
			<path d="M0 261.44 L77.9 261.44" class="st6"/>
		</g>
		<g id="group371-261" transform="translate(58.1852,-60.9862)" v:mID="371" v:groupContext="group">
			<title>Sheet.371</title>
			<g id="shape372-262" v:mID="372" v:groupContext="shape">
				<title>Sheet.372</title>
				<rect x="0" y="256.239" width="4.99016" height="5.19808" rx="0.708661" ry="0.708661" class="st22"/>
			</g>
			<g id="shape373-264" v:mID="373" v:groupContext="shape" transform="translate(1.03962,-2.59904)">
				<title>Sheet.373</title>
				<path d="M0 261.44 L2.91 261.44" class="st23"/>
			</g>
		</g>
		<g id="shape374-267" v:mID="374" v:groupContext="shape" transform="translate(63.026,-63.5189)">
			<title>Sheet.374</title>
			<path d="M0 261.44 L9.64 261.44" class="st6"/>
		</g>
		<g id="group375-270" transform="translate(72.2386,-59.8154)" v:mID="375" v:groupContext="group">
			<title>Sheet.375</title>
			<g id="shape376-271" v:mID="376" v:groupContext="shape" transform="translate(-2.9976E-015,-0.00718152)">
				<title>Sheet.376</title>
				<path d="M11.73 255.5 a0.517446 0.517446 -180 0 0 -0.5178 -0.51795 L6.4 254.99 A2.39972 2.39972 -180 0 0 6.22 254.5
							 a0.684201 0.684201 -180 0 0 -0.433988 -0.463969 L3.26 254.04 a0.671094 0.671094 -180 0 0 -0.437212 0.43125
							 A3.14901 3.14901 -180 0 0 2.64 254.9 A10.4434 10.4434 -180 0 0 2.54 255.5 L2.54 256.24 L0.2 256.24 a0.175537
							 0.175537 -180 0 0 -0.1719 0.2712 L2.23 261.17 a0.5185 0.5185 -180 0 0 0.42825 0.2712 L11.38 261.44 a0.379891
							 0.379891 -180 0 0 0.3123 -0.14205 A4923.22 4923.22 -180 0 0 11.73 255.5 Z" class="st2"/>
			</g>
			<g id="shape377-273" v:mID="377" v:groupContext="shape" transform="translate(2.54014,-0.291596)">
				<title>Sheet.377</title>
				<path d="M9.19 255.79 a0.517446 0.517446 -180 0 0 -0.5178 -0.51795 L3.86 255.27 A2.39972 2.39972 -180 0 0 3.68 254.79
							 a0.684201 0.684201 -180 0 0 -0.433988 -0.463969 L0.72 254.32 a0.671094 0.671094 -180 0 0 -0.437213 0.43125
							 A3.14901 3.14901 -180 0 0 0.1 255.18 A10.4434 10.4434 -180 0 0 0 255.79 L0 256.52 L6.53 256.52 L9.12
							 261.44 a0.511935 0.511935 -180 0 0 0.0693 -0.25455 L9.19 255.79 Z" class="st17"/>
			</g>
			<g id="shape378-276" v:mID="378" v:groupContext="shape" transform="translate(0.000253651,0)">
				<title>Sheet.378</title>
				<path d="M11.68 261.18 A11.6149 11.6149 0 0 1 11.39 261.36 a0.437107 0.437107 -180 0 0 0.12885 -0.47505 L9.21 256.5
							 a0.547699 0.547699 -180 0 0 -0.4398 -0.2655 L0.2 256.23 a0.175537 0.175537 -180 0 0 -0.1719 0.2712 L2.23
							 261.16 a0.5185 0.5185 -180 0 0 0.42825 0.2712 L11.38 261.43 a0.332841 0.332841 -180 0 0 0.297 -0.0825
							 A1.07388 1.07388 -180 0 0 11.68 261.18 Z" class="st18"/>
			</g>
			<g id="shape379-279" v:mID="379" v:groupContext="shape" transform="translate(0.0625871,-0.144596)">
				<title>Sheet.379</title>
				<path d="M8.77 256.28 L0.2 256.28 a0.173618 0.173618 -180 0 0 -0.19545 0.14655 A313.406 313.406 0 0 1 8.93 256.45
							 A137.265 137.265 0 0 1 11.55 261.35 a0.46976 0.46976 -180 0 0 -0.0117 0.07575 L11.56 261.44 a0.232831
							 0.232831 -180 0 0 0.1245 -0.0987 a0.365189 0.365189 -180 0 0 -0.03285 -0.11925 L9.15 256.47 a0.554407
							 0.554407 -180 0 0 -0.3858 -0.18945 Z" class="st19"/>
			</g>
			<g id="shape380-281" v:mID="380" v:groupContext="shape" transform="translate(0.00633715,-0.0506961)">
				<title>Sheet.380</title>
				<path d="M8.77 256.28 L0.2 256.28 a0.173618 0.173618 -180 0 0 -0.19545 0.14655 L8.96 256.43 L11.55 261.35 a0.453709
							 0.453709 -180 0 0 -0.0117 0.07575 L11.56 261.44 a0.233503 0.233503 -180 0 0 0.1245 -0.0987 a0.369262
							 0.369262 -180 0 0 -0.03285 -0.11925 L9.15 256.47 a0.41511 0.41511 -180 0 0 -0.38565 -0.18945 Z"
						class="st20"/>
			</g>
			<g id="shape381-283" v:mID="381" v:groupContext="shape" transform="translate(0.000253651,-0.00701692)">
				<title>Sheet.381</title>
				<path d="M11.73 255.5 a0.517446 0.517446 -180 0 0 -0.5178 -0.51795 L6.4 254.99 A2.39972 2.39972 -180 0 0 6.22 254.5
							 a0.684201 0.684201 -180 0 0 -0.433988 -0.463969 L3.26 254.04 a0.671094 0.671094 -180 0 0 -0.437212 0.43125
							 A3.14901 3.14901 -180 0 0 2.64 254.9 A10.4434 10.4434 -180 0 0 2.54 255.5 L2.54 256.24 L0.2 256.24 a0.175537
							 0.175537 -180 0 0 -0.1719 0.2712 L2.23 261.17 a0.5185 0.5185 -180 0 0 0.42825 0.2712 L11.38 261.44 a0.379891
							 0.379891 -180 0 0 0.3123 -0.14205 A4923.22 4923.22 -180 0 0 11.73 255.5 Z" class="st21"/>
			</g>
		</g>
		<g id="shape382-285" v:mID="382" v:groupContext="shape" transform="translate(83.0103,-59.2854)">
			<title>Sheet.382</title>
			<desc>Folder F</desc>
			<v:textBlock v:margins="rect(4,4,4,4)" v:tabSpace="42.5197"/>
			<v:textRect cx="18.9921" cy="256.335" width="37.99" height="10.2047"/>
			<rect x="0" y="251.232" width="37.9843" height="10.2047" class="st14"/>
			<text x="4" y="259.93" class="st24" v:langID="1033"><v:paragraph/><v:tabList/><tspan class="st25">Folder</tspan><tspan
						class="st25" v:langID="2070"> </tspan><tspan class="st25">F</tspan></text>		</g>
		<g id="shape383-291" v:mID="383" v:groupContext="shape" transform="translate(339.349,202.152) rotate(90)">
			<title>Sheet.383</title>
			<path d="M0 261.44 L11.34 261.44" class="st6"/>
		</g>
		<g id="group384-294" transform="translate(75.4166,-45.3478)" v:mID="384" v:groupContext="group">
			<title>Sheet.384</title>
			<g id="shape385-295" v:mID="385" v:groupContext="shape">
				<title>Sheet.385</title>
				<rect x="0" y="256.239" width="4.99016" height="5.19808" rx="0.708661" ry="0.708661" class="st22"/>
			</g>
			<g id="shape386-297" v:mID="386" v:groupContext="shape" transform="translate(1.03962,-2.59904)">
				<title>Sheet.386</title>
				<path d="M0 261.44 L2.91 261.44" class="st23"/>
			</g>
		</g>
		<g id="shape387-300" v:mID="387" v:groupContext="shape" transform="translate(80.2574,-47.8805)">
			<title>Sheet.387</title>
			<path d="M0 261.44 L9.64 261.44" class="st6"/>
		</g>
		<g id="group388-303" transform="translate(89.47,-44.177)" v:mID="388" v:groupContext="group">
			<title>Sheet.388</title>
			<g id="shape389-304" v:mID="389" v:groupContext="shape" transform="translate(-2.9976E-015,-0.00718152)">
				<title>Sheet.389</title>
				<path d="M11.73 255.5 a0.517446 0.517446 -180 0 0 -0.5178 -0.51795 L6.4 254.99 A2.39972 2.39972 -180 0 0 6.22 254.5
							 a0.684201 0.684201 -180 0 0 -0.433988 -0.463969 L3.26 254.04 a0.671094 0.671094 -180 0 0 -0.437212 0.43125
							 A3.14901 3.14901 -180 0 0 2.64 254.9 A10.4434 10.4434 -180 0 0 2.54 255.5 L2.54 256.24 L0.2 256.24 a0.175537
							 0.175537 -180 0 0 -0.1719 0.2712 L2.23 261.17 a0.5185 0.5185 -180 0 0 0.42825 0.2712 L11.38 261.44 a0.379891
							 0.379891 -180 0 0 0.3123 -0.14205 A4923.22 4923.22 -180 0 0 11.73 255.5 Z" class="st2"/>
			</g>
			<g id="shape390-306" v:mID="390" v:groupContext="shape" transform="translate(2.54014,-0.291596)">
				<title>Sheet.390</title>
				<path d="M9.19 255.79 a0.517446 0.517446 -180 0 0 -0.5178 -0.51795 L3.86 255.27 A2.39972 2.39972 -180 0 0 3.68 254.79
							 a0.684201 0.684201 -180 0 0 -0.433988 -0.463969 L0.72 254.32 a0.671094 0.671094 -180 0 0 -0.437213 0.43125
							 A3.14901 3.14901 -180 0 0 0.1 255.18 A10.4434 10.4434 -180 0 0 0 255.79 L0 256.52 L6.53 256.52 L9.12
							 261.44 a0.511935 0.511935 -180 0 0 0.0693 -0.25455 L9.19 255.79 Z" class="st17"/>
			</g>
			<g id="shape391-309" v:mID="391" v:groupContext="shape" transform="translate(0.000253651,0)">
				<title>Sheet.391</title>
				<path d="M11.68 261.18 A11.6149 11.6149 0 0 1 11.39 261.36 a0.437107 0.437107 -180 0 0 0.12885 -0.47505 L9.21 256.5
							 a0.547699 0.547699 -180 0 0 -0.4398 -0.2655 L0.2 256.23 a0.175537 0.175537 -180 0 0 -0.1719 0.2712 L2.23
							 261.16 a0.5185 0.5185 -180 0 0 0.42825 0.2712 L11.38 261.43 a0.332841 0.332841 -180 0 0 0.297 -0.0825
							 A1.07388 1.07388 -180 0 0 11.68 261.18 Z" class="st18"/>
			</g>
			<g id="shape392-312" v:mID="392" v:groupContext="shape" transform="translate(0.0625871,-0.144596)">
				<title>Sheet.392</title>
				<path d="M8.77 256.28 L0.2 256.28 a0.173618 0.173618 -180 0 0 -0.19545 0.14655 A313.406 313.406 0 0 1 8.93 256.45
							 A137.265 137.265 0 0 1 11.55 261.35 a0.46976 0.46976 -180 0 0 -0.0117 0.07575 L11.56 261.44 a0.232831
							 0.232831 -180 0 0 0.1245 -0.0987 a0.365189 0.365189 -180 0 0 -0.03285 -0.11925 L9.15 256.47 a0.554407
							 0.554407 -180 0 0 -0.3858 -0.18945 Z" class="st19"/>
			</g>
			<g id="shape393-314" v:mID="393" v:groupContext="shape" transform="translate(0.00633715,-0.0506961)">
				<title>Sheet.393</title>
				<path d="M8.77 256.28 L0.2 256.28 a0.173618 0.173618 -180 0 0 -0.19545 0.14655 L8.96 256.43 L11.55 261.35 a0.453709
							 0.453709 -180 0 0 -0.0117 0.07575 L11.56 261.44 a0.233503 0.233503 -180 0 0 0.1245 -0.0987 a0.369262
							 0.369262 -180 0 0 -0.03285 -0.11925 L9.15 256.47 a0.41511 0.41511 -180 0 0 -0.38565 -0.18945 Z"
						class="st20"/>
			</g>
			<g id="shape394-316" v:mID="394" v:groupContext="shape" transform="translate(0.000253651,-0.00701692)">
				<title>Sheet.394</title>
				<path d="M11.73 255.5 a0.517446 0.517446 -180 0 0 -0.5178 -0.51795 L6.4 254.99 A2.39972 2.39972 -180 0 0 6.22 254.5
							 a0.684201 0.684201 -180 0 0 -0.433988 -0.463969 L3.26 254.04 a0.671094 0.671094 -180 0 0 -0.437212 0.43125
							 A3.14901 3.14901 -180 0 0 2.64 254.9 A10.4434 10.4434 -180 0 0 2.54 255.5 L2.54 256.24 L0.2 256.24 a0.175537
							 0.175537 -180 0 0 -0.1719 0.2712 L2.23 261.17 a0.5185 0.5185 -180 0 0 0.42825 0.2712 L11.38 261.44 a0.379891
							 0.379891 -180 0 0 0.3123 -0.14205 A4923.22 4923.22 -180 0 0 11.73 255.5 Z" class="st21"/>
			</g>
		</g>
		<g id="shape395-318" v:mID="395" v:groupContext="shape" transform="translate(100.242,-43.647)">
			<title>Sheet.395</title>
			<desc>Folder H</desc>
			<v:textBlock v:margins="rect(4,4,4,4)" v:tabSpace="42.5197"/>
			<v:textRect cx="23.0206" cy="256.335" width="46.05" height="10.2047"/>
			<rect x="0" y="251.232" width="46.0411" height="10.2047" class="st14"/>
			<text x="4" y="259.93" class="st24" v:langID="1033"><v:paragraph/><v:tabList/><tspan class="st25">Folder</tspan><tspan
						class="st25" v:langID="2070"> </tspan><tspan class="st25">H</tspan></text>		</g>
		<g id="shape396-324" v:mID="396" v:groupContext="shape" transform="translate(357.55,216.325) rotate(90)">
			<title>Sheet.396</title>
			<path d="M0 261.44 L11.34 261.44" class="st6"/>
		</g>
		<g id="shape400-327" v:mID="400" v:groupContext="shape" transform="translate(98.4591,-33.7073)">
			<title>Sheet.400</title>
			<path d="M0 261.44 L9.64 261.44" class="st6"/>
		</g>
		<g id="shape408-330" v:mID="408" v:groupContext="shape" transform="translate(118.443,-29.4738)">
			<title>Sheet.408</title>
			<desc>Document C</desc>
			<v:textBlock v:margins="rect(4,4,4,4)" v:tabSpace="42.5197"/>
			<v:textRect cx="28.093" cy="256.335" width="56.19" height="10.2047"/>
			<rect x="0" y="251.232" width="56.1859" height="10.2047" class="st14"/>
			<text x="4" y="259.93" class="st24" v:langID="1033"><v:paragraph/><v:tabList/><tspan class="st25">Document C</tspan></text>		</g>
		<g id="group323-334" transform="translate(110.382,-106.596)" v:mID="323" v:groupContext="group">
			<title>Sheet.323</title>
			<g id="group324-335" v:mID="324" v:groupContext="group">
				<title>Sheet.324</title>
				<g id="shape325-336" v:mID="325" v:groupContext="shape" transform="translate(-5.4956E-015,-0.00334063)">
					<title>Sheet.325</title>
					<path d="M7.91 254.04 L5.89 252.06 L0 252.06 L0 261.44 L7.91 261.44 L7.91 254.33 L7.91 254.33 L7.91 254.04 Z"
							class="st20"/>
				</g>
				<g id="shape326-338" v:mID="326" v:groupContext="shape" transform="translate(0.00792,0)">
					<title>Sheet.326</title>
					<path d="M5.88 252.06 L0 252.06 L0 261.44 L7.89 261.44 L7.89 254.04 L5.88 252.06 Z" class="st29"/>
				</g>
				<g id="shape327-344" v:mID="327" v:groupContext="shape" transform="translate(5.7534,-7.3374)">
					<title>Sheet.327</title>
					<path d="M2.15 261.37 L0.13 259.4 L0 259.4 L0 261.44 L2.15 261.44 L2.15 261.37 Z" class="st30"/>
				</g>
				<g id="shape328-346" v:mID="328" v:groupContext="shape" transform="translate(5.86752,-7.4514)">
					<title>Sheet.328</title>
					<path d="M0 261.44 L1.91 261.44 L0 259.58 L0 261.44 Z" class="st20"/>
				</g>
				<g id="shape329-348" v:mID="329" v:groupContext="shape" transform="translate(-5.4956E-015,-0.00396)">
					<title>Sheet.329</title>
					<path d="M7.91 254.04 L5.89 252.06 L0 252.06 L0 261.44 L7.91 261.44 L7.91 254.33 L7.91 254.33 L7.91 254.04 Z"
							class="st21"/>
				</g>
				<g id="shape332-350" v:mID="332" v:groupContext="shape" transform="translate(0.79104,-7.09656)">
					<title>Sheet.332</title>
					<rect x="0" y="261.351" width="3.66204" height="0.08556" class="st31"/>
				</g>
				<g id="shape333-354" v:mID="333" v:groupContext="shape" transform="translate(0.79104,-6.10356)">
					<title>Sheet.333</title>
					<rect x="0" y="261.351" width="6.02064" height="0.08556" class="st31"/>
				</g>
				<g id="shape334-357" v:mID="334" v:groupContext="shape" transform="translate(0.79104,-5.17248)">
					<title>Sheet.334</title>
					<rect x="0" y="261.352" width="6.02064" height="0.08544" class="st31"/>
				</g>
				<g id="shape358-360" v:mID="358" v:groupContext="shape" transform="translate(0.79104,-4.2414)">
					<title>Sheet.358</title>
					<rect x="0" y="261.351" width="6.02064" height="0.08556" class="st31"/>
				</g>
				<g id="shape359-363" v:mID="359" v:groupContext="shape" transform="translate(0.79104,-3.31032)">
					<title>Sheet.359</title>
					<rect x="0" y="261.351" width="6.02064" height="0.08556" class="st31"/>
				</g>
				<g id="shape360-366" v:mID="360" v:groupContext="shape" transform="translate(0.79104,-2.37936)">
					<title>Sheet.360</title>
					<rect x="0" y="261.351" width="6.02064" height="0.08556" class="st31"/>
				</g>
				<g id="shape409-369" v:mID="409" v:groupContext="shape" transform="translate(0.79104,-1.4484)">
					<title>Sheet.409</title>
					<rect x="0" y="261.352" width="6.02064" height="0.08544" class="st31"/>
				</g>
			</g>
			<g id="shape410-372" v:mID="410" v:groupContext="shape" transform="translate(2.53698,-1.78508)">
				<title>Sheet.410</title>
				<path d="M2.77 259.46 L5.51 254.28 L6.4 254.94 L3.1 261.44 L0 258.29 L0.69 257.32 L2.77 259.46 Z" class="st26"/>
			</g>
		</g>
		<g id="group336-375" transform="translate(110.028,-29.5217)" v:mID="336" v:groupContext="group">
			<title>Sheet.336</title>
			<g id="group337-376" v:mID="337" v:groupContext="group">
				<title>Sheet.337</title>
				<g id="shape338-377" v:mID="338" v:groupContext="shape" transform="translate(-5.4956E-015,-0.00334063)">
					<title>Sheet.338</title>
					<path d="M7.91 254.04 L5.89 252.06 L0 252.06 L0 261.44 L7.91 261.44 L7.91 254.33 L7.91 254.33 L7.91 254.04 Z"
							class="st20"/>
				</g>
				<g id="shape339-379" v:mID="339" v:groupContext="shape" transform="translate(0.00792,0)">
					<title>Sheet.339</title>
					<path d="M5.88 252.06 L0 252.06 L0 261.44 L7.89 261.44 L7.89 254.04 L5.88 252.06 Z" class="st29"/>
				</g>
				<g id="shape340-382" v:mID="340" v:groupContext="shape" transform="translate(5.7534,-7.3374)">
					<title>Sheet.340</title>
					<path d="M2.15 261.37 L0.13 259.4 L0 259.4 L0 261.44 L2.15 261.44 L2.15 261.37 Z" class="st30"/>
				</g>
				<g id="shape341-384" v:mID="341" v:groupContext="shape" transform="translate(5.86752,-7.4514)">
					<title>Sheet.341</title>
					<path d="M0 261.44 L1.91 261.44 L0 259.58 L0 261.44 Z" class="st20"/>
				</g>
				<g id="shape342-386" v:mID="342" v:groupContext="shape" transform="translate(-5.4956E-015,-0.00396)">
					<title>Sheet.342</title>
					<path d="M7.91 254.04 L5.89 252.06 L0 252.06 L0 261.44 L7.91 261.44 L7.91 254.33 L7.91 254.33 L7.91 254.04 Z"
							class="st21"/>
				</g>
				<g id="shape420-388" v:mID="420" v:groupContext="shape" transform="translate(0.79104,-7.09656)">
					<title>Sheet.420</title>
					<rect x="0" y="261.351" width="3.66204" height="0.08556" class="st31"/>
				</g>
				<g id="shape421-391" v:mID="421" v:groupContext="shape" transform="translate(0.79104,-6.10356)">
					<title>Sheet.421</title>
					<rect x="0" y="261.351" width="6.02064" height="0.08556" class="st31"/>
				</g>
				<g id="shape422-394" v:mID="422" v:groupContext="shape" transform="translate(0.79104,-5.17248)">
					<title>Sheet.422</title>
					<rect x="0" y="261.352" width="6.02064" height="0.08544" class="st31"/>
				</g>
				<g id="shape423-397" v:mID="423" v:groupContext="shape" transform="translate(0.79104,-4.2414)">
					<title>Sheet.423</title>
					<rect x="0" y="261.351" width="6.02064" height="0.08556" class="st31"/>
				</g>
				<g id="shape424-400" v:mID="424" v:groupContext="shape" transform="translate(0.79104,-3.31032)">
					<title>Sheet.424</title>
					<rect x="0" y="261.351" width="6.02064" height="0.08556" class="st31"/>
				</g>
				<g id="shape425-403" v:mID="425" v:groupContext="shape" transform="translate(0.79104,-2.37936)">
					<title>Sheet.425</title>
					<rect x="0" y="261.351" width="6.02064" height="0.08556" class="st31"/>
				</g>
				<g id="shape426-406" v:mID="426" v:groupContext="shape" transform="translate(0.79104,-1.4484)">
					<title>Sheet.426</title>
					<rect x="0" y="261.352" width="6.02064" height="0.08544" class="st31"/>
				</g>
			</g>
			<g id="shape427-409" v:mID="427" v:groupContext="shape" transform="translate(6.78895,-2.22308) scale(-1,1)">
				<title>Refresh</title>
				<v:userDefs>
					<v:ud v:nameU="msvShapeCategories" v:prompt="" v:val="VT4(Icon)"/>
					<v:ud v:nameU="visVersion" v:prompt="" v:val="VT0(14):26"/>
				</v:userDefs>
				<path d="M2.71 258.52 L2.02 258.52 A1.60852 1.63426 0 0 1 3.73 256.68 A1.43989 1.46293 -180 0 0 3.07 256.51 A2.1621
							 2.19669 -180 0 0 0.74 258.52 L0.05 258.52 L0 258.62 L1.29 260.05 L1.38 260.09 L1.47 260.05 L2.75 258.62
							 L2.71 258.52 ZM2.96 259.41 L3.65 259.41 A1.60942 1.63517 0 0 1 1.94 261.26 A1.44534 1.46847 -180 0 0
							 2.6 261.43 A2.16244 2.19704 -180 0 0 4.93 259.42 L5.62 259.42 L5.67 259.32 L4.38 257.89 L4.29 257.85
							 L4.2 257.89 L2.92 259.32 L2.96 259.41 Z" class="st32"/>
			</g>
		</g>
		<g id="group401-411" transform="translate(109.778,-75.8539)" v:mID="401" v:groupContext="group">
			<title>Sheet.401</title>
			<g id="shape402-412" v:mID="402" v:groupContext="shape" transform="translate(-5.4956E-015,-0.00334063)">
				<title>Sheet.402</title>
				<path d="M7.91 254.04 L5.89 252.06 L0 252.06 L0 261.44 L7.91 261.44 L7.91 254.33 L7.91 254.33 L7.91 254.04 Z"
						class="st20"/>
			</g>
			<g id="shape403-414" v:mID="403" v:groupContext="shape" transform="translate(0.00792,0)">
				<title>Sheet.403</title>
				<path d="M5.88 252.06 L0 252.06 L0 261.44 L7.89 261.44 L7.89 254.04 L5.88 252.06 Z" class="st29"/>
			</g>
			<g id="shape404-417" v:mID="404" v:groupContext="shape" transform="translate(5.7534,-7.3374)">
				<title>Sheet.404</title>
				<path d="M2.15 261.37 L0.13 259.4 L0 259.4 L0 261.44 L2.15 261.44 L2.15 261.37 Z" class="st30"/>
			</g>
			<g id="shape405-419" v:mID="405" v:groupContext="shape" transform="translate(5.86752,-7.4514)">
				<title>Sheet.405</title>
				<path d="M0 261.44 L1.91 261.44 L0 259.58 L0 261.44 Z" class="st20"/>
			</g>
			<g id="shape406-421" v:mID="406" v:groupContext="shape" transform="translate(-5.4956E-015,-0.00396)">
				<title>Sheet.406</title>
				<path d="M7.91 254.04 L5.89 252.06 L0 252.06 L0 261.44 L7.91 261.44 L7.91 254.33 L7.91 254.33 L7.91 254.04 Z"
						class="st21"/>
			</g>
			<g id="shape407-423" v:mID="407" v:groupContext="shape" transform="translate(0.79104,-7.09656)">
				<title>Sheet.407</title>
				<rect x="0" y="261.351" width="3.66204" height="0.08556" class="st31"/>
			</g>
			<g id="shape428-426" v:mID="428" v:groupContext="shape" transform="translate(0.79104,-6.10356)">
				<title>Sheet.428</title>
				<rect x="0" y="261.351" width="6.02064" height="0.08556" class="st31"/>
			</g>
			<g id="shape429-429" v:mID="429" v:groupContext="shape" transform="translate(0.79104,-5.17248)">
				<title>Sheet.429</title>
				<rect x="0" y="261.352" width="6.02064" height="0.08544" class="st31"/>
			</g>
			<g id="shape430-432" v:mID="430" v:groupContext="shape" transform="translate(0.79104,-4.2414)">
				<title>Sheet.430</title>
				<rect x="0" y="261.351" width="6.02064" height="0.08556" class="st31"/>
			</g>
			<g id="shape431-435" v:mID="431" v:groupContext="shape" transform="translate(0.79104,-3.31032)">
				<title>Sheet.431</title>
				<rect x="0" y="261.351" width="6.02064" height="0.08556" class="st31"/>
			</g>
			<g id="shape432-438" v:mID="432" v:groupContext="shape" transform="translate(0.79104,-2.37936)">
				<title>Sheet.432</title>
				<rect x="0" y="261.351" width="6.02064" height="0.08556" class="st31"/>
			</g>
			<g id="shape433-441" v:mID="433" v:groupContext="shape" transform="translate(0.79104,-1.4484)">
				<title>Sheet.433</title>
				<rect x="0" y="261.352" width="6.02064" height="0.08544" class="st31"/>
			</g>
		</g>
		<g id="group319-444" transform="translate(76.3606,-123.301)" v:mID="319" v:groupContext="group">
			<title>Sheet.319</title>
			<g id="shape320-445" v:mID="320" v:groupContext="shape">
				<title>Sheet.320</title>
				<rect x="0" y="256.239" width="4.99016" height="5.19808" rx="0.708661" ry="0.708661" class="st22"/>
			</g>
			<g id="shape321-447" v:mID="321" v:groupContext="shape" transform="translate(1.03962,-2.59904)">
				<title>Sheet.321</title>
				<path d="M0 261.44 L2.91 261.44" class="st23"/>
			</g>
		</g>
		<g id="group362-450" transform="translate(168.71,-76.3271)" v:mID="362" v:groupContext="group">
			<title>Sheet.362</title>
			<g id="shape363-451" v:mID="363" v:groupContext="shape" transform="translate(0.00211796,-0.0197273)">
				<title>Sheet.363</title>
				<path d="M9.72 255.5 L6.39 255.34 L5.1 252.11 a0.443878 0.443878 -180 0 0 -0.159876 -0.204293 a0.457665 0.457665
							 -180 0 0 -0.119574 0.206471 L3.49 255.32 L0.2 255.5 a0.243425 0.243425 -180 0 0 -0.19933 0.086897 a0.529254
							 0.529254 -180 0 0 0.163991 0.167864 L2.74 257.85 L1.91 261.12 a0.677734 0.677734 -180 0 0 -0.0344925
							 0.313337 a0.279029 0.279029 -180 0 0 0.194731 -0.0793933 L4.98 259.44 L7.78 261.33 a0.570915 0.570915
							 -180 0 0 0.279329 0.0934324 a0.337395 0.337395 -180 0 0 0 -0.224988 L7.11 257.82 L9.73 255.75 a0.665487
							 0.665487 -180 0 0 0.185776 -0.190496 a0.305795 0.305795 -180 0 0 -0.201751 -0.0637809 Z" class="st33"/>
			</g>
			<g id="shape364-453" v:mID="364" v:groupContext="shape">
				<title>Sheet.364</title>
				<path d="M9.72 255.46 L6.39 255.3 L5.1 252.07 C5.1 252.07 5 251.87 4.94 251.87 C4.89 251.87 4.82 252.07 4.82 252.07
							 L3.49 255.28 L0.2 255.46 C0.2 255.46 -0 255.47 0 255.54 C0 255.59 0.16 255.71 0.16 255.71 L2.74 257.81
							 L1.91 261.08 C1.91 261.08 1.83 261.36 1.88 261.4 C1.93 261.44 2.07 261.32 2.07 261.32 L4.98 259.4 L7.78
							 261.29 C7.78 261.29 8 261.42 8.06 261.38 C8.11 261.35 8.06 261.16 8.06 261.16 L7.11 257.78 L9.73 255.71
							 C9.73 255.71 9.92 255.57 9.92 255.52 C9.91 255.47 9.72 255.46 9.72 255.46 ZM2.96 257.73 L0.45 255.66
							 L3.58 255.47 L4.97 252.2 L6.3 255.49 L8.09 255.55 C8.09 255.55 6.05 256.1 4.87 256.92 C3.68 257.75 2.41
							 259.71 2.41 259.71 L2.96 257.73 ZM7.06 257.79 L8.04 261.36 L4.99 259.32 L1.95 261.33 L4.99 259.04 L7.93
							 261.23 L6.82 257.69 L9.84 255.58 L7.06 257.79 Z" class="st34"/>
			</g>
			<g id="shape365-459" v:mID="365" v:groupContext="shape" transform="translate(1.94961,-0.0747943)">
				<title>Sheet.365</title>
				<path d="M5.98 261.31 L3.04 259.12 L0 261.4 L3.04 259.4 L6.09 261.44 L5.11 257.86 L7.89 255.65 L4.87 257.76 L5.98
							 261.31 Z" class="st35"/>
			</g>
			<g id="shape366-461" v:mID="366" v:groupContext="shape" transform="translate(0.44695,-1.73152)">
				<title>Sheet.366</title>
				<path d="M4.42 258.65 C5.6 257.83 7.64 257.28 7.64 257.28 L5.85 257.22 L4.52 253.93 L3.13 257.2 L0 257.39 L2.51 259.46
							 L1.96 261.44 C1.96 261.44 3.23 259.48 4.42 258.65 Z" class="st34"/>
			</g>
			<g id="shape367-464" v:mID="367" v:groupContext="shape" transform="translate(0.44695,-1.73152)">
				<title>Sheet.367</title>
				<path d="M4.42 258.65 C5.6 257.83 7.64 257.28 7.64 257.28 L5.85 257.22 L4.52 253.93 L3.13 257.2 L0 257.39 L2.51 259.46
							 L1.96 261.44 C1.96 261.44 3.23 259.48 4.42 258.65 Z" class="st36"/>
			</g>
			<g id="shape368-470" v:mID="368" v:groupContext="shape">
				<title>Sheet.368</title>
				<path d="M9.72 255.46 L6.39 255.3 L5.1 252.07 C5.1 252.07 5 251.87 4.94 251.87 C4.89 251.87 4.82 252.07 4.82 252.07
							 L3.49 255.28 L0.2 255.46 C0.2 255.46 -0 255.47 0 255.54 C0 255.59 0.16 255.71 0.16 255.71 L2.74 257.81
							 L1.91 261.08 C1.91 261.08 1.83 261.36 1.88 261.4 C1.93 261.44 2.07 261.32 2.07 261.32 L4.98 259.4 L7.78
							 261.29 C7.78 261.29 8 261.42 8.06 261.38 C8.11 261.35 8.06 261.16 8.06 261.16 L7.11 257.78 L9.73 255.71
							 C9.73 255.71 9.92 255.57 9.92 255.52 C9.91 255.47 9.72 255.46 9.72 255.46 Z" class="st21"/>
			</g>
			<g id="shape397-472" v:mID="397" v:groupContext="shape">
				<title>Star label</title>
				<v:userDefs>
					<v:ud v:nameU="SolSH" v:prompt="" v:val="VT14({EFB4EACD-BEFB-4ECD-A226-1282E88A7BE7}):41"/>
					<v:ud v:nameU="visShapeType" v:prompt="" v:val="VT0(3):26"/>
					<v:ud v:nameU="visCalShapeType" v:prompt="" v:val="VT0(6):26"/>
					<v:ud v:nameU="visVersion" v:prompt="" v:val="VT0(14):26"/>
				</v:userDefs>
				<v:textBlock v:margins="rect(4,4,4,4)" v:tabSpace="42.5197"/>
			</g>
		</g>
		<g id="group398-473" transform="translate(168.278,-30.0886)" v:mID="398" v:groupContext="group">
			<title>Sheet.398</title>
			<g id="shape399-474" v:mID="399" v:groupContext="shape" transform="translate(0.00211796,-0.0197273)">
				<title>Sheet.399</title>
				<path d="M9.72 255.5 L6.39 255.34 L5.1 252.11 a0.443878 0.443878 -180 0 0 -0.159876 -0.204293 a0.457665 0.457665
							 -180 0 0 -0.119574 0.206471 L3.49 255.32 L0.2 255.5 a0.243425 0.243425 -180 0 0 -0.19933 0.086897 a0.529254
							 0.529254 -180 0 0 0.163991 0.167864 L2.74 257.85 L1.91 261.12 a0.677734 0.677734 -180 0 0 -0.0344925
							 0.313337 a0.279029 0.279029 -180 0 0 0.194731 -0.0793933 L4.98 259.44 L7.78 261.33 a0.570915 0.570915
							 -180 0 0 0.279329 0.0934324 a0.337395 0.337395 -180 0 0 0 -0.224988 L7.11 257.82 L9.73 255.75 a0.665487
							 0.665487 -180 0 0 0.185776 -0.190496 a0.305795 0.305795 -180 0 0 -0.201751 -0.0637809 Z" class="st33"/>
			</g>
			<g id="shape434-476" v:mID="434" v:groupContext="shape">
				<title>Sheet.434</title>
				<path d="M9.72 255.46 L6.39 255.3 L5.1 252.07 C5.1 252.07 5 251.87 4.94 251.87 C4.89 251.87 4.82 252.07 4.82 252.07
							 L3.49 255.28 L0.2 255.46 C0.2 255.46 -0 255.47 0 255.54 C0 255.59 0.16 255.71 0.16 255.71 L2.74 257.81
							 L1.91 261.08 C1.91 261.08 1.83 261.36 1.88 261.4 C1.93 261.44 2.07 261.32 2.07 261.32 L4.98 259.4 L7.78
							 261.29 C7.78 261.29 8 261.42 8.06 261.38 C8.11 261.35 8.06 261.16 8.06 261.16 L7.11 257.78 L9.73 255.71
							 C9.73 255.71 9.92 255.57 9.92 255.52 C9.91 255.47 9.72 255.46 9.72 255.46 ZM2.96 257.73 L0.45 255.66
							 L3.58 255.47 L4.97 252.2 L6.3 255.49 L8.09 255.55 C8.09 255.55 6.05 256.1 4.87 256.92 C3.68 257.75 2.41
							 259.71 2.41 259.71 L2.96 257.73 ZM7.06 257.79 L8.04 261.36 L4.99 259.32 L1.95 261.33 L4.99 259.04 L7.93
							 261.23 L6.82 257.69 L9.84 255.58 L7.06 257.79 Z" class="st34"/>
			</g>
			<g id="shape435-479" v:mID="435" v:groupContext="shape" transform="translate(1.94961,-0.0747943)">
				<title>Sheet.435</title>
				<path d="M5.98 261.31 L3.04 259.12 L0 261.4 L3.04 259.4 L6.09 261.44 L5.11 257.86 L7.89 255.65 L4.87 257.76 L5.98
							 261.31 Z" class="st35"/>
			</g>
			<g id="shape436-481" v:mID="436" v:groupContext="shape" transform="translate(0.44695,-1.73152)">
				<title>Sheet.436</title>
				<path d="M4.42 258.65 C5.6 257.83 7.64 257.28 7.64 257.28 L5.85 257.22 L4.52 253.93 L3.13 257.2 L0 257.39 L2.51 259.46
							 L1.96 261.44 C1.96 261.44 3.23 259.48 4.42 258.65 Z" class="st34"/>
			</g>
			<g id="shape437-484" v:mID="437" v:groupContext="shape" transform="translate(0.44695,-1.73152)">
				<title>Sheet.437</title>
				<path d="M4.42 258.65 C5.6 257.83 7.64 257.28 7.64 257.28 L5.85 257.22 L4.52 253.93 L3.13 257.2 L0 257.39 L2.51 259.46
							 L1.96 261.44 C1.96 261.44 3.23 259.48 4.42 258.65 Z" class="st36"/>
			</g>
			<g id="shape438-487" v:mID="438" v:groupContext="shape">
				<title>Sheet.438</title>
				<path d="M9.72 255.46 L6.39 255.3 L5.1 252.07 C5.1 252.07 5 251.87 4.94 251.87 C4.89 251.87 4.82 252.07 4.82 252.07
							 L3.49 255.28 L0.2 255.46 C0.2 255.46 -0 255.47 0 255.54 C0 255.59 0.16 255.71 0.16 255.71 L2.74 257.81
							 L1.91 261.08 C1.91 261.08 1.83 261.36 1.88 261.4 C1.93 261.44 2.07 261.32 2.07 261.32 L4.98 259.4 L7.78
							 261.29 C7.78 261.29 8 261.42 8.06 261.38 C8.11 261.35 8.06 261.16 8.06 261.16 L7.11 257.78 L9.73 255.71
							 C9.73 255.71 9.92 255.57 9.92 255.52 C9.91 255.47 9.72 255.46 9.72 255.46 Z" class="st21"/>
			</g>
			<g id="shape439-489" v:mID="439" v:groupContext="shape">
				<title>Star label</title>
				<v:userDefs>
					<v:ud v:nameU="SolSH" v:prompt="" v:val="VT14({EFB4EACD-BEFB-4ECD-A226-1282E88A7BE7}):41"/>
					<v:ud v:nameU="visShapeType" v:prompt="" v:val="VT0(3):26"/>
					<v:ud v:nameU="visCalShapeType" v:prompt="" v:val="VT0(6):26"/>
					<v:ud v:nameU="visVersion" v:prompt="" v:val="VT0(14):26"/>
				</v:userDefs>
				<v:textBlock v:margins="rect(4,4,4,4)" v:tabSpace="42.5197"/>
			</g>
		</g>
		<g id="group306-490" transform="translate(58.159,-138.939)" v:mID="306" v:groupContext="group">
			<title>Sheet.306</title>
			<g id="shape307-491" v:mID="307" v:groupContext="shape">
				<title>Sheet.307</title>
				<rect x="0" y="256.239" width="4.99016" height="5.19808" rx="0.708661" ry="0.708661" class="st22"/>
			</g>
			<g id="shape308-493" v:mID="308" v:groupContext="shape" transform="translate(1.03962,-2.59904)">
				<title>Sheet.308</title>
				<path d="M0 261.44 L2.91 261.44" class="st23"/>
			</g>
		</g>
	</g>
</svg>
