<?xml version="1.0" encoding="UTF-8" standalone="no"?>
<!-- Generated by Microsoft Visio 11.0, SVG Export, v1.0 distance-from-you.svg Page-1 -->

<svg
   xmlns:v="http://schemas.microsoft.com/visio/2003/SVGExtensions/"
   xmlns:dc="http://purl.org/dc/elements/1.1/"
   xmlns:cc="http://creativecommons.org/ns#"
   xmlns:rdf="http://www.w3.org/1999/02/22-rdf-syntax-ns#"
   xmlns:svg="http://www.w3.org/2000/svg"
   xmlns="http://www.w3.org/2000/svg"
   xmlns:sodipodi="http://sodipodi.sourceforge.net/DTD/sodipodi-0.dtd"
   xmlns:inkscape="http://www.inkscape.org/namespaces/inkscape"
   width="150.08"
   height="156.31"
   viewBox="0 0 120.06404 125.04802"
   xml:space="preserve"
   color-interpolation-filters="sRGB"
   class="st7"
   id="svg9960"
   version="1.1"
   inkscape:version="0.48.2 r9819"
   sodipodi:docname="distance-from-you.svg"
   style="font-size:12px;fill:none;stroke-linecap:square;stroke-miterlimit:3;overflow:visible"><metadata
   id="metadata10109"><rdf:RDF><cc:Work
       rdf:about=""><dc:format>image/svg+xml</dc:format><dc:type
         rdf:resource="http://purl.org/dc/dcmitype/StillImage" /></cc:Work></rdf:RDF></metadata><defs
   id="defs10107">
		
		<v:pageProperties
   v:shadowOffsetY="-8.50394"
   v:shadowOffsetX="8.50394"
   v:drawingUnits="24"
   v:pageScale="0.0393701"
   v:drawingScale="0.0393701" />
		
	
			
			
			
		
				
				
				
			
				
				
				
				
				
				
				
				
				
				
				
				
				
				
				
				
				
			
					
					<v:userDefs>
						<v:ud
   v:nameU="visVersion"
   v:val="VT0(14):26" />
					</v:userDefs>
					
				
					
					<v:userDefs>
						<v:ud
   v:nameU="visVersion"
   v:val="VT0(14):26" />
					</v:userDefs>
					
				
					
					<v:userDefs>
						<v:ud
   v:nameU="visVersion"
   v:val="VT0(14):26" />
					</v:userDefs>
					
				
					
					<v:userDefs>
						<v:ud
   v:nameU="visVersion"
   v:val="VT0(14):26" />
					</v:userDefs>
					
				
					
					<v:userDefs>
						<v:ud
   v:nameU="visVersion"
   v:val="VT0(14):26" />
					</v:userDefs>
					
				
					
					<v:userDefs>
						<v:ud
   v:nameU="visVersion"
   v:val="VT0(14):26" />
					</v:userDefs>
					
				
					
					<v:userDefs>
						<v:ud
   v:nameU="visVersion"
   v:val="VT0(14):26" />
					</v:userDefs>
					
				
					
					<v:userDefs>
						<v:ud
   v:nameU="visVersion"
   v:val="VT0(14):26" />
					</v:userDefs>
					
				
					
					<v:userDefs>
						<v:ud
   v:nameU="visVersion"
   v:val="VT0(14):26" />
					</v:userDefs>
					
				
					
					<v:userDefs>
						<v:ud
   v:nameU="visVersion"
   v:val="VT0(14):26" />
					</v:userDefs>
					
				
					
					<v:userDefs>
						<v:ud
   v:nameU="visVersion"
   v:val="VT0(14):26" />
					</v:userDefs>
					
				
					
					<v:userDefs>
						<v:ud
   v:nameU="visVersion"
   v:val="VT0(14):26" />
					</v:userDefs>
					
				
					
					<v:userDefs>
						<v:ud
   v:nameU="visVersion"
   v:val="VT0(14):26" />
					</v:userDefs>
					
				
					
					<v:userDefs>
						<v:ud
   v:nameU="visVersion"
   v:val="VT0(14):26" />
					</v:userDefs>
					
				
					
					<v:userDefs>
						<v:ud
   v:nameU="visVersion"
   v:val="VT0(14):26" />
					</v:userDefs>
					
				
					
					
					
				
					
					
					
				
					
					
					<v:textBlock
   v:margins="rect(2,2,2,2)"
   v:tabSpace="42.5197" />
					<v:textRect
   cx="154.051"
   cy="325.727"
   width="308.11"
   height="65.0069" />
					
									</defs><sodipodi:namedview
   pagecolor="#ffffff"
   bordercolor="#666666"
   borderopacity="1"
   objecttolerance="10"
   gridtolerance="10"
   guidetolerance="10"
   inkscape:pageopacity="0"
   inkscape:pageshadow="2"
   inkscape:window-width="1920"
   inkscape:window-height="1148"
   id="namedview10105"
   showgrid="false"
   fit-margin-top="0"
   fit-margin-left="0"
   fit-margin-right="0"
   fit-margin-bottom="0"
   inkscape:zoom="5.6568543"
   inkscape:cx="78.015234"
   inkscape:cy="16.16254"
   inkscape:window-x="-8"
   inkscape:window-y="-8"
   inkscape:window-maximized="1"
   inkscape:current-layer="svg9960" />
	<v:documentProperties
   v:langID="1033"
   v:metric="true"
   v:viewMarkup="false" />

	<style
   type="text/css"
   id="style9962">
	
		.st1 {fill:none;stroke:#000000;stroke-linecap:round;stroke-linejoin:round;stroke-width:3}
		.st2 {stroke:#000000;stroke-linecap:round;stroke-linejoin:round;stroke-width:3}
		.st3 {fill:none;stroke:#000000;stroke-linecap:round;stroke-linejoin:round;stroke-width:4.5}
		.st4 {fill:none;stroke:none;stroke-linecap:round;stroke-linejoin:round;stroke-width:0.75}
		.st5 {fill:#000000;font-family:Calibri;font-size:3.33334em}
		.st6 {stroke:#000000;stroke-linecap:round;stroke-linejoin:round;stroke-width:4.5}
		.st7 {fill:none;fill-rule:evenodd;font-size:12px;overflow:visible;stroke-linecap:square;stroke-miterlimit:3}
	
	</style>

	<g
   id="group287-4"
   transform="matrix(0.35,0,0,0.35,57.486533,-60.676053)"
   v:mID="287"
   v:groupContext="group"
   style="stroke:#1a1c1d;stroke-opacity:1">
						<title
   id="title9978">Sheet.287</title>
						<g
   id="shape288-5"
   v:mID="288"
   v:groupContext="shape"
   transform="translate(1.83162,-16.5354)"
   style="stroke:#1a1c1d;stroke-opacity:1">
							<title
   id="title9981">Circle</title>
							<v:userDefs>
								<v:ud
   v:nameU="visVersion"
   v:val="VT0(14):26" />
							</v:userDefs>
							<path
   d="m 0,350.6 a 7.63174,7.63174 0 0 1 15.26,0 7.63174,7.63174 0 1 1 -15.26,0 z"
   class="st1"
   id="path9983"
   inkscape:connector-curvature="0"
   style="fill:none;stroke:#1a1c1d;stroke-width:3;stroke-linecap:round;stroke-linejoin:round;stroke-opacity:1" />
						</g>
						<g
   id="shape289-7"
   v:mID="289"
   v:groupContext="shape"
   transform="matrix(0,1,-1,0,367.694,341.695)"
   style="stroke:#1a1c1d;stroke-opacity:1">
							<title
   id="title9986">Sheet.289</title>
							<path
   d="m 0,358.23 8.6,0"
   class="st2"
   id="path9988"
   inkscape:connector-curvature="0"
   style="stroke:#1a1c1d;stroke-width:3;stroke-linecap:round;stroke-linejoin:round;stroke-opacity:1" />
						</g>
						<g
   id="shape290-10"
   v:mID="290"
   v:groupContext="shape"
   transform="translate(0.17444,0)"
   style="stroke:#1a1c1d;stroke-opacity:1">
							<title
   id="title9991">Sheet.290</title>
							<path
   d="m 0,358.23 a 24.5361,13.1517 78.65 0 1 18.86,0"
   class="st2"
   id="path9993"
   inkscape:connector-curvature="0"
   style="stroke:#1a1c1d;stroke-width:3;stroke-linecap:round;stroke-linejoin:round;stroke-opacity:1" />
						</g>
						<g
   id="shape291-13"
   v:mID="291"
   v:groupContext="shape"
   transform="matrix(0.96316679,-0.26890469,0.26890469,0.96316679,-96.3299,6.10816)"
   style="stroke:#1a1c1d;stroke-opacity:1">
							<title
   id="title9996">Sheet.291</title>
							<path
   d="m 0,358.23 a 13.3667,8.59602 17.12 0 1 17.84,0"
   class="st2"
   id="path9998"
   inkscape:connector-curvature="0"
   style="stroke:#1a1c1d;stroke-width:3;stroke-linecap:round;stroke-linejoin:round;stroke-opacity:1" />
						</g>
					</g><g
   id="shape292-16"
   v:mID="292"
   v:groupContext="shape"
   transform="matrix(0.35,0,0,0.35,53.115033,-58.53811)"
   style="stroke:#1a1c1d;stroke-opacity:1">
						<title
   id="title10001">Circle</title>
						<v:userDefs>
							<v:ud
   v:nameU="visVersion"
   v:val="VT0(14):26" />
						</v:userDefs>
						<path
   d="m 0,336.22 a 22.01,22.01 0 0 1 44.02,0 22.01,22.01 0 1 1 -44.02,0 z"
   class="st3"
   id="path10003"
   inkscape:connector-curvature="0"
   style="fill:none;stroke:#1a1c1d;stroke-width:4.5;stroke-linecap:round;stroke-linejoin:round;stroke-opacity:1" />
					</g><path
   d="m 75.841933,70.97176 a 2.671109,2.671109 0 0 1 5.341,0 2.671109,2.671109 0 1 1 -5.341,0 z"
   class="st1"
   id="path10008"
   inkscape:connector-curvature="0"
   style="fill:none;stroke:#1a1c1d;stroke-width:1.04999995;stroke-linecap:round;stroke-linejoin:round;stroke-opacity:1" /><path
   d="m 71.731183,81.20128 a 2.671109,2.671109 0 0 1 5.341,0 2.671109,2.671109 0 1 1 -5.341,0 z"
   class="st1"
   id="path10013"
   inkscape:connector-curvature="0"
   style="fill:none;stroke:#1a1c1d;stroke-width:1.04999995;stroke-linecap:round;stroke-linejoin:round;stroke-opacity:1" /><path
   d="m 92.871183,36.86391 a 2.671109,2.671109 0 0 1 5.341,0 2.671109,2.671109 0 1 1 -5.341,0 z"
   class="st1"
   id="path10018"
   inkscape:connector-curvature="0"
   style="fill:none;stroke:#1a1c1d;stroke-width:1.04999995;stroke-linecap:round;stroke-linejoin:round;stroke-opacity:1" /><path
   d="m 38.495183,66.128565 a 2.671109,2.671109 0 0 1 5.341,0 2.671109,2.671109 0 1 1 -5.341,0 z"
   class="st1"
   id="path10023"
   inkscape:connector-curvature="0"
   style="fill:none;stroke:#1a1c1d;stroke-width:1.04999995;stroke-linecap:round;stroke-linejoin:round;stroke-opacity:1" /><path
   d="m 48.083433,36.86391 a 2.671109,2.671109 0 0 1 5.341,0 2.671109,2.671109 0 1 1 -5.341,0 z"
   class="st1"
   id="path10028"
   inkscape:connector-curvature="0"
   style="fill:none;stroke:#1a1c1d;stroke-width:1.04999995;stroke-linecap:round;stroke-linejoin:round;stroke-opacity:1" /><path
   d="m 18.461708,39.03601 a 2.671109,2.671109 0 0 1 5.341,0 2.671109,2.671109 0 1 1 -5.341,0 z"
   class="st1"
   id="path10033"
   inkscape:connector-curvature="0"
   style="fill:none;stroke:#1a1c1d;stroke-width:1.04999995;stroke-linecap:round;stroke-linejoin:round;stroke-opacity:1" /><path
   d="m 28.382983,61.54955 a 2.671109,2.671109 0 0 1 5.341,0 2.671109,2.671109 0 1 1 -5.341,0 z"
   class="st1"
   id="path10038"
   inkscape:connector-curvature="0"
   style="fill:none;stroke:#1a1c1d;stroke-width:1.04999995;stroke-linecap:round;stroke-linejoin:round;stroke-opacity:1" /><path
   d="m 75.841933,48.95711 a 2.671109,2.671109 0 0 1 5.341,0 2.671109,2.671109 0 1 1 -5.341,0 z"
   class="st1"
   id="path10043"
   inkscape:connector-curvature="0"
   style="fill:none;stroke:#1a1c1d;stroke-width:1.04999995;stroke-linecap:round;stroke-linejoin:round;stroke-opacity:1" /><path
   d="m 48.225533,88.64221 a 2.671109,2.671109 0 0 1 5.341,0 2.671109,2.671109 0 1 1 -5.341,0 z"
   class="st1"
   id="path10048"
   inkscape:connector-curvature="0"
   style="fill:none;stroke:#1a1c1d;stroke-width:1.04999995;stroke-linecap:round;stroke-linejoin:round;stroke-opacity:1" /><path
   d="m 19.453853,88.64221 a 2.671109,2.671109 0 0 1 5.341,0 2.671109,2.671109 0 1 1 -5.341,0 z"
   class="st1"
   id="path10053"
   inkscape:connector-curvature="0"
   style="fill:none;stroke:#1a1c1d;stroke-width:1.04999995;stroke-linecap:round;stroke-linejoin:round;stroke-opacity:1" /><path
   d="m 61.810083,14.61441 a 2.671109,2.671109 0 0 1 5.341,0 2.671109,2.671109 0 1 1 -5.341,0 z"
   class="st1"
   id="path10058"
   inkscape:connector-curvature="0"
   style="fill:none;stroke:#1a1c1d;stroke-width:1.04999995;stroke-linecap:round;stroke-linejoin:round;stroke-opacity:1" /><path
   d="m 92.871183,14.61441 a 2.671109,2.671109 0 0 1 5.341,0 2.671109,2.671109 0 1 1 -5.341,0 z"
   class="st1"
   id="path10063"
   inkscape:connector-curvature="0"
   style="fill:none;stroke:#1a1c1d;stroke-width:1.04999995;stroke-linecap:round;stroke-linejoin:round;stroke-opacity:1" /><path
   d="m 108.74508,81.20128 a 2.671109,2.671109 0 0 1 5.341,0 2.671109,2.671109 0 1 1 -5.341,0 z"
   class="st1"
   id="path10068"
   inkscape:connector-curvature="0"
   style="fill:none;stroke:#1a1c1d;stroke-width:1.04999995;stroke-linecap:round;stroke-linejoin:round;stroke-opacity:1" /><path
   d="m 28.382983,4.69296 a 2.671109,2.671109 0 0 1 5.341,0 2.671109,2.671109 0 1 1 -5.341,0 z"
   class="st1"
   id="path10073"
   inkscape:connector-curvature="0"
   style="fill:none;stroke:#1a1c1d;stroke-width:1.04999995;stroke-linecap:round;stroke-linejoin:round;stroke-opacity:1" /><path
   d="m 2.2824331,56.446095 a 2.671109,2.671109 0 0 1 5.341,0 2.671109,2.671109 0 1 1 -5.341,0 z"
   class="st1"
   id="path10078"
   inkscape:connector-curvature="0"
   style="fill:none;stroke:#1a1c1d;stroke-width:1.04999995;stroke-linecap:round;stroke-linejoin:round;stroke-opacity:1" /><text
   x="0.4251796"
   y="115.55817"
   class="st5"
   v:langID="2070"
   id="text10090"
   style="font-size:14.40000439px;font-style:normal;font-variant:normal;font-weight:normal;font-stretch:normal;fill:#1a1c1d;fill-opacity:1;font-family:Georgia;-inkscape-font-specification:Georgia"><v:paragraph
   v:horizAlign="1" /><v:tabList />Distance from You</text>
<g
   id="shape295-53"
   v:mID="295"
   v:groupContext="shape"
   transform="matrix(0.36218711,-0.00989434,0.01024296,0.34986012,3.1458721,-3.4633122)"
   style="stroke:#1a1c1d;stroke-opacity:1">
						<title
   id="title10096">Sheet.295</title>
						<path
   d="m 0,356.38 c 112.29,-13.3 202.63,8.09 307.03,0"
   class="st6"
   id="path10098"
   inkscape:connector-curvature="0"
   style="stroke:#1a1c1d;stroke-width:4.5;stroke-linecap:round;stroke-linejoin:round;stroke-opacity:1" />
					</g><g
   id="shape296-56"
   v:mID="296"
   v:groupContext="shape"
   transform="matrix(0.36218711,-0.00989434,0.01024296,0.34986012,-1.6812733,-1.1458197)"
   style="stroke:#1a1c1d;stroke-opacity:1">
						<title
   id="title10101">Sheet.296</title>
						<path
   d="m 0,356.02 c 112.29,-15.97 202.63,9.69 307.03,0"
   class="st6"
   id="path10103"
   inkscape:connector-curvature="0"
   style="stroke:#1a1c1d;stroke-width:4.5;stroke-linecap:round;stroke-linejoin:round;stroke-opacity:1" />
					</g>
</svg>